<svg style="background-color:transparent;"  xmlns="http://www.w3.org/2000/svg" viewBox="0 0 24 24.08"><path d="M9.05,6.91c.04,.22,.12,.45,.23,.65,.33,.57,.95,.52,1.47,.26,.04-.01,.09-.03,.13-.04,.19-.08,.38-.18,.56-.28,0,0,.02-.01,.07-.03,.18-.05,.35-.08,.49-.08,.14,0,.3,.02,.49,.08,.05,.02,.07,.03,.07,.03,.18,.1,.37,.2,.56,.28,.04,.02,.09,.03,.13,.04,.52,.26,1.14,.31,1.47-.26,.11-.2,.19-.43,.23-.65,.08-.4,.12-.82,.07-1.22-.08-.63-.31-1.27-.62-1.83,0,0-.01-.02-.02-.03-.12-.21-.27-.38-.53-.46-.12-.04-.23-.04-.35-.03-.04-.03-.09-.05-.13-.07,.29-.06,.59,.11,.59,.11-.31-.51-1.06-.67-1.06-.67-.57-.1-.43,.12-.43,.12,.3,.03,.52,.25,.64,.39-.05,0-.07,.01-.07,.01-.04,.01-.08,.02-.11,.03,0,0,0,0,0,0,0,0-.41-.26-.93-.17-.52-.1-.93,.17-.93,.17,0,0,0,0,0,0-.04,0-.07-.02-.11-.03,0,0-.03,0-.07-.01,.11-.14,.33-.36,.64-.39,0,0,.14-.22-.43-.12,0,0-.75,.16-1.06,.67,0,0,.29-.17,.59-.11-.04,.02-.08,.04-.13,.07-.12,0-.23,0-.35,.03-.25,.08-.41,.25-.53,.46,0,0-.01,.02-.02,.03-.31,.56-.54,1.2-.62,1.83-.05,.41-.01,.82,.07,1.22Z" fill="#dc2626"/><path d="M5.75,4.35c.06,.32,.75,.32,.75,.32,.93,.08,2.76-.38,2.76-.38l.15-.21-1.02,.1c-.88,.14-2.36-.03-2.36-.03-.3-.05-.28,.19-.28,.19Z" fill="#dc2626"/><path d="M1.81,.26l.34,.29s0,.01,0,.02l.36,.31s0,.01,0,.02l.36,.31s0,.01,0,.02l.36,.31s0,.01,0,.02l.36,.31s0,.01,0,.02l.41,.36s0,.04,0,.06l.44,.39s0,.04,0,.05l.38,.44s0,.05,0,.07l.32,.37s0,.02,0,.03c0,.06,.04,.11,.08,.16,.05,.06,.09,.12,.13,.18,.07,.1,.13,.2,.23,.28,.03,.03,.07,.05,.11,.07,0,0,.04,.01,.04,0-.05-.08,.03-.17,.03-.17-.04,0-.08,0-.11-.02,0,0,0,0,0,0-.02-.02-.03-.05-.04-.07-.02-.05-.05-.1-.08-.15-.04-.07-.07-.16-.11-.23-.02-.03-.06-.08-.1-.11-.04-.1-.18-.32-.2-.34-.04-.05-.09-.13-.15-.15,0,0-.01,0-.02,0-.04-.1-.18-.32-.2-.35-.04-.05-.09-.13-.15-.15-.01,0-.03,0-.04,0-.05-.09-.23-.29-.25-.32-.04-.05-.1-.12-.17-.13,0,0-.01,0-.02,0-.07-.1-.21-.26-.23-.29-.04-.05-.1-.12-.17-.13,0,0-.01,0-.02,0-.07-.09-.15-.19-.17-.2-.04-.05-.1-.12-.17-.13,0,0-.01,0-.02,0-.07-.09-.15-.19-.17-.2-.04-.05-.1-.12-.17-.13,0,0-.01,0-.02,0-.07-.09-.15-.18-.17-.2-.04-.05-.1-.12-.17-.13,0,0-.01,0-.02,0-.07-.09-.15-.19-.17-.2-.04-.05-.1-.12-.17-.13,0,0-.01,0-.02,0-.07-.09-.15-.18-.17-.2-.04-.04-.09-.1-.14-.12-.06-.03-.26-.14-.6-.04,0,0-.01,.11,.49,.21Z" fill="#dc2626"/><path d="M10.45,11.26c-1.1-.8-1.84-2.55-1.84-2.55l-.15,.05,.05-.11-2.56,.42-1.53,.12s-.04,.05-.06,.07l-.48-.09s.02,.04,.02,.08l-.47-.11s.04,.05,.04,.08l-.3-.11s.03,.07,.03,.11l-.53-.08s-.21,.07-.07,.19c0,0,.29,.06,.56,.04-.04,.07-.09,.12-.09,.12l.39-.14c-.02,.08-.06,.15-.06,.15,.07-.07,.35-.12,.47-.14-.03,.08-.07,.16-.07,.16,.07-.08,.43-.11,.53-.12,.01,.07,.05,.11,.05,.11,.25-.23,1.61-.12,1.61-.12,1.09,.02,1.86-.26,2.2-.42,1.16,2.52,2.34,2.78,2.34,2.78l-.09-.49Z" fill="#dc2626"/><polygon points="2.6 9.12 2.47 9.03 2.52 9.17 2.6 9.12" fill="#dc2626"/><polygon points="2.55 9.37 2.48 9.32 2.36 9.41 2.55 9.37" fill="#dc2626"/><path d="M2.55,15.39l.26-.3c.03,.08,.03,.16,.03,.16,.03-.09,.24-.26,.33-.33,.02,.08,.03,.17,.03,.17,.02-.1,.31-.29,.4-.35,.05,.05,.1,.08,.1,.08,.09-.31,1.33-.84,1.33-.84,1.34-.67,1.81-1.57,1.81-1.57l-.03-.23-1.99,1.54-1.26,.81s-.01,.06-.01,.09l-.47,.14s.04,.03,.06,.06l-.47,.12s.06,.03,.08,.05l-.32,.04s.07,.05,.08,.08l-.51,.17s-.14,.16,.04,.19c0,0,.29-.08,.5-.22,0,.08-.01,.15-.01,.15Z" fill="#dc2626"/><polygon points="1.78 15.26 1.89 15.36 1.94 15.28 1.78 15.26" fill="#dc2626"/><polygon points="1.94 15.51 1.89 15.65 2.03 15.52 1.94 15.51" fill="#dc2626"/><path d="M7.06,12.08s-.16-.02-.16,.06,.04,.44,.04,.44l.33,.03s.26,.11,.84,.62c0,0,.7,.64,1.7,.44l.22-.36s-.56-.24-.61-.27c-.05-.04-1.14-.76-2.36-.95Z" fill="#dc2626"/><path d="M10.11,13.3h0s-.02,0,0,0Z" fill="#dc2626"/><path d="M5.32,19.98c-.26,.61-.24,.8-.24,.8,.09,.14,.35-.06,.35-.06l1.72-3.47-.26-.05c-.33,.3-1.57,2.78-1.57,2.78Z" fill="#dc2626"/><path d="M3.34,22l.09,.12,.09,.06,1.59-1.3-.09-.08c-.09,.14-1.69,1.2-1.69,1.2Z" fill="#dc2626"/><path d="M2.79,22.52s-.04,.08-.03,.1l-.16,.11h0s-.6,.39-.6,.39c-.02,.03-.03,.05-.03,.07l-.59,.4c-.11,.17,.12,.19,.12,.19l.5-.5s.11,.04,.11,.04l.17-.17s.08,.02,.08,.02l.47-.47s.08,.02,.08,.02l.53-.53-.06-.06-.6,.4Z" fill="#dc2626"/><polygon points="1.13 23.46 1.3 23.55 1.36 23.47 1.13 23.46" fill="#dc2626"/><polygon points="1.49 23.83 1.61 24 1.57 23.81 1.49 23.83" fill="#dc2626"/><path d="M17.5,4.67s.69,0,.75-.32c0,0,.03-.24-.27-.19,0,0-1.48,.17-2.36,.03l-1.02-.1,.15,.21s1.83,.45,2.76,.38Z" fill="#dc2626"/><path d="M18.27,4.37s.04,0,.04,0c.04-.02,.08-.04,.11-.07,.1-.08,.16-.18,.23-.28,.04-.06,.08-.12,.13-.18,.04-.04,.09-.1,.08-.16,0,0,0-.02,0-.03l.32-.37s0-.04,0-.07l.38-.44s0-.03,0-.05l.44-.39s0-.04,0-.06l.41-.36s0-.01,0-.02l.36-.31s0-.01,0-.02l.36-.31s0-.01,0-.02l.36-.31s0-.01,0-.02l.36-.31s0-.01,0-.02l.34-.29c.51-.11,.49-.22,.49-.22-.34-.1-.55,0-.6,.04-.06,.02-.11,.08-.14,.12-.02,.02-.1,.11-.17,.2,0,0-.01,0-.02,0-.07,.01-.13,.08-.17,.13-.02,.02-.1,.11-.17,.2,0,0-.01,0-.02,0-.07,.02-.13,.08-.17,.13-.02,.02-.1,.11-.17,.2,0,0-.01,0-.02,0-.07,.02-.13,.08-.17,.13-.02,.02-.1,.11-.17,.2,0,0-.01,0-.02,0-.07,.01-.13,.08-.17,.13-.02,.02-.1,.11-.17,.2,0,0-.01,0-.02,0-.07,.01-.13,.08-.17,.13-.02,.02-.16,.19-.23,.29,0,0-.01,0-.02,0-.07,.02-.13,.08-.17,.13-.02,.03-.2,.23-.25,.32-.01,0-.02,0-.04,0-.07,.02-.12,.1-.15,.15-.02,.03-.17,.25-.2,.35,0,0-.01,0-.02,0-.07,.02-.12,.1-.15,.15-.02,.03-.16,.24-.2,.34-.04,.03-.08,.08-.1,.11-.05,.07-.08,.15-.11,.23-.03,.05-.05,.1-.08,.15-.01,.03-.02,.06-.04,.07,0,0,0,0,0,0-.03,.02-.08,.02-.11,.02,0,0,.08,.09,.03,.17Z" fill="#dc2626"/><path d="M19.53,9.8s.04-.05,.06-.11c.11,.02,.46,.08,.52,.16,0,0-.03-.08-.05-.16,.12,.03,.39,.1,.46,.17,0,0-.03-.07-.04-.15l.38,.17s-.05-.05-.08-.13c.26,.04,.56,0,.56,0,.15-.1-.05-.19-.05-.19l-.54,.04s.01-.07,.04-.1l-.31,.09s.02-.06,.05-.08l-.48,.08s0-.06,.03-.08l-.49,.05s-.03-.05-.05-.08l-1.51-.24-2.52-.61,.05,.13-.16-.06s-.74,1.75-1.84,2.55l-.09,.49s1.18-.25,2.34-2.77c.34,.19,1.07,.52,2.15,.58,0,0,1.37,0,1.59,.24Z" fill="#dc2626"/><polygon points="21.43 9.59 21.49 9.46 21.35 9.54 21.43 9.59" fill="#dc2626"/><polygon points="21.57 9.85 21.46 9.74 21.38 9.79 21.57 9.85" fill="#dc2626"/><path d="M21.95,15.46c.18-.03,.04-.19,.04-.19l-.51-.17s.05-.06,.08-.08l-.32-.04s.05-.05,.08-.05l-.47-.12s.04-.05,.06-.06l-.47-.14s0-.06-.01-.09l-1.25-.81-1.99-1.54-.03,.23s.47,.89,1.81,1.57c0,0,1.24,.53,1.33,.84,0,0,.06-.03,.1-.08,.09,.06,.38,.25,.4,.35,0,0,0-.09,.03-.17,.09,.07,.31,.24,.33,.33,0,0,0-.08,.03-.16l.27,.3s-.02-.07-.01-.15c.22,.14,.5,.22,.5,.22Z" fill="#dc2626"/><polygon points="22.06 15.28 22.11 15.36 22.22 15.26 22.06 15.28" fill="#dc2626"/><polygon points="22.06 15.51 21.97 15.52 22.11 15.65 22.06 15.51" fill="#dc2626"/><path d="M16.94,12.08c-1.22,.19-2.31,.92-2.36,.95-.05,.03-.61,.27-.61,.27l.22,.36c1,.2,1.7-.44,1.7-.44,.59-.51,.84-.62,.84-.62l.33-.03s.04-.36,.04-.44c0-.08-.16-.06-.16-.06Z" fill="#dc2626"/><path d="M13.89,13.3h0s.02,0,0,0Z" fill="#dc2626"/><path d="M16.81,16.61c-.78-.86-2.32-1.38-2.32-1.38-.25-.1-.42-.1-.53-.08-.15-.24-.35-.41-.56-.53l-.32-.6h0s0,0,0,0c0,0,0,0,0,0-.06-.1-.05-.37,0-.71,.01,.14,.03,.24,.03,.24,.29,.24,.45,.03,.45,.03l.05-.19v.16c.14,.24,.58,.19,.58,.19l-.29-.43s-.23,.01-.27,.02l.04-.13-.4-.63s-.04,.03-.06,.04c.17-.79,.41-1.6,.41-1.6-.07-.13-.15-.23-.25-.32,.13,.08,.24,.18,.32,.32,0,0,.74-1.59-.34-2.46,0,0-.03-.02-.08-.04l-.36-.45s-.09-.08-.16-.11h.01s-.08-.31-.08-.31c0,0-.12-.06-.29-.11-.12-.06-.25-.08-.39-.07-.13,0-.27,.01-.39,.07-.17,.05-.29,.11-.29,.11l-.08,.31h.01c-.07,.03-.13,.06-.16,.1l-.36,.45s-.08,.04-.08,.04c-1.08,.87-.34,2.46-.34,2.46,.08-.13,.19-.24,.32-.32-.1,.08-.19,.19-.25,.32,0,0,.24,.81,.42,1.6-.02-.02-.04-.03-.06-.04l-.4,.63,.04,.13s-.23-.01-.27-.02l-.29,.43s.45,.05,.6-.19v-.16s.04,.19,.04,.19c0,0,.16,.21,.45-.03,0,0,.02-.1,.03-.24,.05,.34,.06,.61,0,.71,0,0,.01,.02,.04,.05l-.05-.04-.28,.52c-.27,.12-.52,.31-.71,.6-.1,0-.24,.02-.42,.09,0,0-1.55,.52-2.32,1.38,0,0-.3,.2-.24,.45,0,0,.44,.37,.59-.02,0,0,1.06-.73,2.02-1.01-.5,1.53-.75,3.39,.4,4.66,.35,.39,.77,.73,1.24,.99,.02,.01,.51,.21,.71,.26,0,0,.02,0,.04,0,.02,0,.04,0,.04,0,.2-.04,.68-.25,.71-.26,.47-.25,.89-.6,1.24-.99,1.15-1.28,.9-3.16,.39-4.69,1,.24,2.14,1.04,2.14,1.04,.15,.38,.59,.02,.59,.02,.07-.25-.24-.45-.24-.45Z" fill="#dc2626"/><path d="M18.91,20.79s.02-.19-.24-.8c0,0-1.24-2.48-1.57-2.78l-.26,.05,1.72,3.47s.26,.2,.35,.06Z" fill="#dc2626"/><path d="M20.66,22s-1.59-1.06-1.69-1.2l-.09,.08,1.59,1.3,.09-.06,.09-.12Z" fill="#dc2626"/><path d="M22.03,23.19s-.01-.04-.03-.07l-.6-.4h0s-.16-.1-.16-.1c0-.03,0-.06-.03-.1l-.6-.4-.06,.06,.53,.53s.04,0,.08-.02l.47,.47s.04,0,.08-.02l.17,.17s.07,0,.11-.04l.5,.5s.24-.03,.12-.19l-.59-.4Z" fill="#dc2626"/><polygon points="22.64 23.47 22.7 23.55 22.87 23.46 22.64 23.47" fill="#dc2626"/><polygon points="22.39 24 22.51 23.83 22.43 23.81 22.39 24" fill="#dc2626"/></svg>