<svg style="background-color:transparent;"  xmlns="http://www.w3.org/2000/svg" viewBox="0 0 71.7 71.76"><path d="M13.6,64.14c-.69,0-1.23,.48-1.23,1.08,0,2.39-2.21,4.33-4.96,4.33s-4.96-1.94-4.96-4.33,2.21-4.33,4.96-4.33c.69,0,1.23-.48,1.23-1.08s-.57-1.08-1.23-1.08c-4.09,0-7.41,2.93-7.41,6.52s3.32,6.52,7.41,6.52,7.41-2.93,7.41-6.52c0-.6-.57-1.08-1.23-1.08v-.03Z" fill="#2563eb"/><path d="M64.29,58.7c-.69,0-1.23,.48-1.23,1.08s.57,1.08,1.23,1.08c2.72,0,4.96,1.94,4.96,4.33s-2.21,4.33-4.96,4.33-4.96-1.94-4.96-4.33c0-.6-.57-1.08-1.23-1.08s-1.23,.48-1.23,1.08c0,3.59,3.32,6.52,7.41,6.52s7.41-2.93,7.41-6.52-3.32-6.52-7.41-6.52v.03Z" fill="#2563eb"/><path d="M64.29,66.32c.33,0,.66-.12,.93-.36,.45-.45,.42-1.14-.09-1.52l-8.82-7.08c9.15-5.62,15.21-14.88,15.39-25.35,0-.6-.54-1.08-1.23-1.11l-33.39-.45,.06-29.35c0-.27-.15-.57-.39-.78-.21-.21-.57-.33-.9-.33C16.08,0,0,14.14,0,31.53,0,42.2,6.1,51.68,15.36,57.39l-8.79,7.05c-.51,.39-.54,1.11-.09,1.52,.45,.45,1.26,.48,1.73,.09l9.27-7.41c5.38,2.84,11.66,4.45,18.35,4.45s12.94-1.64,18.32-4.48h0l9.3,7.44c.24,.18,.54,.27,.84,.27Zm-28.45-6.52c-2.72,0-4.96-1.94-4.96-4.33s2.21-4.33,4.96-4.33,4.96,1.94,4.96,4.33-2.21,4.33-4.96,4.33Zm12.49-5.89c-7.11-5.71-17.87-5.71-25.02,0l-3.92,3.14h0c-.75-.36-1.46-.75-2.18-1.2l4.45-3.59c8.07-6.49,20.26-6.49,28.33,0l4.42,3.56c-.72,.45-1.43,.84-2.18,1.2l-3.92-3.14v.03ZM2.42,31.53v-1.08H27.83l-19.61-5.5c-.66-.18-1.02-.81-.81-1.34,.21-.57,.9-.9,1.55-.72l21.67,6.07L12.7,14.97c-.51-.39-.57-1.08-.12-1.52,.45-.45,1.23-.48,1.73-.09l17.9,13.99L22.27,8.1c-.3-.54,0-1.2,.63-1.43,.6-.24,1.34,0,1.64,.54l10.01,19.37v4.96c0,.6,.54,1.08,1.23,1.08H2.45c0-.36-.03-.72-.03-1.08Z" fill="#2563eb"/><path d="M44.5,19.58h3.71v3.26c0,.6,.57,1.08,1.23,1.08h4.96c.69,0,1.23-.48,1.23-1.08v-3.26h3.71c.69,0,1.23-.48,1.23-1.08v-4.33c0-.6-.57-1.08-1.23-1.08h-3.71v-3.26c0-.6-.57-1.08-1.23-1.08h-4.96c-.69,0-1.23,.48-1.23,1.08v3.26h-3.71c-.69,0-1.23,.48-1.23,1.08v4.33c0,.6,.57,1.08,1.23,1.08Z" fill="#2563eb"/><ellipse cx="35.84" cy="55.44" rx="2.48" ry="2.18" fill="#2563eb"/></svg>