<svg style="background-color:transparent;"  xmlns="http://www.w3.org/2000/svg" viewBox="0 0 24 24.08"><path d="M14.87,7.22c-1.09,.85-2.15,.85-2.87,.85s-1.78,0-2.87-.85c-.4,.77-1.49,3.14-1.49,6.58,0,4.24,2.33,7.99,4.36,7.99s4.36-3.76,4.36-7.99c0-3.44-1.09-5.81-1.49-6.58Z" fill="#dc2626"/><path d="M9.56,6.77c.91,.77,1.75,.77,2.44,.77s1.53,0,2.44-.77l.29,.19c-.98-2.26-2.73-2.24-2.73-2.24,0,0-1.75-.03-2.73,2.24h0l.29-.19Z" fill="#dc2626"/><path d="M9.13,7.19l-2.76-.99c-.11-.05-.18-.13-.22-.21-.07-.67-.58-2.4-1.75-2.4v-.53c1.82,0,2.33,2.13,2.44,2.74l2.58,.91-.29,.48Z" fill="#dc2626"/><path d="M2.58,14.6l-.36-.48c1.2-.48,1.96-2.61,2.15-3.41,.04-.11,.15-.19,.29-.21l3.27-.53,.15,.53-3.05,.48c-.15,.69-.91,3.01-2.44,3.62Z" fill="#dc2626"/><path d="M6.18,24l-.58-.32c1.09-1.04-.36-4.93-.98-6.31-.04-.11,0-.21,.11-.29l2.76-1.78,.47,.4-2.58,1.65c.44,1.04,2.22,5.3,.8,6.66Z" fill="#dc2626"/><path d="M12,22.06c-2.44,0-4.73-4.02-4.73-8.26s1.53-6.71,1.67-6.95c1.05-2.4,2.98-2.42,3.05-2.42s2,0,3.05,2.42c.15,.24,1.67,2.82,1.67,6.95s-2.29,8.26-4.73,8.26Zm0-17.07c-.07,0-1.49,.05-2.36,2.05v.03s-1.64,2.61-1.64,6.74,2.25,7.72,4,7.72,4-3.65,4-7.72-1.6-6.71-1.64-6.74v-.03c-.87-2.02-2.29-2.05-2.36-2.05Z" fill="#dc2626"/><path d="M14.87,7.19l-.33-.48,2.58-.91c.11-.61,.62-2.74,2.44-2.74v.53c-1.16,0-1.67,1.73-1.75,2.4,0,.11-.07,.19-.22,.21l-2.73,.99Z" fill="#dc2626"/><path d="M21.42,14.6c-1.53-.61-2.29-2.93-2.47-3.6l-3.05-.48,.15-.53,3.27,.53c.15,.03,.25,.11,.29,.21,.18,.77,.95,2.93,2.15,3.41l-.33,.45Z" fill="#dc2626"/><path d="M17.82,24c-1.42-1.36,.36-5.62,.8-6.66l-2.62-1.68,.47-.4,2.8,1.81c.11,.08,.15,.19,.11,.29-.65,1.41-2.07,5.27-.98,6.31l-.58,.32Z" fill="#dc2626"/><path d="M1.71,12.23c-1.53-1.47-1.71-3.38-1.71-3.46v-.03C0,2.72,3.6,.03,7.13,.03,11.13,.03,11.45,4.71,11.45,4.93l-.73,.03c0-.05-.33-4.37-3.6-4.37C3.96,.56,.73,3.09,.73,8.74c0,.13,.22,1.86,1.56,3.14l-.58,.35Z" fill="#dc2626"/><path d="M22.29,12.23l-.58-.32c1.35-1.31,1.56-3.04,1.56-3.14,0-5.67-3.24-8.2-6.4-8.2s-3.6,4.34-3.6,4.37l-.73-.03c0-.19,.36-4.9,4.33-4.9,3.53,.03,7.13,2.72,7.13,8.76v.03c0,.05-.18,1.97-1.71,3.44Z" fill="#dc2626"/></svg>