<svg style="background-color:transparent;"  xmlns="http://www.w3.org/2000/svg" viewBox="0 0 59.86 59.91"><path d="M39.6,14.12c-.62-.75-1.97-1.27-4.34-1.7-3.44-.6-7.11-.6-10.55,0-2.37,.42-3.69,.92-4.34,1.7-.22,.27-.42,.8-.57,1.52h0c-.35,1.75-.27,4.12-.27,4.14h0v.02c0,.22,0,2.57,.45,3.37,.15,.25,.52,.75,1,1.32,.92,1.15,2.17,2.74,2.79,4.02,.25,.55,.85,.97,1.65,1.15,1.3,.3,3.09,.85,4.59,1.67,1.47-.82,3.29-1.37,4.57-1.67,.8-.2,1.4-.6,1.65-1.15,.6-1.3,1.87-2.87,2.79-4.04,.42-.55,.85-1.07,1-1.32,.47-.85,.45-3.37,.45-3.39h0v-.02c0-.37,.07-4.49-.85-5.64v.02Z" fill="#dc2626"/><path d="M17.04,12.78c.17,0,.3,.05,.4,.15l1.65,1.75c.12-.37,.27-.67,.45-.87,.12-.15,.27-.3,.45-.42l-1.22-1.37-3.89-.2c-.15,0-.27-.05-.35-.12l-4.87-4.44h-.17c-.07,.02-.1,.07-.12,.1l5.16,5.34,2.52,.07v.02Z" fill="#dc2626"/><path d="M9.46,17.64s.22,.02,.32,.1l3.07,2.22h4.54c.32-.15,.67-.3,1.05-.4h.1v-.72l-4.82,.35c-.15,0-.3,0-.4-.1l-3.12-2.05L.07,17.37v.37l9.36-.15h0l.02,.05Z" fill="#dc2626"/><path d="M2.99,48.68h.07l3.07-3.17s.02-.02,.05-.05c0-.22,.05-.45,.07-.67l-3.27,3.87v.02Z" fill="#dc2626"/><path d="M40.45,13.8c.17,.22,.35,.52,.47,.92l1.67-1.8s.22-.15,.4-.15l2.52-.07,5.16-5.34s-.05-.07-.12-.1c-.05,0-.12-.02-.17,0l-4.84,4.44s-.22,.12-.35,.12l-3.89,.2-1.25,1.37c.17,.15,.32,.27,.42,.4h-.02Z" fill="#dc2626"/><path d="M19.89,10.51l4.47-1.27c.92-.27,1.37-.97,1-1.6l-1.07-1.87c-.42,.22-.87,.42-1.3,.62-3.22,1.4-3.69,2.22-3.47,3.47,.05,.22,.15,.45,.37,.67v-.02Z" fill="#dc2626"/><path d="M53.79,45.44s.05,.02,.05,.05l3.07,3.17h.07s.02-.02,0-.05l-3.27-3.87c.02,.22,.05,.45,.07,.67v.02Z" fill="#dc2626"/><path d="M35.61,9.23l4.47,1.27c.2-.22,.32-.45,.37-.67,.2-1.25-.25-2.07-3.47-3.47-.45-.2-.87-.4-1.3-.62l-1.07,1.87c-.35,.62,.07,1.32,1,1.6v.02Z" fill="#dc2626"/><path d="M11.5,38.13l.05-.1c1.02-2.35,2.07-4.77,2.87-6.59,.07-.17,.35-.27,.6-.22,.12,0,.2,.07,.27,.12,.22-1.22,.37-2.05,.37-2.07,0-.07,.07-.17,.2-.22,.07-.05,.2-.07,.3-.07h.07c.12,0,.25,.05,.32,.12,.07,.07,.12,.15,.1,.25,0,0-.05,.2-.1,.55-1.15,6.41-1.82,10.13-1.97,11.05-.15,.92-.65,2.15-1.2,3.57-.45,1.15-.95,2.45-1.37,3.82-.72,2.32-.07,7.16,.25,9.18,.15-.17,.3-.35,.45-.52,1.32-1.55,3.12-3.64,4.97-4.19-.1-.42-.35-1.45-.62-2.87-1.02-5.44-2.27-15.77,1-23.7,.02-.07,.12-.15,.22-.2,.12-.05,.25-.05,.37-.02,.12,0,.22,.07,.3,.15,.05,.05,.07,.12,.05,.17,.07-.05,.17-.07,.3-.07,.27,0,.5,.15,.5,.32,0,.12-.1,12.8,4.49,18.54h0c.92,1.17,2,1.95,3.17,2.37,.77-1.1,1.47-2.22,2.02-3.34,.62-1.25,1.1-2.52,1.45-3.79,.32-1.17,.52-2.37,.62-3.59,0-.27,.02-.5,.02-.7h0c0-.82-.02-1.5-.15-2.05-.07-.35-.27-.7-.55-1.02-.3-.35-.72-.7-1.27-1.02h0c-1.4-.85-3.27-1.4-4.59-1.72-1.07-.25-1.9-.82-2.25-1.57-.57-1.22-1.82-2.77-2.72-3.92-.5-.62-.87-1.12-1.05-1.4-.4-.72-.5-2.3-.52-3.12-.25,.07-.47,.17-.7,.3h-.02c-.5,.27-.92,.62-1.2,1.02-2.15,3.09-6.19,10.16-8.26,17.62,1.8-2.05,4.94-6.21,6.59-11.85,.02-.1,.1-.17,.2-.2,.1-.05,.25-.07,.37-.05,.12,0,.22,.07,.3,.15,.07,.07,.1,.15,.07,.25-2.3,7.86-7.29,12.75-7.98,13.42-.2,.87-.35,1.67-.47,2.42-.5,2.94-.55,5.64-.15,8.01,.42-2.57,1.07-6.01,1.67-7.36,.47-1.05,1.4-3.17,2.55-5.81l.05-.02Zm9.71-8.76s.2-.12,.32-.12,.25,0,.35,.05,.17,.12,.2,.22c1.42,7.01,8.18,10.95,8.26,11,.2,.12,.22,.32,.05,.47-.1,.07-.22,.12-.37,.12-.12,0-.22-.02-.32-.07-.1-.07-7.11-4.12-8.58-11.4,0-.07,0-.17,.1-.25v-.02Z" fill="#dc2626"/><path d="M44.06,27.47s0-.17,.07-.25c.07-.07,.17-.12,.3-.15,.12,0,.25,0,.37,.05,.1,.05,.17,.12,.2,.2,1.65,5.64,4.79,9.83,6.59,11.85-2.07-7.44-6.14-14.52-8.26-17.62-.27-.4-.7-.75-1.22-1.02-.22-.12-.45-.22-.7-.3,0,.85-.1,2.42-.52,3.12-.15,.27-.55,.77-1.02,1.37h0c-.9,1.15-2.15,2.69-2.72,3.92-.35,.75-1.17,1.32-2.25,1.57-1.17,.27-2.84,.77-4.19,1.5,.42,.3,.8,.62,1.05,.95,.35,.4,.57,.82,.67,1.25,.12,.6,.2,1.32,.17,2.17,0,.22,0,.47-.02,.72-.05,.52-.1,1.05-.2,1.6,1.87-1.67,4.67-4.77,5.51-8.93,0-.1,.1-.17,.2-.22s.22-.07,.35-.05c.12,0,.22,.05,.32,.12,.07,.07,.12,.15,.1,.25-1.02,4.99-4.64,8.46-6.71,10.08h0c-.07,.27-.12,.55-.2,.82-.35,1.25-.82,2.52-1.42,3.77,.55,1.1,1.22,2.2,1.97,3.24,3.17-1.1,5.49-4.97,6.74-11.25,1-4.97,.95-9.63,.95-9.68,0-.17,.22-.32,.47-.32,.1,0,.22,0,.3,.07,0-.07,0-.12,.07-.17,.07-.07,.17-.12,.3-.15,.12,0,.25,0,.37,.02,.12,.05,.2,.12,.22,.2,3.24,7.86,2.02,18.16,1.02,23.63,0,.05,0,.1-.02,.15-.25,1.37-.47,2.35-.6,2.79,1.85,.55,3.64,2.64,4.97,4.19,.15,.17,.3,.35,.45,.52,.32-2.02,.97-6.89,.25-9.18-.42-1.37-.92-2.67-1.37-3.79-.55-1.42-1.05-2.64-1.2-3.57s-.82-4.64-1.97-11.05c-.05-.32-.1-.52-.1-.55,0-.07,0-.17,.1-.25,.07-.07,.2-.12,.32-.12s.25,0,.35,.05,.17,.12,.2,.22c0,.02,.15,.85,.37,2.07,.07-.07,.15-.1,.27-.12,.25-.05,.52,.05,.6,.22,.82,1.87,1.95,4.44,2.92,6.69,1.15,2.64,2.07,4.77,2.55,5.81,.6,1.35,1.25,4.79,1.67,7.36,.5-3.02,.3-6.51-.62-10.43-.7-.67-5.71-5.71-7.98-13.42l-.05,.05Z" fill="#dc2626"/><path d="M47.53,38.3c-.9-2.1-1.92-4.44-2.74-6.26,.55,3.07,1.4,7.76,1.57,8.83,.15,.87,.62,2.07,1.17,3.47,.45,1.15,.95,2.45,1.4,3.84,.9,2.84-.2,9.16-.37,10.18h0c.42,.15,.92-.07,1.07-.15,1.07-1.3,1.9-2.79,2.45-4.47-.07-.55-1.12-7.66-2-9.66-.47-1.05-1.4-3.17-2.55-5.84v.05Z" fill="#dc2626"/><path d="M17.96,49.4c.3-.2,.77-.65,1.42-1.57,1.25-1.8,2.94-2.47,3.82-2.69-4.09-5.54-4.34-16.49-4.37-18.29-2.92,7.59-1.85,17.24-.87,22.56Z" fill="#dc2626"/><path d="M49.75,17.07l-3.12,2.05s-.25,.1-.4,.1l-4.82-.35v.7h.1c.35,.12,.7,.27,1.05,.42h4.54l3.07-2.22c.1-.07,.25-.1,.32-.1h0l9.36,.15v-.37l-10.13-.32,.02-.05Z" fill="#dc2626"/><path d="M40.6,47.83c.65,.92,1.12,1.37,1.42,1.57,.95-5.34,2.02-15.02-.87-22.56,0,1.87-.2,12.7-4.37,18.29,.87,.22,2.57,.9,3.82,2.69Z" fill="#dc2626"/><path d="M23.65,45.71c-.67,.17-2.22,.72-3.39,2.4-.8,1.15-1.52,1.82-2.17,2.05,.3,1.6,.57,2.59,.62,2.79,.05,.17-.12,.35-.37,.37-1.6,.27-3.59,2.59-4.79,3.99-.5,.57-.92,1.07-1.25,1.35h0c-.17,.15-.3,.22-.45,.27-.22,.07-.47,.12-.72,.12,.57,.55,1.25,.8,2.05,.77,2.87-.07,7.46-3.69,12.33-9.68h0c.52-.65,1.07-1.35,1.6-2.07-1.27-.45-2.42-1.25-3.42-2.42l-.02,.05Z" fill="#dc2626"/><path d="M11.43,58.39c-.17-1.02-1.25-7.31-.37-10.18,.42-1.37,.95-2.69,1.4-3.84,.55-1.4,1.02-2.62,1.17-3.49,.17-1.07,1.02-5.76,1.57-8.83-.8,1.8-1.77,4.07-2.74,6.26-.95,2.2-2.05,4.69-2.55,5.84-.9,2-1.92,9.08-2,9.66,.55,1.67,1.37,3.17,2.45,4.47,.15,.07,.62,.27,1.07,.15h0v-.02Z" fill="#dc2626"/><path d="M47.68,58.71h0c-.3-.25-.67-.7-1.25-1.35-1.2-1.4-3.19-3.74-4.79-3.99-.25-.05-.4-.2-.37-.37,0,0,.27-1.07,.62-2.79-.67-.22-1.37-.9-2.17-2.05-1.15-1.67-2.72-2.22-3.39-2.4-1,1.15-2.15,1.97-3.42,2.4,.52,.72,1.07,1.42,1.6,2.07,4.84,5.99,9.46,9.61,12.33,9.68,.8,0,1.47-.22,2.05-.77-.25,0-.5-.05-.75-.12-.15-.05-.27-.12-.45-.27v-.02Z" fill="#dc2626"/><path d="M29.99,45.26c-.55,.97-1.15,1.95-1.82,2.84-.52,.72-1.1,1.45-1.7,2.2,.35,.22,1.27,.7,3.49,1.32,2.22-.6,3.17-1.1,3.49-1.32-.6-.75-1.15-1.47-1.7-2.2-.67-.9-1.27-1.87-1.82-2.84h.05Z" fill="#dc2626"/><path d="M28.05,3.72c-.4,.07-.77,.2-1.07,.4l-1.17,.77c-.2,.15-.45,.27-.72,.45l1.2,2.07c.55,.97-.12,2.02-1.55,2.45l-4.19,1.2c.97,.57,2.35,.9,2.74,1,.4-.1,.77-.17,1.15-.22,1.8-.32,3.67-.47,5.51-.47s3.72,.15,5.51,.47c.37,.07,.75,.15,1.15,.22,.42-.1,1.77-.4,2.74-1l-4.19-1.2c-1.42-.4-2.1-1.47-1.55-2.45l1.2-2.07c-.27-.15-.5-.3-.72-.45l-1.17-.77c-.3-.2-.7-.35-1.12-.4,.17-.97,.95-2.27,3.52-3.42,.1-.05,.12-.15,.07-.22-.07-.07-.22-.1-.32-.05-2.72,1.2-3.54,2.59-3.72,3.64h-2.92c-.17-1.05-1.02-2.45-3.72-3.64-.1-.05-.25-.02-.32,.05-.07,.07-.05,.17,.07,.22,2.59,1.15,3.37,2.47,3.54,3.42h.05Z" fill="#dc2626"/></svg>