<?xml version="1.0" encoding="UTF-8"?><svg id="a" xmlns="http://www.w3.org/2000/svg" viewBox="0 0 71.24 71.27"><path d="M10.77,5.96h8.84l-.45-5.96h-7.95l-.45,5.96h0Zm-.45,5.87h9.73l-.27-3.41H10.56l-.27,3.41h.03ZM30.32,5.96h8.84l-.45-5.96h-7.95l-.45,5.96h0Zm-.45,5.87h9.73l-.27-3.41h-9.23l-.27,3.41h.03ZM8.37,51.8h24.74v-2.91H8.37v2.91h0Zm0,19.4h24.74v-16.91H8.37v16.91h0ZM28.69,27.86l6.26-3.89c.18-.12,.42-.21,.65-.21,.62,0,1.16,.56,1.16,1.25v9.29l4.36-2.73-1.31-17.24h-10.12l-1.01,13.53h0Zm-12.61,8.57v2.14l7.27-4.51s.09-.06,.12-.06l4.45-2.76,.12-.06,6.44-4.01v11.42l8.4-5.22s.09-.06,.12-.06l9.88-6.14v11.42l18.37-11.42v44.09H35.46v-23.53c0-.68-.5-1.25-1.16-1.25H7.24c-.62,0-1.16,.56-1.16,1.25v23.53H0V37.12l8.28-5.16,.12-.06,7.68-4.78v9.32Zm27.18,12.28h-1.16v11.99h7.74v-11.99s-6.59,0-6.59,0Zm14.69,0h-1.16v11.99h7.74v-11.99s-6.59,0-6.59,0ZM16.59,23.97c.18-.12,.42-.21,.65-.21,.62,0,1.16,.56,1.16,1.25v9.29l3.23-2.02-1.34-17.92H10.18l-1.07,14.3,7.51-4.66-.03-.03Z" fill="#2563eb" fill-rule="evenodd"/></svg>