

<svg version="1.1"  xmlns="http://www.w3.org/2000/svg"  x="0px" y="0px"
	 viewBox="0 0 71.7 91.5" style="enable-background:new 0 0 100 100" >
<style type="text/css">
    svg { background-color: transparent; }
  
	.st0{fill:#2563EB;}
</style>
<path class="st0" d="M67.9,63.1l-2.8,0.3v4.1l-4.8,0.6v-4.2c-1.5,0-2.3,0.5-2.3,1.6v2.8l-5.3,0.7v-4.6L47,65v4.8l-4.2,0.5
	C42.7,46.9,42.6,23.5,42.5,0c0.2,0,0.4,0.1,0.6,0.1C51.5,3.5,60,6.8,68.4,10.2c2.5,1,2.5,1,2.5,3.3c0.1,11.9,0.2,23.9,0.4,35.9
	c0,5.5,0.1,11,0.1,16.5c0,0.6-0.3,0.8-0.9,0.9c-0.8,0.1-1.6,0.2-2.6,0.3L67.9,63.1L67.9,63.1z M54.9,11.2V9.4c0-0.2-0.1-0.4-0.4-0.5
	c-0.6-0.3-1.3-0.5-2.1-0.7V10c0,0.2,0.2,0.4,0.4,0.4C53.4,10.7,54.1,10.9,54.9,11.2L54.9,11.2L54.9,11.2z M48.5,8.9
	c0.2-2.1-0.1-2.5-2.3-2.7v1.6c0,0.2,0.1,0.4,0.3,0.5C47,8.4,47.7,8.6,48.5,8.9L48.5,8.9L48.5,8.9z M54.9,15.9v-1.8
	c0,0-0.1-0.3-0.3-0.4c-0.6-0.2-1.3-0.4-2.1-0.6v1.8c0,0,0.1,0.3,0.3,0.4C53.4,15.5,54.1,15.7,54.9,15.9L54.9,15.9L54.9,15.9z
	 M48.5,13.9v-1.8c0,0-0.1-0.3-0.3-0.4c-0.7-0.2-1.4-0.4-2.1-0.7v1.7c0,0.2,0.1,0.3,0.3,0.4C47.1,13.6,47.7,13.7,48.5,13.9L48.5,13.9
	L48.5,13.9z M54.9,20.4v-1.7c0-0.1-0.1-0.3-0.2-0.4c-0.7-0.2-1.4-0.4-2.2-0.6v1.7c0,0.2,0.2,0.3,0.4,0.4
	C53.5,20,54.1,20.2,54.9,20.4z M46.1,16v1.8c0,0,0.1,0.2,0.2,0.3c0.7,0.2,1.4,0.4,2.2,0.6V17c0-0.2-0.1-0.4-0.4-0.4
	C47.5,16.3,46.9,16.2,46.1,16L46.1,16L46.1,16z M54.8,25.3c0.2-1.3-0.4-2.1-1.8-2.4l-0.5-0.1c-0.5,1.6-0.3,1.9,1.6,2.3
	C54.1,25.1,54.8,25.3,54.8,25.3z M48.5,23.8c0.3-1.9,0.2-2-1.9-2.4l-0.4-0.1V23c0,0.1,0.2,0.3,0.4,0.4
	C47.1,23.5,47.7,23.6,48.5,23.8L48.5,23.8L48.5,23.8z M54.9,29.9v-1.6c0-0.2-0.2-0.3-0.4-0.4c-0.6-0.1-1.3-0.3-2.1-0.4v1.6
	c0.1,0.2,0.2,0.3,0.4,0.4C53.5,29.6,54.1,29.7,54.9,29.9L54.9,29.9L54.9,29.9z M54.9,39.4v-1.8l-2.4-0.3c0,0.6,0,1.1,0,1.6
	c0.1,0.2,0.3,0.4,0.6,0.4C53.6,39.4,54.2,39.4,54.9,39.4L54.9,39.4L54.9,39.4z M54.9,42.6l-2.4-0.2v1.9l2.4,0.1
	C54.9,44.5,54.9,42.6,54.9,42.6z M48.5,26.8l-2.4-0.4v1.6c0,0.2,0.1,0.3,0.3,0.4c0.7,0.1,1.4,0.3,2.1,0.4
	C48.5,28.7,48.5,26.8,48.5,26.8z M52.5,32.3v1.9l2.4,0.4v-1.9L52.5,32.3z M48.5,33.6v-1.9l-2.3-0.4c-0.2,1.3,0.5,2,1.9,2.2
	C50.2,33.9,48.3,33.5,48.5,33.6L48.5,33.6z M48.5,38.8v-1.9l-2.3-0.3v1.9L48.5,38.8L48.5,38.8z M48.5,49.5v-1.8h-2.3v1.8H48.5z
	 M46.2,43.9h2.3v-1.8L46.2,42V43.9z M48.5,53.4h-2.3v1.8h2.3L48.5,53.4L48.5,53.4z M46.2,59.8v1.9l2.3-0.2v-1.9L46.2,59.8L46.2,59.8
	z M52.5,61.2l2.4-0.1c0.1-0.4,0.1-0.9,0-1.3c-0.1-0.2-0.4-0.4-0.6-0.5c-0.6,0-1.1,0-1.7,0.1L52.5,61.2L52.5,61.2z M54.9,55.1v-1.8
	h-2.2v1.8L54.9,55.1L54.9,55.1z M60.5,26.6c0.6-1.5-0.1-2.3-2-2.3v1.8L60.5,26.6L60.5,26.6z M54.9,49.7v-1.8h-1.8c0,0-0.2,0-0.3,0
	C52.4,49.6,52.7,49.8,54.9,49.7C54.8,49.7,54.8,49.7,54.9,49.7z M60.5,13.1c0.2-1.9,0-2.2-1.9-2.6C58.2,12.4,58.4,12.6,60.5,13.1
	L60.5,13.1L60.5,13.1z M60.5,17.6c0.2-1.9,0-2.2-1.9-2.4C58.3,17,58.4,17.2,60.5,17.6L60.5,17.6L60.5,17.6z M58.5,19.5
	c-0.2,1.8,0.1,2.2,2,2.3C60.7,19.9,60.6,19.8,58.5,19.5z M58.5,28.7c-0.3,1.8-0.1,2,1.9,2.2C60.8,29.1,60.6,28.9,58.5,28.7
	L58.5,28.7L58.5,28.7z M60.5,35.4c0.3-1.9,0-2.2-1.9-2.1v1.8L60.5,35.4L60.5,35.4z M60.6,58.8l-2.1,0.1v1.8h2.1
	C60.6,60.8,60.6,58.8,60.6,58.8z M60.6,40.2v-1.5c0-0.2-0.2-0.3-0.4-0.4c-0.6-0.1-1.1-0.1-1.6-0.2v1.9
	C58.5,39.9,60.6,40.2,60.6,40.2z M58.5,44.7l2.1,0.1v-1.5c-0.1-0.2-0.2-0.3-0.4-0.4c-0.6-0.1-1.1-0.1-1.6-0.1L58.5,44.7L58.5,44.7z
	 M58.5,49.8h2V48h-2V49.8z M58.5,53.2V55h2v-1.8L58.5,53.2L58.5,53.2z M65.8,19.3c0.1-2.2,0.4-1.9-1.7-2.4
	C63.7,18.6,64,19,65.8,19.3L65.8,19.3L65.8,19.3z M65.8,14.9c0.2-1.9,0-2.1-1.7-2.5C63.9,13.7,64.4,14.6,65.8,14.9L65.8,14.9
	L65.8,14.9z M65.8,23.4c0.2-2,0-2.2-1.8-2.3C63.8,23,63.9,23.2,65.8,23.4C65.8,23.4,65.8,23.4,65.8,23.4z M65.8,32v-1.8l-1.7-0.4
	C63.9,32.1,63.7,31.7,65.8,32L65.8,32z M63.9,25.6v0.9c0,1.1,0.4,1.3,1.8,1.1C66.1,26.1,65.9,25.8,63.9,25.6L63.9,25.6z M64,58.7
	v1.9l1.7-0.1v-1.8L64,58.7L64,58.7z M65.7,45.3v-1.9l-1.8-0.1v1.9L65.7,45.3L65.7,45.3z M64,38.8c-0.1,2.3-0.4,1.8,1.7,2.1v-1.9
	C65.7,38.9,64,38.8,64,38.8z M64,48.2v1.9h1.8v-1.8C65.8,48.3,64,48.2,64,48.2z M65.7,55v-1.8H64V55H65.7z M65.7,35.9
	c0.1-1.7-0.1-1.9-1.8-1.7v1.7H65.7z"/>
<path class="st0" d="M41.4,70.4l-5.8-1.3V65c0-0.5-0.1-0.7-0.8-0.8c-1.8-0.2-3.6-0.5-5.4-0.8v4.3L27,67.3V63l-2.6-0.4v4.1
	c-1.5-0.3-2.8-0.6-4.2-0.9c-0.2,0-0.3-0.2-0.4-0.4c-0.1-0.3-0.1-0.5-0.1-0.8c0-18.2,0.1-36.3,0.1-54.4c0-0.4,0.2-0.7,0.7-0.9
	c6.5-2.9,13-5.8,19.5-8.8c0.3-0.2,0.6-0.3,1-0.4C41.2,23.5,41.3,46.9,41.4,70.4L41.4,70.4z M27,9.6c-2.4,0.7-2.7,1.1-2.2,3
	c0.7-0.3,1.3-0.6,1.9-0.9c0.1-0.1,0.3-0.2,0.3-0.4C27,10.8,27,10.2,27,9.6L27,9.6z M24.7,34c0.7-0.1,1.4-0.2,2.1-0.4
	c0.1-0.1,0.2-0.1,0.2-0.3v-1.6L24.6,32L24.7,34L24.7,34z M34.2,8.5c2.1-0.6,2.5-1.2,1.9-2.8C34.1,6.2,34,6.5,34.2,8.5z M27,59.9
	v-1.6c0-0.1-0.2-0.3-0.4-0.4c-0.6-0.1-1.3-0.2-1.9-0.2v1.9L27,59.9L27,59.9z M24.7,37.1V39c2.3,0,2.5-0.1,2.3-1.9
	c0-0.1-0.1-0.2-0.1-0.2L24.7,37.1L24.7,37.1z M24.7,52.1V54l2.2,0.1c0.4-1.8,0.3-1.9-1.8-2C25.1,52.1,24.7,52.1,24.7,52.1z
	 M24.7,43.7c0.7,0,1.2,0,1.8-0.1c0.2,0,0.5-0.2,0.5-0.3c0.1-0.5,0-1.1,0-1.6l-2.3,0.1L24.7,43.7L24.7,43.7z M24.7,48.8h2.3
	c0.4-1.8,0.2-2-2-1.8c-0.1,0-0.2,0-0.2,0.1L24.7,48.8L24.7,48.8z M26.9,22.5c-0.7,0.2-1.3,0.3-1.8,0.5c-0.2,0.1-0.3,0.2-0.4,0.4v1.7
	c0.7-0.2,1.3-0.3,1.8-0.5c0.2-0.1,0.3-0.2,0.4-0.4C26.9,23.7,26.9,23.1,26.9,22.5C26.9,22.5,26.9,22.5,26.9,22.5z M34.3,17.6
	c1.9-0.2,2.5-0.9,1.9-2.5C34.1,15.6,33.9,15.9,34.3,17.6C34.2,17.6,34.3,17.6,34.3,17.6z M29.5,10.6c0.7-0.3,1.3-0.5,1.8-0.8
	c0.1-0.1,0.2-0.2,0.2-0.3V7.6c-0.7,0.3-1.3,0.5-1.8,0.8c-0.2,0.1-0.3,0.3-0.3,0.4C29.4,9.3,29.4,9.9,29.5,10.6
	C29.4,10.6,29.5,10.6,29.5,10.6z M26.9,18.4c-2.1,0.3-2.6,0.9-2.2,2.4C27.3,20,27.2,20.4,26.9,18.4z M36.2,10.4
	c-2.1,0.5-2.3,0.8-2,2.5C36.3,12.5,36.5,12.2,36.2,10.4z M36.3,24.9c-0.7,0.1-1.2,0.2-1.7,0.4c-0.2,0.1-0.3,0.2-0.4,0.4v1.7
	c0.7-0.1,1.2-0.2,1.7-0.4c0.2-0.1,0.3-0.2,0.4-0.4C36.3,26,36.3,25.5,36.3,24.9L36.3,24.9z M24.7,16.4c2.3-0.6,2.6-1,2.2-2.5
	C24.6,14.5,24.5,14.6,24.7,16.4z M34.3,58.9c-0.4,1.8,0,2.2,2,2.1v-1.5c-0.1-0.2-0.2-0.3-0.4-0.4C35.4,59,34.8,58.9,34.3,58.9z
	 M34.2,22.5c0.8-0.3,1.7-0.3,2-0.7c0.3-0.4,0.1-1,0.1-1.6c-0.4,0-0.9,0-1.4,0c-0.5,0-0.7,0.4-0.7,0.8C34.2,21.4,34.2,21.9,34.2,22.5
	L34.2,22.5z M34.2,52.7v1.9l2,0.1C36.4,52.3,36.6,52.7,34.2,52.7L34.2,52.7z M24.7,29.4c1.6-0.3,2.3-1.1,2.1-2.3
	c-2.1,0.3-2.2,0.3-2.2,2C24.7,29.2,24.7,29.3,24.7,29.4L24.7,29.4z M34.2,37.9c0.6-0.1,1.2-0.1,1.7-0.2c0.2-0.1,0.3-0.1,0.4-0.3
	v-1.6L34.2,36L34.2,37.9L34.2,37.9z M36.3,47c-2.1-0.3-2.5,0.1-2,1.8h2V47z M29.5,38.4c1.4,0.1,2.2-0.4,2.1-1.5
	c0-0.3,0.1-0.7-0.5-0.6c-0.6,0.1-1.4-0.1-1.6,0.6C29.5,37.5,29.5,38,29.5,38.4L29.5,38.4z M31.5,21.2c-0.6,0.2-1.1,0.3-1.6,0.5
	c-0.1,0-0.4,0.2-0.4,0.3v1.7c1.4-0.3,2.1-1,2.1-2C31.6,21.6,31.5,21.4,31.5,21.2L31.5,21.2z M29.5,58.3V60c0,0,0.2,0.2,0.4,0.3
	c0.5,0.1,1.1,0.1,1.6,0.1C31.8,58.6,31.9,58.3,29.5,58.3L29.5,58.3z M29.5,28.4c2.2-0.3,2.5-0.7,2-2.3c-1.4,0.2-2,0.8-2,1.9
	C29.5,29.5,29.5,28.2,29.5,28.4L29.5,28.4L29.5,28.4z M29.5,43.3c1.4,0.1,2.1-0.4,2.1-1.5c0-0.1,0-0.3-0.1-0.5l-2,0.1
	c0,0.2-0.1,0.4-0.1,0.5V43.3z M29.6,19.2c2.1-0.4,2.3-0.7,1.9-2.4C29.5,17.2,29.2,17.6,29.6,19.2L29.6,19.2L29.6,19.2z M31.5,48.8
	c0.3-1.9-0.1-2.2-2-1.7v1.7H31.5z M31.5,54.4v-1.8h-2v1.8L31.5,54.4L31.5,54.4z M29.5,14.6c1.9-0.3,2.6-1.1,1.8-2.4
	C29.3,12.9,29.2,13,29.5,14.6z M34.3,32.4c0.5-0.1,1-0.1,1.4-0.2c0.2-0.1,0.4-0.2,0.4-0.4v-1.6l-1.8,0.4
	C34.3,30.5,34.3,32.4,34.3,32.4z M29.5,31.5c0,0.4,0,0.8,0,1.2c0.1,0.2,0.3,0.5,0.5,0.5c0.4,0,0.8-0.1,1.1-0.2
	c0.2-0.1,0.3-0.2,0.4-0.4v-1.5L29.5,31.5L29.5,31.5z M36.3,43v-1.7h-1.9V43H36.3z M38.1,64.9V66c0,1,0.1,1,1.3,1v-1.9
	C39.4,65.1,38.1,64.9,38.1,64.9z"/>
<path class="st0" d="M11,70H9.9c0.1-0.9,0.1-1.7,0.2-2.5c0.1-0.6,0.1-1.3,0.1-2c-0.1-0.2-0.2-0.4-0.5-0.5c-2.7-0.8-3.6-3-1.8-4.8
	c0.6-0.6,0.8-1.4,0.6-2.1c-0.1-0.6-0.1-1.3,0.1-1.9c0.1-0.6,0.6-1.1,1.4-1.1c0.9-0.1,1.7,0.1,2.2,0.7c0.4,0.4,0.6,0.9,0.6,1.5
	c0,1,0.3,1.9,0.9,2.8c1,1.4,0.9,3.1-0.3,4.4c-0.4,0.4-0.9,0.7-1.6,0.9C10.9,65.4,11,65.6,11,66C11,67.3,11,68.7,11,70L11,70z
	 M10.9,57.1h-0.3v8h0.3V57.1z"/>
<path class="st0" d="M3.3,67.4c-0.7-0.4-1.4-0.8-2-1.3c-0.6-0.6-0.6-1.4,0.1-1.9l0,0C1.9,63.9,2,63.4,1.8,63
	c-0.2-0.6-0.2-1.1-0.1-1.7C2.1,60.6,3,60.2,4,60.3c0.9,0.4,1.5,1.1,1.4,1.9c-0.3,0.6-0.1,1.4,0.5,1.8c1,0.9,0.9,2.1-0.1,2.9
	c-0.1,0.1-0.1,0.1-0.2,0.1c-0.5,0.3-1,0.5-1.6,0.7C4,68.1,4,68.5,4,69c0.1,0.5,0.1,0.9,0.2,1.4H3.3L3.3,67.4
	c0.6,0.1,0.6-0.1,0.6-0.5v-4.2c0-0.1,0-0.3-0.1-0.4H3.7L3.3,67.4L3.3,67.4z"/>
<path class="st0" d="M17.4,65.4c0.1,0.7,0.1,1.3,0.2,2s-0.1,0.8-0.9,0.7c0.1-0.6,0.2-1.2,0.2-1.8c0.1-0.5-0.2-0.9-0.7-1.1
	c-0.8-0.3-1.1-1.1-0.8-1.7c0.1-0.1,0.2-0.3,0.3-0.4c0.4-0.4,0.5-0.8,0.4-1.2c-0.1-0.4,0-0.8,0.1-1.2c0.1-0.2,0.4-0.4,0.7-0.5
	c0.4,0,0.7,0.1,1,0.3c0.2,0.5,0.4,1,0.5,1.5c0,0.4,0.1,0.8,0.2,1.1C19.2,64.3,19,64.7,17.4,65.4L17.4,65.4z M17.3,61.2h-0.1v4h0.1
	V61.2z"/>
</svg>
