<svg style="background-color:transparent;"  xmlns="http://www.w3.org/2000/svg" viewBox="0 0 24 24.08"><path d="M14,.13c-.13,.03-.32,.08-.4,.11-.11,.04-.28,.06-.53,.06-.98,0-1.94,.51-2.44,1.32-.49,.79-.54,1.76-.13,2.54,.38,.72,1.1,1.25,2,1.5,.43,.11,1.24,.12,1.64,.02,.3-.08,.78-.29,.94-.42l.11-.09-.17-.09c-.21-.11-.53-.19-.76-.19-.89-.01-1.64-.54-1.84-1.3-.17-.61,.15-1.28,.74-1.55,.2-.09,.28-.11,.59-.11s.39,.02,.59,.11c.48,.22,.8,.64,.98,1.27,.05,.19,.13,.41,.17,.48,.1,.18,.47,.6,.51,.58,.02-.01,.08-.16,.13-.33,.11-.34,.15-.75,.08-1.15l-.03-.23,1.19,.02c1.54,.03,2.22,.13,3.33,.48,.85,.27,2.14,.94,2.3,1.19,.03,.05,.02,.14-.07,.38-.38,1.05-.98,1.78-1.92,2.35-1.57,.95-1.85,1.15-2.32,1.67-.41,.45-.8,1.03-1.16,1.73-.73,1.43-.93,1.79-1.19,2.17-.15,.22-.27,.39-.28,.38-.03-.04,.23-1.59,.33-1.94,.02-.09,.02-.09-.13,.04-.48,.42-.97,1.17-1.09,1.67-.08,.32-.06,.87,.04,1.17,.06,.18,.08,.2,.3,.29,.72,.32,1.18,.93,1.18,1.58,0,.35,.06,.53,.21,.64,.23,.18,.54,.1,.68-.19,.07-.13,.08-.24,.08-.61,0-.68-.13-1.06-.56-1.67-.12-.16-.22-.31-.23-.34-.01-.03,.11-.25,.27-.48,.16-.24,.58-.98,.93-1.66,.7-1.35,.97-1.76,1.47-2.26,.4-.4,.75-.65,1.57-1.12,.73-.42,.99-.6,1.38-.96,.76-.71,1.35-1.8,1.49-2.75,.05-.31,.05-.32-.05-.48-.25-.43-1.66-1.19-3-1.61-1.08-.34-1.96-.48-3.21-.51l-.9-.02-.05-.14c-.19-.56-.72-1.13-1.28-1.38-.49-.22-.98-.27-1.48-.17Z" fill="#dc2626"/><path d="M18.66,3.67c-.21,.14-.31,.4-.23,.63,.09,.28,.34,.45,.63,.42,.3-.03,.57-.29,.57-.56,0-.17-.14-.4-.31-.5-.17-.11-.48-.1-.67,.02Z" fill="#dc2626"/><path d="M15.56,5.91c-.42,.29-1,.53-1.54,.61-.6,.09-1.16,.03-1.87-.19l-.39-.12-.51,.27-.51,.27-.25-.05c-.14-.03-.49-.08-.78-.11-2.26-.25-4.46,.34-6.24,1.69-1.4,1.05-2.55,2.72-3.06,4.44C.12,13.64,.03,14.2,0,15.18c-.05,1.64,.25,2.98,.99,4.36,1.37,2.57,4.09,4.04,8.26,4.47,.79,.08,3.02,.1,3.88,.02,1.32-.11,2.41-.29,3.65-.59,3.59-.86,5.97-2.48,6.57-4.46,.13-.41,.15-1.01,.06-1.39-.19-.82-.82-1.57-1.56-1.85-.28-.11-.75-.19-1.1-.19-.32,0-.44,.07-.44,.28,0,.18,.13,.28,.44,.33,.79,.13,1.49,.78,1.66,1.55,.07,.32,.03,.81-.1,1.13-.76,1.95-4.09,3.39-8.88,3.85-.67,.06-3.22,.06-3.82,0-2.15-.23-3.82-.8-4.71-1.59l-.21-.19,5.49-.02,5.49-.02-.31-.29c-.72-.68-1.98-1.03-3.71-1.03h-.46l.18-.2c.36-.4,.63-.88,1.04-1.78,.37-.82,.57-1.15,.95-1.5,.27-.26,.53-.38,.8-.38,.25,0,.4,.07,.59,.27,.17,.18,.22,.31,.27,.71,.03,.26,.06,.32,.16,.42,.21,.19,.51,.13,.69-.14,.06-.1,.08-.19,.08-.43,0-.58-.16-.93-.58-1.34-.82-.77-2.26-.83-3.37-.12-.14,.09-.25,.17-.25,.18,0,.02,.13,.11,.28,.23,.16,.11,.3,.22,.31,.24s-.07,.15-.18,.29c-.25,.31-.42,.64-.7,1.29-.11,.27-.28,.63-.37,.78-.35,.62-.88,1.16-1.34,1.37l-.25,.11h-.86s-.86-.02-.86-.02l.39-.24c.75-.47,1.31-1.07,1.67-1.78,.84-1.65,.51-3.42-.88-4.68-.65-.59-1.58-1.01-2.68-1.22-.21-.04-.77-.09-1.24-.12l-.85-.05,.17-.07c.09-.04,.34-.12,.55-.17,.36-.1,.44-.1,1.15-.1h.77l.95,.24c1.12,.27,1.56,.34,2.26,.31,1.13-.05,2.21-.39,3.19-1.03,.37-.24,1.16-.97,1.45-1.34,.44-.56,.77-1.22,.97-1.93,.08-.29,.11-.48,.12-.98,.01-.35,0-.62-.02-.62s-.13,.07-.25,.16Z" fill="#dc2626"/></svg>