<?xml version="1.0" encoding="UTF-8"?><svg id="a" xmlns="http://www.w3.org/2000/svg" viewBox="0 0 59.6 59.62"><path d="M32.8,36.93l-.97-2.61c-.05-.12-.02-.27,.05-.4,.05-.07,3.7-6.31,.1-11h0c-.1-.07-.15-.2-.15-.32,0-.1,0-.2,.05-.27,.32-.57,1.04-2.23,.47-3.23-.37-.62-1.22-.94-2.56-.94s-2.19,.32-2.56,.94c-.57,.99,.15,2.66,.47,3.23,.05,.07,.07,.17,.05,.27,0,.12-.05,.25-.15,.32h0c-3.63,4.69,.05,10.93,.1,11,.07,.12,.1,.27,.05,.4l-.97,2.61c-1.02,2.76-1.39,5.71-1.09,8.64,.99,9.11,2.53,12.47,3.43,13.71,.27,.37,.79,.45,1.14,.17,.07-.05,.12-.1,.17-.17,.89-1.22,2.43-4.59,3.43-13.71,.3-2.93-.07-5.89-1.09-8.62l.02-.02Z" fill="#dc2626"/><path d="M25.9,36.61l.89-2.38c-.62-1.14-3.43-6.95-.1-11.6-1.71-1.76-11.45-11.27-23.66-12.12-.84-.07-1.69,.22-2.28,.82-1.24,1.29-.92,3.48,.92,6.28,2.36,3.48,3.3,7.72,2.68,11.87-.12,.74-.3,1.49-.52,2.21-.55,1.64,.25,3.45,1.81,4.17,2.63,1.22,6.51,2.58,10.01,2.33,.25,0,.47,.17,.5,.42,0,.2-.1,.37-.27,.47l-8.54,3.7c-2.76,1.19-4.37,4.1-3.9,7.08,.55,3.43,1.39,7.23,4.54,8.72,3.58,1.69,9.66,.05,18.08-4.84-.6-2.66-1.02-5.36-1.29-8.07-.32-3.05,.07-6.16,1.14-9.06Zm-14.43-10.95c-1.32,0-2.41-1.09-2.41-2.41s1.07-2.41,2.41-2.41,2.41,1.09,2.41,2.41h0c0,1.34-1.07,2.41-2.41,2.41h0Zm0,27.81c-2.19,0-3.95-1.76-3.95-3.95s1.76-3.95,3.92-3.95,3.95,1.76,3.95,3.95h0c0,2.19-1.76,3.95-3.92,3.95h0Zm7.33-8.22c-1.24,0-2.26-1.02-2.26-2.28s1.02-2.28,2.26-2.28,2.26,1.02,2.26,2.28-1.02,2.28-2.26,2.28Zm0-13.58c-1.34,0-2.41-1.09-2.41-2.41s1.07-2.41,2.41-2.41,2.41,1.09,2.41,2.41-1.07,2.41-2.41,2.41Z" fill="#dc2626"/><path d="M48.1,52.55c1.66,0,3-1.34,3-3s-1.34-3-3-3-3,1.34-3,3h0c0,1.66,1.34,3,3,3Z" fill="#dc2626"/><path d="M11.47,21.76c-.82,0-1.47,.67-1.47,1.49s.67,1.49,1.47,1.49,1.47-.67,1.47-1.49-.67-1.49-1.47-1.49Z" fill="#dc2626"/><path d="M40.77,41.63c-.74,0-1.34,.6-1.34,1.34s.6,1.34,1.34,1.34,1.34-.6,1.34-1.34h0c0-.74-.6-1.34-1.34-1.34Z" fill="#dc2626"/><path d="M18.79,27.77c-.82,0-1.47,.67-1.47,1.49s.67,1.49,1.47,1.49,1.47-.67,1.47-1.49h0c0-.82-.67-1.49-1.47-1.49Z" fill="#dc2626"/><path d="M11.47,46.52c-1.66,0-3,1.34-3,3.03s1.34,3,3,3,3-1.34,3-3.03h0c0-1.66-1.34-3-3-3Z" fill="#dc2626"/><path d="M18.79,41.63c-.74,0-1.34,.6-1.34,1.34s.6,1.34,1.34,1.34,1.34-.6,1.34-1.34h0c0-.74-.6-1.34-1.34-1.34Z" fill="#dc2626"/><path d="M40.77,27.77c-.82,0-1.47,.67-1.47,1.49s.67,1.49,1.47,1.49,1.47-.67,1.47-1.49h0c0-.82-.67-1.49-1.47-1.49Z" fill="#dc2626"/><path d="M58.82,11.31c-.62-.6-1.44-.89-2.28-.82-12.22,.82-21.95,10.33-23.66,12.12,3.33,4.67,.52,10.45-.1,11.6l.89,2.38c1.07,2.88,1.47,5.98,1.14,9.06-.27,2.68-.7,5.34-1.24,7.95,8.44,4.92,14.55,6.58,18.1,4.89,3.1-1.47,3.95-5.24,4.49-8.64,.47-2.98-1.14-5.89-3.9-7.08l-8.54-3.7c-.22-.1-.35-.37-.25-.62,.07-.17,.27-.3,.47-.27,3.5,.25,7.38-1.12,10.01-2.33,1.56-.72,2.36-2.51,1.81-4.17-.22-.72-.4-1.47-.52-2.21-.65-4.15,.32-8.39,2.68-11.87,1.86-2.81,2.16-4.99,.92-6.28h-.02Zm-10.73,34.27c2.19,0,3.95,1.76,3.95,3.95s-1.76,3.95-3.92,3.95-3.95-1.76-3.95-3.95h0c0-2.19,1.76-3.95,3.92-3.95Zm-7.33-.32c-1.24,0-2.26-1.02-2.26-2.28s1.02-2.28,2.26-2.28,2.26,1.02,2.26,2.28-1.02,2.28-2.26,2.28h0Zm0-13.58c-1.34,0-2.41-1.09-2.41-2.41s1.07-2.41,2.41-2.41,2.41,1.09,2.41,2.41-1.07,2.41-2.41,2.41h0Zm7.33-6.01c-1.32,0-2.41-1.07-2.41-2.41s1.07-2.41,2.41-2.41,2.41,1.07,2.41,2.41h0c0,1.34-1.07,2.41-2.41,2.41Z" fill="#dc2626"/><path d="M48.1,21.76c-.82,0-1.47,.67-1.47,1.49s.67,1.49,1.47,1.49,1.47-.67,1.47-1.49-.67-1.49-1.47-1.49Z" fill="#dc2626"/><path d="M53.56,1.03c.25,.02,.5-.17,.52-.42s-.15-.5-.42-.52h0c-14.05-1.37-20.93,14.45-22.08,17.36,.3,.1,.57,.22,.84,.4,.99-2.58,7.6-18.15,21.13-16.84v.02Z" fill="#dc2626"/><path d="M6.01,1.03C19.52-.29,26.15,15.28,27.14,17.86c.25-.17,.55-.32,.84-.4C26.84,14.54,19.96-1.26,5.91,.11c-.25,0-.45,.25-.42,.52s.25,.45,.5,.42h0l.02-.02Z" fill="#dc2626"/></svg>