<svg style="background-color:transparent;"  xmlns="http://www.w3.org/2000/svg" viewBox="0 0 59 59"><path d="M52.54,25.81c1.39-.91,2.48-.47,2.48-.47,3.89,1.29,3.01,2.96,3.01,2.96-.69-1.07-2.05-1.36-2.05-1.36,.38,1.58-.32,1.85-.32,1.85,.09-.89-.18-1.02-.62-1.43s-1.15,1.56-.38,2.31c.77,.75,.54,1.71,.54,1.71,0,0-.51,.04-.94-.85s-1.47-1.07-1.47-1.07c-2.15-.42-3.94,3.83-3.94,3.83,.24-1.36-.07-5.29-.07-5.29,1.47-.53,2.37-1.27,3.77-2.18Zm1.88-10.13c-.06,1.09,1.07,1.07,1.06,1.09-.02,.02,.53-.35,.53-.35l-.04,.44,.24,.03,.38-.45,.07,.42,.32,.03,.45-.43,.02,.47h.24l.27-.43,.15,.38c.19,0,.22,.37,.22,.37-.07,.77-1.12,.94-3.73,1.2-2.61,.27-4.12,2.84-4.12,2.84-.16,1.09-.87,2.17-.87,2.17-.15,1.17-.96,2.69-.96,2.69,0,0-.63,1.19-.46,3.21s-.1,7.67-.17,8.58c-.07,.9,.17,1.15,.17,1.15l1.19,2.14c1.85,2.66,1.4,4.53,1.4,4.53,2.11,2.99,.99,3.63,.99,3.63-.1-.69-1.13-2.06-1.13-2.06,.35,2.21-.38,3.84-.71,3.89-.32,.05-.09-.94-.09-.94,.25-1.89-.43-2.36-.43-2.36,0,0-.67,1.3-.92,2.84-.25,1.54-.68,1.74-.68,1.74,0,0-.19-.82,.36-3.28,.55-2.46,.01-2.59,.01-2.59-1.03-.2-1.02,2.99-1.02,2.99-.53-.62-.22-2.37-.22-2.37,.3-2.81-.97-3.91-2.88-4.95-1.91-1.04-1.81-3.48-1.81-3.48l-1.91,2.88,1.74,1c1.49,1.27,.84,3.64-.1,7.02-.94,3.38,.27,3.48,.27,3.48,1.66-1.14,1.91,.27,1.91,.27-.5,.07-.82,.5-.82,.5,3.5,1.04,2.33,2.44,2.33,2.44-.57-.7-2.04-.5-2.04-.5,2.31,.57,2.63,1.4,2.63,1.4-.47,.67-3.16-.1-3.16-.1l2.43,1.17s-2.31,.87-4.3,.53c-1.99-.33-3.4-1.67-3.68-4.15-.27-2.47-.6-2.81-.6-2.81-7.01,10.66-15.65,5.35-15.65,5.35-3.06,1.57-6.04-.77-6.04-.77l1.66-.63c-2.06,.03-3.88-1.6-3.88-1.6,0,0-1.61-1.7-3.48-2.37s-2.43-1.54-2.43-1.54l1.29-.5c-.03-.27-.72-.57-.72-.57-2.88-1.04-3.18-2.34-3.18-2.34l1.24-.4s-.52-2.17-2.04-3.41-1.69-2.31-1.69-2.31h1.49c.05-.6-.7-1.17-.7-1.17-2.31-2.88-1.81-4.05-1.81-4.05l.67,.17s-.05-2.14-.87-4.75c-.82-2.61-.87-3.94-.87-3.94,.42,.57,.99,.77,.99,.77-1.12-4.21-.35-5.98-.35-5.98,.55,.74,.75,.3,.75,.3-.57-3.41,.22-4.78,.22-4.78,0,.8,.42,1.5,.42,1.5,0,0,1.07-1.7,1.07-5.48s1.13-3.74,1.13-3.74c-.25,.94,.52,.81,.52,.81,0,0,.95,.25,1.68-3.19,.78-3.65,2.33-3.84,2.33-3.84-.32,.8-.07,2.17-.07,2.17C11.28-.18,13.14,.49,13.14,.49c-.47,.8-.47,2.04-.47,2.04C15.55-1.42,17.94,.42,17.86,.49c-.33,.3-1.04,.84-1.04,.84,2.73-.9,3.6,1.4,3.6,1.4-.67-.23-1.74,.3-1.74,.3,1.49-.13,2.19,.7,2.19,.7-.72,.33-1.66,1.57-1.66,1.57,1.14-.33,1.61,.13,1.61,.2,0,1.5-1.52,3.21-1.52,3.21l.82,.13s-.1,1.44-1.99,2.81c-1.89,1.37-3.45,2.71-3.45,2.71,.67-.5,1.79-.27,1.79-.27-.35,.9-.87,1.17-3.13,3.44s-2.16,7.12-2.16,7.12c.17-.67,.7-.77,.7-.77-.47,.97-.27,4.51-.27,4.51,.22-.67,.65-.6,.65-.6-.89,2.27-.07,5.15-.07,5.15,.07-.57,.5-.97,.5-.97-.45,5.08,3.35,8.66,3.35,8.66-.05-.77,.22-1.14,.22-1.14,.37,3.14,2.78,4.48,2.78,4.48-.82-2.34-.5-6.95-.5-6.95l-.57,.37c-.65-4.35,2.11-8.73,2.11-8.73l-.4,.1c-.2-1.4,2.88-4.25,2.88-4.25l-.55-.13c.05-1.57,3.68-3.24,3.68-3.24l-.7-.1c.1-.57,1.14-.77,1.14-.77,3.01-.8,6.14-2.74,6.14-2.74l-.5-.3s1.17-.13,3.06-1.14c1.89-1,3.38-2.54,3.38-2.54l4.6-5.98-.62-1.87s-.5-1.07,.32-2.07c.53-.65,1.9-.95,3.4,.43,1.3,1.2,2.82,.95,2.82,.95,2.19-.47,3.47,1.49,3.47,1.49,1.6,1.4,3.69,2.42,5.51,3.18,1.83,.75,1.18,2.58,1.17,2.61s-.87,.74-.87,.74c0,0-.21,1.19-.23,1.23-.03,.04-.26-.84-.26-.84l-.24,.15s-.27,.86-.27,.89-.09-.63-.09-.63l-.5,.27-.15,.67-.17-.48-.34,.19s-.18,.62-.18,.66-.15-.37-.15-.37l-1.01,.9Zm-7.36-9.58s-2.97-3.78-4.28-1.87c0,0-.48,.38,.11,1.84s1.06,2.82,1.06,2.82c0,0,.51,2.44,1.8,1.19,.85-.83,.48-1.7,.31-2.11-.07-.16,0-.35,.14-.38,.29-.07,.96-.1,1.09-.49,.2-.57-.22-1-.22-1Zm6.45,3.23c-.65,.27-1.34,1.59-1.34,1.59,.83,.12,1.84-.33,1.84-.33,.12-.67-.5-1.25-.5-1.25Zm-4.32-4.9c-1.24-.42-1.79-.9-2.98-2.31-1.61-1.9-2.29,.28-2.29,.28,.37-.05,1.01,.17,2.43,1.29,1.43,1.12,2.83,.74,2.83,.74Z" fill="#dc2626"/></svg>