<?xml version="1.0" encoding="UTF-8"?><svg id="a" xmlns="http://www.w3.org/2000/svg" viewBox="0 0 59.79 59.79"><path d="M45.31,7.17c-.82-1-1.82-1.2-2.69-.52-1.12,.62-1.84,2.79-1.72,5.13,0,.87-.25,1.64-.65,1.99-.37,.32-.82,.15-1.12-.45C34.65,4.38,29.92,0,24.76,0h0c-1.15,0-2.29,.2-3.41,.6-3.64,1.32-6.95,5.26-9.32,11.09-2.37,5.83-3.66,13.2-3.66,20.8v.35c0,.72-.25,1.35-.6,1.44-4.26,1.3-6.83,4.21-7.57,8.69-.45,2.99-.12,6.25,.85,8.67,1.59,4.11,4.09,6.78,7.7,8.15-4.04-3.11-7.22-7.37-7.15-13.6,.42-7.25,4.78-7.05,6.65-6.98H28.47c-.67-6.28-2.84-11.43-5.75-13.73-.35-.32-.5-1.12-.35-1.84s.52-1.07,.87-.82c3.44,2.77,5.95,8.94,6.68,16.39h29.07c.3,0,.57-.32,.7-.87,.15-.5,.12-1.15-.02-1.62-2.96-9.19-7.22-16.37-12.18-20.55-.62-.55-1-1.82-.97-3.19,.1-2.77-.27-4.61-1.2-5.8h0Zm3.66,15.49c.8,0,1.52,.97,1.82,2.49s.15,3.26-.42,4.43-1.42,1.52-2.17,.9-1.22-2.09-1.22-3.74c0-2.24,.9-4.06,1.97-4.06h0l.02-.02Z" fill="#dc2626"/></svg>