

<svg version="1.1"  xmlns="http://www.w3.org/2000/svg"  x="0px" y="0px"
	 viewBox="0 0 71.7 91.5" style="enable-background:new 0 0 100 100" >
<style type="text/css">
    svg { background-color: transparent; }
  
	.st0{fill-rule:evenodd;clip-rule:evenodd;fill:#2563EB;}
</style>
<path class="st0" d="M9.7,10.9c0,0-0.1,0.3-0.1,0.4v2.1h12.9v-2.7H10.1C10.1,10.7,9.8,10.7,9.7,10.9L9.7,10.9L9.7,10.9z M64,69.3
	H4.2v2.4h63.1v-2.4H64L64,69.3z M40.3,35c-1.1,1.3-2.6,2-4.2,2h-0.7c-1.6,0-3.1-0.8-4.2-2c-0.3-0.3-0.5-0.6-0.7-1
	c-0.2,0.4-0.4,0.7-0.7,1L29.7,35c-1.1,1.2-2.5,2-4.1,2h-0.7c-1.6,0-3.1-0.8-4.2-2c-0.3-0.3-0.5-0.6-0.7-1c-0.2,0.4-0.4,0.7-0.7,1
	L19.2,35c-1.1,1.2-2.5,2-4.1,2h-0.7c-1.6,0-3.1-0.8-4.2-2l0,0c-0.2-0.3-0.4-0.5-0.6-0.8v32.7h7.8V42.9H30v23.9h31.9V34.1
	c-0.2,0.3-0.4,0.6-0.6,0.8l0,0c-1.1,1.3-2.6,2-4.2,2h-0.7c-1.6,0-3.1-0.8-4.2-2c-0.3-0.3-0.5-0.6-0.7-1c-0.2,0.4-0.4,0.7-0.7,1l0,0
	c-1.1,1.3-2.6,2-4.2,2h-0.7c-1.6,0-3.1-0.8-4.2-2c-0.3-0.3-0.5-0.6-0.7-1C40.8,34.3,40.6,34.7,40.3,35L40.3,35L40.3,35z M40.4,57.6
	V42.9h12.7v14.7H40.4z M40.4,9.3L41,6.7h-6.7L35,9.3H40.4z M46.9,17.2H24.5V0h22.4V17.2L46.9,17.2L46.9,17.2z M43.3,5.8l-1.2,5
	c-0.1,0.5-0.5,0.9-1,0.9h-7c-0.5,0-0.9-0.4-1-1l-1.7-7.3h-2.4c-0.6,0-1-0.5-1-1.2c0-0.7,0.4-1.2,1-1.2L32.1,1c0.5-0.1,1,0.3,1.1,0.9
	l0.5,2.3h8.6c0.6,0,1,0.5,1,1.2C43.4,5.5,43.4,5.7,43.3,5.8L43.3,5.8L43.3,5.8z M40.6,14c0-0.8-0.5-1.4-1.2-1.4s-1.2,0.6-1.2,1.4
	s0.5,1.4,1.2,1.4S40.6,14.8,40.6,14z M36.6,14c0-0.8-0.5-1.4-1.2-1.4s-1.2,0.6-1.2,1.4s0.5,1.4,1.2,1.4S36.6,14.8,36.6,14z
	 M71.5,25.6h-8.4v4.5c0,1.2,0.4,2.4,1.1,3.2c0.7,0.8,1.7,1.3,2.7,1.3h0.7c1.1,0,2-0.5,2.7-1.3s1.1-1.9,1.1-3.2V25.6z M62.5,15.8
	h-5.1l5.1,7.3h7.3L62.5,15.8z M49,13.4h12.9v-2.1c0,0-0.1-0.3-0.1-0.4l0,0c0,0-0.2-0.2-0.4-0.2H49.1L49,13.4L49,13.4z M52.1,23.2
	L49,15.8l0,0h5.7l5.1,7.3H52.1L52.1,23.2z M52.5,25.6h8.4v4.5c0,1.2-0.4,2.4-1.1,3.2s-1.7,1.3-2.7,1.3h-0.7c-1.1,0-2-0.5-2.7-1.3
	s-1.1-1.9-1.1-3.2V25.6z M50.4,25.6v4.5c0,1.2-0.4,2.4-1.1,3.2c-0.7,0.8-1.7,1.3-2.7,1.3h-0.7c-1.1,0-2-0.5-2.7-1.3
	c-0.7-0.8-1.1-1.9-1.1-3.2v-4.5H50.4z M41.4,19.7l0.5,3.5h7.9l-1.5-3.6c0,0-0.2,0.1-0.3,0.1H41.4z M31.7,23.2h8.1l-0.5-3.5h-7.1
	L31.7,23.2L31.7,23.2z M31.5,25.6h8.4v4.5c0,1.2-0.4,2.4-1.1,3.2c-0.7,0.8-1.7,1.3-2.7,1.3h-0.7c-1.1,0-2-0.5-2.7-1.3
	c-0.7-0.8-1.1-1.9-1.1-3.2V25.6z M29.4,25.6v4.5c0,1.2-0.4,2.4-1.1,3.2l-0.1,0.1c-0.7,0.8-1.6,1.3-2.7,1.3h-0.7
	c-1.1,0-2-0.5-2.7-1.3c-0.7-0.8-1.1-1.9-1.1-3.2v-4.5C21,25.6,29.4,25.6,29.4,25.6z M23.1,19.6l-1.5,3.6h7.9l0.5-3.5h-6.6
	C23.4,19.7,23.2,19.7,23.1,19.6L23.1,19.6z M11.6,23.2l5.1-7.3h5.7l-3.1,7.3H11.6L11.6,23.2z M10.5,25.6h8.4v4.5
	c0,1.2-0.4,2.4-1.1,3.2l-0.1,0.1c-0.7,0.8-1.6,1.3-2.7,1.3h-0.7c-1.1,0-2-0.5-2.7-1.3c-0.7-0.8-1.1-1.9-1.1-3.2
	C10.5,30.1,10.5,25.6,10.5,25.6z M8.3,25.6h-8.4v4.5c0,1.2,0.4,2.4,1.1,3.2c0.7,0.8,1.7,1.3,2.7,1.3h0.7c1,0,2-0.5,2.7-1.3l0.1-0.1
	c0.7-0.8,1.1-1.9,1.1-3.2L8.3,25.6C8.3,25.6,8.3,25.6,8.3,25.6z M14.1,15.8H8.9l-7.3,7.3H9L14.1,15.8z"/>
</svg>
