<?xml version="1.0" encoding="utf-8"?>
<!-- Generator: Adobe Illustrator 26.4.1, SVG Export Plug-In . SVG Version: 6.00 Build 0)  -->
<svg version="1.1" id="a" xmlns="http://www.w3.org/2000/svg" xmlns:xlink="http://www.w3.org/1999/xlink" x="0px" y="0px"
	 viewBox="0 0 71.7 91.5" style="enable-background:new 0 0 71.7 91.5;" xml:space="preserve">
<style type="text/css">
	.st0{fill:#2563EB;}
</style>
<path class="st0" d="M70.4,67.1H1.5c-0.7,0-1.3,0.5-1.3,1.2c0,0.7,0.6,1.2,1.3,1.2h68.9c0.7,0,1.3-0.5,1.3-1.2
	C71.7,67.6,71.1,67.1,70.4,67.1z"/>
<path class="st0" d="M70.4,71.1H1.5c-0.7,0-1.3,0.5-1.3,1.2c0,0.7,0.6,1.2,1.3,1.2h68.9c0.7,0,1.3-0.5,1.3-1.2
	C71.7,71.7,71.1,71.1,70.4,71.1z"/>
<path class="st0" d="M35.9,22.4c-4.3,0-7.7,3.3-7.7,7.3s3.5,7.3,7.7,7.3s7.7-3.3,7.7-7.3S40.2,22.4,35.9,22.4z M36.8,29.7
	c0,0.4-0.4,0.8-0.9,0.8h-4.3c-0.5,0-0.9-0.4-0.9-0.8c0-0.4,0.4-0.8,0.9-0.8H35v-5.3c0-0.4,0.4-0.8,0.9-0.8s0.9,0.4,0.9,0.8V29.7
	L36.8,29.7z"/>
<path class="st0" d="M70.4,30.5H52.3v-13c0-0.5-0.4-1-0.9-1.2l-14.2-3.8v-4h5.2c0.7,0,1.3-0.5,1.3-1.2V3.3c0-0.7-0.6-1.2-1.3-1.2
	h-6.5c-0.7,0-1.3,0.5-1.3,1.2v9.2l-14.2,3.8c-0.6,0.1-0.9,0.6-0.9,1.2v13H1.5c-0.7,0-1.3,0.5-1.3,1.2v32.5c0,0.7,0.6,1.2,1.3,1.2
	h25.8c0.7,0,1.3-0.5,1.3-1.2v-15h14.7v15c0,0.7,0.6,1.2,1.3,1.2h25.8c0.7,0,1.3-0.5,1.3-1.2V31.7C71.6,31,71.1,30.5,70.4,30.5
	L70.4,30.5z M8.8,58.1c0,0.4-0.4,0.8-0.9,0.8s-0.9-0.4-0.9-0.8V52c0-0.4,0.4-0.8,0.9-0.8s0.9,0.4,0.9,0.8V58.1z M8.8,45.9
	c0,0.4-0.4,0.8-0.9,0.8s-0.9-0.4-0.9-0.8v-6.1c0-0.4,0.4-0.8,0.9-0.8s0.9,0.4,0.9,0.8V45.9z M13.1,58.1c0,0.4-0.4,0.8-0.9,0.8
	s-0.9-0.4-0.9-0.8V52c0-0.4,0.4-0.8,0.9-0.8s0.9,0.4,0.9,0.8V58.1z M13.1,45.9c0,0.4-0.4,0.8-0.9,0.8s-0.9-0.4-0.9-0.8v-6.1
	c0-0.4,0.4-0.8,0.9-0.8s0.9,0.4,0.9,0.8V45.9z M17.4,58.1c0,0.4-0.4,0.8-0.9,0.8c-0.5,0-0.9-0.4-0.9-0.8V52c0-0.4,0.4-0.8,0.9-0.8
	c0.5,0,0.9,0.4,0.9,0.8V58.1z M17.4,45.9c0,0.4-0.4,0.8-0.9,0.8c-0.5,0-0.9-0.4-0.9-0.8v-6.1c0-0.4,0.4-0.8,0.9-0.8
	c0.5,0,0.9,0.4,0.9,0.8V45.9z M21.7,58.1c0,0.4-0.4,0.8-0.9,0.8S20,58.6,20,58.1V52c0-0.4,0.4-0.8,0.9-0.8s0.9,0.4,0.9,0.8V58.1z
	 M21.7,45.9c0,0.4-0.4,0.8-0.9,0.8S20,46.4,20,45.9v-6.1c0-0.4,0.4-0.8,0.9-0.8s0.9,0.4,0.9,0.8V45.9z M36,38.6
	c-5.2,0-9.5-4-9.5-8.9s4.3-8.9,9.5-8.9s9.5,4,9.5,8.9S41.2,38.6,36,38.6z M51.9,58.2c0,0.4-0.4,0.8-0.9,0.8s-0.9-0.4-0.9-0.8V52
	c0-0.4,0.4-0.8,0.9-0.8s0.9,0.4,0.9,0.8V58.2z M51.9,46c0,0.4-0.4,0.8-0.9,0.8s-0.9-0.4-0.9-0.8v-6.1c0-0.4,0.4-0.8,0.9-0.8
	s0.9,0.4,0.9,0.8V46z M56.2,58.2c0,0.4-0.4,0.8-0.9,0.8c-0.5,0-0.9-0.4-0.9-0.8V52c0-0.4,0.4-0.8,0.9-0.8c0.5,0,0.9,0.4,0.9,0.8
	V58.2z M56.2,46c0,0.4-0.4,0.8-0.9,0.8c-0.5,0-0.9-0.4-0.9-0.8v-6.1c0-0.4,0.4-0.8,0.9-0.8c0.5,0,0.9,0.4,0.9,0.8V46z M60.5,58.2
	c0,0.4-0.4,0.8-0.9,0.8c-0.5,0-0.9-0.4-0.9-0.8V52c0-0.4,0.4-0.8,0.9-0.8c0.5,0,0.9,0.4,0.9,0.8V58.2z M60.5,46
	c0,0.4-0.4,0.8-0.9,0.8c-0.5,0-0.9-0.4-0.9-0.8v-6.1c0-0.4,0.4-0.8,0.9-0.8c0.5,0,0.9,0.4,0.9,0.8V46z M64.9,58.2
	c0,0.4-0.4,0.8-0.9,0.8c-0.5,0-0.9-0.4-0.9-0.8V52c0-0.4,0.4-0.8,0.9-0.8c0.5,0,0.9,0.4,0.9,0.8V58.2z M64.9,46
	c0,0.4-0.4,0.8-0.9,0.8c-0.5,0-0.9-0.4-0.9-0.8v-6.1c0-0.4,0.4-0.8,0.9-0.8c0.5,0,0.9,0.4,0.9,0.8V46z"/>
</svg>
