

<svg version="1.1"  xmlns="http://www.w3.org/2000/svg"  x="0px" y="0px"
	 viewBox="0 0 71.7 91.5" style="enable-background:new 0 0 100 100" >
<style type="text/css">
    svg { background-color: transparent; }
  
	.st0{fill-rule:evenodd;clip-rule:evenodd;fill:#2563EB;}
</style>
<path class="st0" d="M71.3,17.4L37.2,0.2c-0.4-0.2-0.9-0.2-1.2,0L1.8,17.4C1.3,17.6,1,18.1,1,18.7v50.9c0,0.8,0.7,1.5,1.4,1.5h7.7
	V26c0-0.4,0.3-0.7,0.7-0.7h51.4c0.4,0,0.7,0.3,0.7,0.7v45.1h7.7c0.8,0,1.4-0.7,1.4-1.5V18.7C72,18.1,71.7,17.6,71.3,17.4L71.3,17.4
	L71.3,17.4z M36.5,19.3c-2.7,0-4.8-2.3-4.8-5s2.2-5,4.8-5c2.7,0,4.8,2.3,4.8,5S39.2,19.3,36.5,19.3z M54.4,58.1h-6.2
	c0.4,0,0.7-0.3,0.7-0.7V46c0-0.4-0.3-0.7-0.7-0.7H42c0.4,0,0.7-0.3,0.7-0.7V33c0-0.4-0.3-0.7-0.7-0.7h-11c-0.4,0-0.7,0.3-0.7,0.7
	v11.4c0,0.4,0.3,0.7,0.7,0.7h-6.2c-0.4,0-0.7,0.3-0.7,0.7v11.4c0,0.4,0.3,0.7,0.7,0.7h-6.2c-0.4,0-0.7,0.3-0.7,0.7v11.4
	c0,0.4,0.3,0.7,0.7,0.7h11c0.4,0,0.7-0.3,0.7-0.7c0,0.4,0.3,0.7,0.7,0.7h11c0.4,0,0.7-0.3,0.7-0.7c0,0.4,0.3,0.7,0.7,0.7h11
	c0.4,0,0.7-0.3,0.7-0.7V58.8C55.2,58.4,54.9,58.1,54.4,58.1L54.4,58.1L54.4,58.1z M24.1,67.2c-1.1,0-2-1.2-2-2.7
	c0-1.5,0.9-2.7,2-2.7s2,1.2,2,2.7C26.2,66.1,25.2,67.2,24.1,67.2z M30.3,58.9c0-0.4-0.3-0.7-0.7-0.7H31
	C30.6,58.1,30.3,58.5,30.3,58.9C30.3,58.9,30.3,58.9,30.3,58.9z M30.3,54.3c-1.1,0-2-1.2-2-2.7s0.9-2.7,2-2.7c1.1,0,2,1.2,2,2.7
	C32.4,53.1,31.4,54.3,30.3,54.3z M36.5,67.2c-1.1,0-2-1.2-2-2.7c0-1.5,0.9-2.7,2-2.7s2,1.2,2,2.7C38.5,66,37.6,67.2,36.5,67.2z
	 M36.5,57.4c0,0.4,0.3,0.7,0.7,0.7h-1.4C36.2,58.1,36.5,57.8,36.5,57.4C36.5,57.4,36.5,57.4,36.5,57.4z M35.8,45.2h1.4
	c-0.4,0-0.7,0.3-0.7,0.7C36.5,45.5,36.2,45.2,35.8,45.2C35.8,45.2,35.8,45.2,35.8,45.2z M36.5,41.4c-1.1,0-2-1.2-2-2.7
	s0.9-2.7,2-2.7s2,1.2,2,2.7S37.6,41.4,36.5,41.4z M42.7,58.8c0-0.4-0.3-0.7-0.7-0.7h1.4C43,58.1,42.7,58.4,42.7,58.8
	C42.7,58.8,42.7,58.8,42.7,58.8z M42.7,54.3c-1.1,0-2-1.2-2-2.7s0.9-2.7,2-2.7s2,1.2,2,2.7S43.8,54.3,42.7,54.3z M48.9,67.2
	c-1.1,0-2-1.2-2-2.7c0-1.5,0.9-2.7,2-2.7c1.1,0,2,1.2,2,2.7C50.9,66,50,67.2,48.9,67.2z"/>
</svg>
