<?xml version="1.0" encoding="UTF-8"?><svg id="a" xmlns="http://www.w3.org/2000/svg" viewBox="0 0 59.45 59.5"><path d="M29.71,.65c-5.7,0-11.79,4.95-11.79,12.31v1.59l1.46,5.05c.12,.4,.3,.77,.47,1.11,1.02,1.81,2.92,3.52,4.63,3.22,.15,0,.4-.1,.72-.22,1.02-.35,2.72-.94,4.48-.94s3.47,.59,4.48,.94c.32,.12,.57,.2,.72,.22,1.68,.3,3.59-1.41,4.63-3.22,.2-.35,.35-.72,.5-1.14l1.46-5.03v-1.59c0-7.38-6.09-12.31-11.79-12.31h.02Zm10.67,20.68c-1.06,1.91-3.07,3.81-5.1,3.81-.17,0-.35,0-.52-.02s-.47-.12-.87-.27c-.97-.35-2.6-.89-4.19-.89s-3.22,.57-4.19,.89c-.42,.15-.67,.22-.87,.27-2.23,.35-4.46-1.71-5.62-3.76-.25-.42-.42-.84-.59-1.34,.57,3.47,1.61,6.19,3.1,8.2,2.03-1.96,4.98-3.05,8.2-3.05s6.17,1.11,8.2,3.07c1.49-2.01,2.53-4.76,3.1-8.22-.17,.52-.35,.94-.59,1.36h0l-.05-.05Z" fill="#dc2626"/><path d="M10.04,55.78l-.59-.64c-.4-.3-.92-.62-1.49-.94-.47-.25-.92-.47-1.36-.64,0,0-.27-.07-.45-.12-.02,.17-.02,.35,0,.54,.12,1.41,0,1.71,0,1.76-.35,.5-.47,1.09-.42,1.71,.07,.62,.35,1.19,.77,1.56,.35,.32,.79,.5,1.24,.5,.64,0,1.24-.35,1.63-.92,.54-.82,.79-1.76,.87-2.63-.07,0-.15-.05-.22-.12h0l.02-.05Zm3.64-6.02c-.07-.4-.27-.99-.74-1.54-.27-.3-.57-.54-.89-.72l-.94-.25h0c-1.39,1.34-2.58,2.72-3.52,3.84l-.79,.92s-.17,.2-.22,.3c.1,0,.22,.07,.37,.12,.5,.2,1.02,.42,1.51,.69,.59,.32,1.14,.69,1.66,1.06l.27,.3,.12-.17c.92-1.06,2.08-2.4,3.37-3.64h0c0-.17-.07-.59-.15-.94h0l-.05,.02Zm5.3-2.97c-.1-.17-.45-.67-.45-.67-.37-.54-.79-.89-1.29-1.09-.45-.17-.92-.2-1.44-.07-.17,.02-.37,0-.5-.17l-.47-.57c-.99,.59-1.93,1.34-2.8,2.11l.32,.1c.47,.22,.89,.57,1.26,.99,.52,.57,.87,1.29,1.04,2.08,.02,.15,.05,.27,.07,.37,1.06-.94,2.2-1.71,3.34-2.18,.37-.15,.72-.42,.94-.79-.02,0-.05-.05-.05-.1h0Zm.15-9.29c-.07-.45-.12-.89-.12-1.31-.3,.52-.64,1.19-1.04,1.91-.77,1.54-1.63,3.47-2.2,5.5l.15,.17c.54-.1,1.14-.05,1.68,.17,.67,.27,1.26,.77,1.76,1.46,.05,.1,.12,.17,.17,.25,.3-1.19,.74-2.5,1.39-3.89-1.06-1.29-1.54-2.77-1.76-4.24h0l-.02-.02Z" fill="#dc2626"/><path d="M3.7,41.22c-.1-.15-.22-.27-.35-.4l-.62-.47h-.07c-.4,.42-.64,.92-.89,1.34l-.07,.17s-.1,.15-.12,.2c-.89,.25-1.56,1.19-1.56,2.25,0,1.29,.92,2.33,2.06,2.33,.54,0,1.02-.15,1.41-.37h0c-.05-.17-.02-.35,.02-.5,.1-.25,.67-1.83,.67-1.83,.25-.99,.07-2.03-.45-2.75h0l-.02,.02Zm8.52-2.95l-.45-.59-8.07,2.03,.2,.15c.22,.17,.42,.37,.59,.59,.72,1.02,.97,2.45,.62,3.86,0,.05-.05,.12-.05,.2,.07-.12,.12-.25,.2-.37v-.07l7.58-1.91,.12-.82c0-.79-.15-1.98-.72-3.12h0l-.02,.05Zm3.76-2.9s-.07-.12-.12-.17l-.5-.45c-.84,.64-1.73,1.44-2.65,2.4l.35,.47c.77,1.46,.92,2.87,.92,3.81l-.05,.5c.32-.1,.62-.3,.87-.59,.37-.42,.74-.82,1.14-1.21,.32-.79,.67-1.56,1.02-2.23-.12-.89-.47-1.78-.94-2.53h-.02Zm2.7-2.77c-.69,.35-1.51,.84-2.43,1.46l.3,.27,.1,.12s.12,.15,.17,.22c.35,.54,.64,1.14,.84,1.81,.59-1.09,1.09-1.88,1.31-2.2v-.22c0-.42,.02-.84,.12-1.26,0-.15,.05-.3,.07-.42-.15,.07-.3,.15-.47,.25h0l-.02-.02Z" fill="#dc2626"/><path d="M2.71,30.77s-.1-.1-.15-.15l-.64-.47h-.02c-.42,.25-.74,.45-.87,.52-.97,.62-1.31,2.06-.77,3.17,.35,.74,1.04,1.19,1.78,1.19,.37,0,.72-.1,1.02-.32,.17-.12,.35-.22,.54-.35l.1-1.09c-.07-.99-.4-1.86-.99-2.5h0Zm17.58-2.48c-.42-.2-.89-.42-1.36-.64v.4c-.05,.32-.1,.62-.17,.92-.2,.72-.52,1.29-.97,1.81-.3,.35-.59,.59-.92,.79l-.2,.1c.25,.1,.5,.22,.77,.35,.89-.52,1.66-.89,2.23-1.11,.15-.37,.35-.72,.57-1.06,.17-.27,.37-.54,.59-.79-.17-.22-.35-.47-.52-.72h0l-.02-.02Zm-2.38-1.09c-.72-.3-1.46-.59-2.2-.82-1.24-.4-2.43-.69-3.44-.69h-.37l.17,.2c.42,.67,.64,1.34,.72,2.03,.07,.64,.02,1.31-.15,2.01l-.17,.42c.72,.02,1.73,.35,2.85,.77,.02-.05,.07-.1,.15-.12l.92-.5c.22-.12,.45-.32,.64-.54,.35-.42,.62-.94,.77-1.54,.05-.15,.07-.3,.1-.47v-.74h.02Zm-6.14,.89c-.05-.54-.22-1.02-.5-1.46l-.62-.72c-2.5,.62-5.72,2.38-7.75,3.57l.25,.2s.2,.2,.25,.27c.77,.82,1.19,1.96,1.29,3.34v.42c2.18-1.31,4.88-2.7,6.59-3.17l.4-.99c.12-.47,.15-.97,.1-1.44h0v-.02Z" fill="#dc2626"/><path d="M17.77,21.95c-.17-.22-.3-.45-.45-.67l-.07,.3c-.4,.92-.92,1.66-1.54,2.23-.25,.22-.54,.45-.84,.64l-.37,.25s.05,.07,.07,.1c1.59,.4,3.32,1.06,4.8,1.76-.64-1.34-1.19-2.9-1.56-4.61h-.05Zm-3.15-9.21v.17c-.25,1.26-1.09,1.91-2.53,1.91-.27,0-.57,0-.89-.05-.05,0-.1,0-.12-.05l-.22-.1,2.58,8.35c.05,.2,.15,.4,.25,.59,.05,.07,.1,.17,.15,.22l.5-.32c.25-.17,.5-.35,.72-.54,.52-.47,.94-1.06,1.24-1.78l.3-1.02c.05-.15,.12-.25,.22-.32l-2.2-7.03,.02-.02ZM11.9,3.92l-.25,.25c-.35,.4-.72,.72-1.11,.99-.54,.4-1.14,.72-1.78,.94l-.47,.2,2.11,6.84,1.02,.47c1.73,.22,2.08-.35,2.2-.89l.27-1.93s.02-.15,.07-.2l-2.06-6.61h0v-.05Zm-.72-2.35c-.17-.59-.54-1.06-1.04-1.34-.5-.27-1.04-.3-1.56-.1-.52,.2-.94,.62-1.16,1.19-.25,.57-.27,1.19-.07,1.78l.64,2.06,.47-.2c.57-.2,1.09-.47,1.56-.79,.35-.25,.64-.52,.94-.84l.57-.62s-.35-1.14-.35-1.14Z" fill="#dc2626"/><path d="M49.17,55.91c.07,.87,.32,1.81,.87,2.63,.4,.59,.99,.92,1.63,.92,.45,0,.89-.17,1.24-.5,.42-.37,.72-.92,.77-1.56,.05-.62-.07-1.21-.42-1.71,0-.02-.15-.35,0-1.76v-.54c-.17,.05-.45,.12-.45,.12-.42,.17-.89,.4-1.36,.64-.54,.3-1.06,.64-1.49,.94l-.59,.64s-.15,.12-.22,.12h0l.02,.05Zm-3.57-5.23h0c1.29,1.26,2.43,2.6,3.37,3.67l.12,.17,.27-.3c.52-.4,1.06-.74,1.66-1.06,.5-.27,1.02-.52,1.51-.69,.15-.05,.3-.1,.37-.12-.05-.1-.12-.2-.22-.3l-.79-.92c-.94-1.11-2.13-2.5-3.52-3.84h0l-.94,.25c-.32,.17-.62,.4-.89,.72-.47,.54-.67,1.14-.74,1.54-.07,.35-.15,.77-.15,.89h-.05Zm-5.2-3.74c.25,.37,.57,.64,.94,.79,1.14,.45,2.28,1.24,3.34,2.18,0-.1,.05-.22,.07-.37,.17-.79,.52-1.51,1.04-2.08,.37-.42,.79-.77,1.26-.99,.05,0,.07-.02,.12-.02l.2-.05c-.87-.77-1.81-1.51-2.8-2.11l-.47,.57c-.12,.15-.32,.2-.5,.17-.5-.12-.99-.1-1.44,.07-.5,.2-.92,.54-1.29,1.09,0,0-.35,.5-.45,.67,0,.02-.02,.07-.05,.1h0v-.02Zm-1.86-5.13c.64,1.41,1.11,2.7,1.39,3.89,.05-.07,.1-.15,.17-.25,.47-.69,1.06-1.19,1.76-1.46,.54-.22,1.14-.27,1.68-.17l.15-.17c-.57-2.03-1.44-3.96-2.2-5.5-.37-.74-.74-1.39-1.04-1.91,0,.42-.05,.87-.12,1.31-.22,1.46-.69,2.95-1.76,4.24h0l-.02,.02Z" fill="#dc2626"/><path d="M55.29,43.97s.57,1.61,.67,1.83c.05,.15,.07,.32,.02,.47h0c.4,.25,.84,.4,1.41,.4,1.14,0,2.06-1.04,2.06-2.33,0-1.06-.64-2.01-1.56-2.25-.02-.07-.07-.15-.12-.2l-.07-.17c-.25-.42-.5-.92-.89-1.34,0,0,0-.02-.05-.05h-.02l-.62,.52c-.12,.12-.25,.25-.35,.4-.52,.72-.69,1.78-.45,2.75h0l-.02-.02Zm-8.79-2.6l.12,.82,7.55,1.91v.07s.15,.22,.22,.37c0-.05-.05-.12-.05-.2-.35-1.41-.12-2.85,.62-3.86,.17-.22,.35-.42,.59-.59l.2-.15-8.07-2.03-.45,.59c-.57,1.14-.72,2.3-.72,3.12h0l-.02-.05Zm-3.99-3.49c.35,.69,.69,1.44,1.02,2.23,.4,.4,.77,.79,1.14,1.21,.25,.27,.54,.47,.87,.59l-.05-.5c0-.94,.17-2.35,.92-3.81l.35-.47c-.92-.97-1.81-1.76-2.65-2.4l-.5,.45s-.07,.1-.12,.17c-.47,.74-.82,1.61-.94,2.53h-.02Zm-2.23-5.55c.05,.15,.07,.27,.07,.42,.07,.4,.12,.82,.12,1.26v.22c.2,.35,.72,1.11,1.31,2.2,.2-.67,.47-1.26,.84-1.81,.05-.07,.12-.17,.17-.22,0,0,.07-.1,.1-.12l.3-.27c-.89-.62-1.73-1.11-2.43-1.46-.17-.1-.32-.17-.47-.25h0l-.02,.02Z" fill="#dc2626"/><path d="M55.74,33.27l.1,1.09c.17,.12,.37,.22,.54,.35,.3,.2,.64,.32,1.02,.32,.74,0,1.44-.45,1.78-1.19,.54-1.11,.2-2.53-.77-3.17-.12-.07-.45-.27-.87-.57h-.02l-.64,.52s-.1,.1-.15,.15c-.59,.62-.92,1.51-.99,2.5h0Zm-17.11-4.26c.22,.25,.42,.52,.59,.79,.22,.35,.42,.69,.57,1.06,.57,.22,1.34,.59,2.23,1.11,.25-.12,.5-.22,.77-.35l-.2-.1c-.32-.2-.64-.45-.92-.79-.45-.5-.77-1.09-.97-1.81-.07-.3-.15-.59-.17-.92v-.4c-.5,.22-.94,.45-1.36,.64-.17,.25-.32,.5-.52,.72h0l-.02,.02Zm2.92-1.61v.54c0,.17,.05,.32,.07,.47,.15,.59,.4,1.11,.77,1.54,.22,.22,.45,.42,.64,.54l.92,.5s.12,.07,.15,.12c1.11-.42,2.13-.72,2.85-.77l-.17-.42c-.17-.69-.22-1.36-.15-2.01,.1-.72,.32-1.39,.72-2.03l.17-.2h-.37c-1.02,0-2.2,.27-3.44,.69-.74,.22-1.49,.52-2.2,.82,0,.05,.02,.12,.02,.2h.02Zm6.22,2.15l.4,.99c1.68,.47,4.41,1.86,6.61,3.17v-.42c.05-1.39,.5-2.5,1.26-3.34,.05-.07,.12-.15,.25-.27l.25-.2c-2.03-1.21-5.25-2.95-7.75-3.57l-.62,.72c-.27,.45-.42,.94-.5,1.46-.05,.5-.02,.97,.1,1.44h0v.02Z" fill="#dc2626"/><path d="M40.11,26.58c1.49-.67,3.22-1.36,4.8-1.76,.02-.02,.05-.07,.07-.1l-.37-.25c-.3-.2-.59-.42-.84-.64-.64-.59-1.14-1.31-1.54-2.23l-.07-.3c-.15,.22-.3,.45-.45,.67-.4,1.73-.92,3.27-1.56,4.61h-.05Zm2.53-6.79s.17,.17,.22,.32l.3,1.02c.3,.69,.72,1.29,1.24,1.78,.22,.2,.47,.4,.72,.54l.5,.32s.1-.15,.15-.22c.1-.2,.2-.4,.25-.59l2.58-8.35-.22,.1s-.07,.02-.12,.05c-.3,.05-.59,.05-.89,.05-1.44,0-2.28-.62-2.5-1.91v-.17l-2.2,7.03v.02Zm2.87-9.24s.05,.15,.07,.22l.27,1.93c.1,.54,.45,1.14,2.2,.89l1.02-.47,2.11-6.84-.47-.2c-.64-.22-1.24-.54-1.78-.94-.4-.27-.77-.59-1.11-.99l-.25-.25-2.06,6.61v.02Zm2.43-7.83l.57,.62c.3,.32,.59,.59,.94,.84,.47,.35,.99,.59,1.56,.79l.47,.2,.64-2.06c.17-.59,.15-1.21-.07-1.78-.25-.57-.64-.99-1.16-1.19-.52-.2-1.06-.17-1.56,.1-.5,.27-.87,.74-1.04,1.34,0,0-.35,1.14-.35,1.14Z" fill="#dc2626"/><path d="M28.17,33.84c-.77,0-1.41-.67-1.51-1.51,.15-.15,.32-.22,.5-.22,.54,0,1.02,.79,1.02,1.76h0v-.02Z" fill="#dc2626"/><path d="M32.28,32.1c-.17,0-.35,.1-.5,.22,.1,.84,.74,1.51,1.51,1.51,0-.94-.47-1.76-1.02-1.76-.17,0-.35,.1-.5,.22,.1,.84,.74,1.51,1.51,1.51,0-.94-.47-1.76-1.02-1.76-.17,0-.35,.1-.5,.22,.1,.84,.74,1.51,1.51,1.51,0-.94-.47-1.76-1.02-1.76-.17,0-.35,.1-.5,.22,.1,.84,.74,1.51,1.51,1.51,0-.94-.47-1.76-1.02-1.76h0v.1Zm-2.55-5.8c-5.37,0-9.73,3.47-9.73,7.73,0,2.15,0,4.78,1.54,6.79,0-.4,.1-.79,.27-1.14,.3-.52,.72-.92,1.26-1.06s1.09-.05,1.54,.25c.47,.32,.82,.82,.94,1.44,.07,.35,.12,.64,.17,.97,.02-.1,.05-.17,.1-.27,.5-1.16,1.73-1.61,2.75-1.04,.84,.47,1.16,1.46,.97,2.95-.05,.3-.05,.59-.07,.89h.47c0-.3-.02-.59-.07-.89-.2-1.49,.12-2.48,.97-2.95,1.02-.57,2.25-.1,2.75,1.04,.05,.1,.07,.17,.1,.27,.05-.32,.1-.62,.17-.97,.12-.59,.47-1.11,.94-1.44,.47-.32,1.02-.4,1.54-.25s.97,.54,1.26,1.06c.17,.37,.27,.74,.27,1.14,1.54-2.01,1.54-4.66,1.54-6.79,0-4.26-4.36-7.73-9.73-7.73h.07Zm-3.59,12.21c-.3,0-.52-.25-.52-.59s.22-.59,.52-.59,.52,.25,.52,.59-.22,.59-.52,.59Zm2.06,0c-.3,0-.52-.25-.52-.59s.22-.59,.52-.59,.52,.25,.52,.59-.22,.59-.52,.59Zm-1.02-1.76c-1.14,0-2.06-1.31-2.06-2.92s.92-2.92,2.06-2.92,2.06,1.31,2.06,2.92-.92,2.92-2.06,2.92Zm4.11,1.76c-.3,0-.52-.25-.52-.59s.22-.59,.52-.59,.52,.25,.52,.59-.22,.59-.52,.59Zm2.06,0c-.3,0-.52-.25-.52-.59s.22-.59,.52-.59,.52,.25,.52,.59-.22,.59-.52,.59Zm-1.02-1.76c-1.14,0-2.06-1.31-2.06-2.92s.92-2.92,2.06-2.92,2.06,1.31,2.06,2.92-.92,2.92-2.06,2.92Zm0-4.66c-.17,0-.35,.1-.5,.22,.1,.84,.74,1.51,1.51,1.51,0-.94-.47-1.76-1.02-1.76-.17,0-.35,.1-.5,.22,.1,.84,.74,1.51,1.51,1.51,0-.94-.47-1.76-1.02-1.76-.17,0-.35,.1-.5,.22,.1,.84,.74,1.51,1.51,1.51,0-.94-.47-1.76-1.02-1.76-.17,0-.35,.1-.5,.22,.1,.84,.74,1.51,1.51,1.51,0-.94-.47-1.76-1.02-1.76-.17,0-.35,.1-.5,.22,.1,.84,.74,1.51,1.51,1.51,0-.94-.47-1.76-1.02-1.76h0v.12Z" fill="#dc2626"/><path d="M24.28,51.7c-.27-.3-.59-.72-.69-1.16-.3,.02-.62,.1-.92,.2-.37,.12-.72,.27-1.04,.47,.17,.74,.59,1.49,1.21,2.18,.4,.42,1.06,.42,1.46,0,.17-.22,.3-.52,.3-.82s-.12-.59-.3-.82h0l-.02-.05Zm-.84-7.95c-.2-.05-.42-.07-.62-.1,0,1.51-.4,2.75-.74,3.86-.25,.84-.5,1.63-.57,2.45,.3-.12,.57-.25,.87-.35,.45-.15,.89-.2,1.31-.25,.07-.32,.17-.69,.3-1.09,.32-1.04,.69-2.3,.82-3.86-.3-.22-.77-.52-1.39-.67h.02Zm1.11-3.15c-.07-.3-.25-.57-.47-.72-.17-.1-.35-.17-.52-.17-.07,0-.17,0-.25,.02-.27,.07-.5,.27-.64,.54s-.17,.59-.12,.87c.1,.47,.17,.92,.22,1.31,.3,0,.59,.05,.89,.12,.47,.12,.84,.3,1.19,.5,0-.77-.1-1.61-.3-2.5h0v.02Z" fill="#dc2626"/><path d="M28.57,46.02c-.1-.99-.2-2.08-.02-3.27,.17-1.24-.12-1.59-.42-1.73-.15-.1-.3-.12-.47-.12-.37,0-.74,.22-.92,.64-1.24,2.82-.05,5.57,0,5.67,.32,.72,.87,1.49,1.24,1.56,.05,0,.17,.02,.35-.17,.4-.47,.35-1.29,.25-2.58h0Z" fill="#dc2626"/><path d="M32.68,41.52c-.17-.4-.54-.64-.92-.64-.15,0-.32,.02-.47,.12-.27,.15-.57,.5-.42,1.73,.17,1.19,.05,2.3-.02,3.27-.12,1.29-.17,2.11,.25,2.58,.17,.2,.3,.17,.35,.17,.4-.07,.92-.84,1.24-1.56,.05-.1,1.24-2.85,0-5.67h0Z" fill="#dc2626"/><path d="M36.74,40.28c-.15-.27-.37-.45-.64-.54-.07,0-.17-.02-.25-.02-.17,0-.35,.05-.52,.17-.25,.17-.4,.42-.47,.72-.2,.89-.3,1.71-.3,2.48,.35-.2,.74-.37,1.19-.47,.3-.07,.59-.12,.89-.12,.05-.4,.12-.84,.22-1.31,.05-.3,.02-.59-.12-.87h0v-.02Zm-1.04,9.09c.47,0,.89,.1,1.31,.22,.3,.1,.59,.22,.89,.37-.05-.82-.3-1.61-.57-2.45-.35-1.11-.72-2.35-.74-3.86-.22,0-.42,.05-.62,.1-.59,.15-1.06,.4-1.39,.64,.1,1.56,.5,2.82,.82,3.89,.12,.4,.25,.77,.3,1.09h0Zm.12,1.16c-.1,.42-.42,.84-.69,1.16-.2,.22-.3,.52-.3,.82s.1,.59,.3,.82c.4,.45,1.06,.45,1.46,0,.64-.69,1.04-1.44,1.21-2.18-.3-.17-.67-.35-1.06-.47-.3-.1-.59-.15-.92-.2h0v.05Z" fill="#dc2626"/></svg>