<?xml version="1.0" encoding="UTF-8"?><svg id="a" xmlns="http://www.w3.org/2000/svg" viewBox="0 0 59.7 59.74"><path d="M39.99,35.13c-.05-.22-.1-.45-.2-.67-.6-1.49-3.68-2.39-6.25-2.86h0c-.72,.37-1.52,.67-2.36,.85-.87,.2-1.82,.2-2.71,0-.82-.2-1.62-.5-2.31-.87-2.59,.5-5.65,1.37-6.25,2.86-.05,.15-.12,.4-.2,.67-.1,.8-.22,1.62-.35,2.46v.1h.15l.32,.1,.12,.05,.35,.1,.17,.05,.35,.1,.2,.05,.35,.1,.25,.07,.37,.1,.27,.07,.37,.1,.3,.07,.4,.07,.32,.07,.4,.07,.32,.07,.42,.07,.35,.05,.42,.07,.35,.05,.45,.07,.35,.05,.45,.05,.35,.05,.47,.05h.32l.55,.05h2.14l.52-.05h.32l.47-.05,.35-.05,.45-.05,.35-.05,.42-.07,.35-.05,.42-.07,.32-.05,.42-.07,.32-.07,.4-.07,.32-.07,.4-.07,.3-.07,.37-.1,.27-.07h0s.25-.05,.35-.07l.25-.07,.35-.1,.22-.05,.35-.1,.17-.05,.35-.1,.12-.05,.32-.1h.15v-.12c-.17-.82-.3-1.62-.42-2.39h0l-.02-.05Z" fill="#dc2626"/><path d="M19.31,38.36c-.07,1.84,.05,3.66,.35,5.48l.32,.1,.47,.15,.55,.15,.52,.15,.65,.17,.57,.15,.7,.15,.6,.15,.77,.15c.2,.05,.42,.07,.62,.12l.85,.12,.6,.07c.32,.05,.65,.07,.92,.1l.52,.05c.5,.05,1,.05,1.49,.07,.5,0,1,0,1.49-.07l.52-.05c.32,0,.65-.05,.97-.1l.6-.07,.85-.12c.22,0,.42-.07,.62-.12l.77-.15,.6-.15,.7-.15,.57-.15,.65-.17,.52-.15,.55-.15,.47-.15,.32-.1h0c.3-1.82,.4-3.66,.35-5.48-3.31,1.1-6.87,1.74-10.5,1.92-3.66-.17-7.22-.82-10.55-1.92h0Z" fill="#dc2626"/><path d="M19.78,44.61c.37,2.04,1.02,4.03,1.99,5.97,.4,.1,.77,.2,1.14,.27l1,.25c.42,.07,.82,.15,1.24,.22s.6,.12,.87,.15c.45,.07,.87,.12,1.29,.15,.25,0,.47,.07,.7,.07,.65,.05,1.27,.1,1.84,.1s1.19-.05,1.84-.1c.22,0,.47-.05,.7-.07,.42-.05,.85-.1,1.29-.15l.87-.15c.42-.07,.82-.15,1.24-.22l1-.25c.37-.07,.75-.17,1.14-.27h0c.95-1.94,1.62-3.93,1.99-5.97-3.19,1.02-6.59,1.62-10.05,1.77-3.48-.15-6.89-.75-10.08-1.77h-.02Z" fill="#dc2626"/><path d="M37.53,51.43c-2.46,.65-5.05,1-7.67,1.07-2.61-.07-5.2-.45-7.67-1.07,1.84,3.21,4.36,5.57,7.67,7.07,3.29-1.49,5.87-3.88,7.67-7.07Z" fill="#dc2626"/><path d="M14.63,16.76c-.7-3.56-2.84-7.29-6.35-11.15h0c-.15-.12-.42-.17-.62-.07s-.27,.27-.15,.42c3.51,3.83,5.6,7.57,6.25,11.07,.02,.12,.12,.22,.3,.27l3.83,1.05,.52-.57-3.76-1.02h-.02Z" fill="#dc2626"/><path d="M10.92,26.17c-6.59,2.96-9.95,.17-10.13,.07H.79s-.2-.1-.3-.12c-.12,0-.25,0-.32,.07-.2,.12-.22,.32-.07,.47,1.37,1.02,3.26,1.57,5.2,1.54,2.17-.05,4.28-.55,6.07-1.42,.22-.35,.45-.67,.67-1-.37,.1-.77,.22-1.12,.4h0v-.02Z" fill="#dc2626"/><path d="M1.49,56.45s0,.17,.07,.25,.17,.12,.3,.12h.07c.22,0,.42-.12,.45-.27,.35-1.1,.92-2.17,1.67-3.14-.05-.37-.1-.77-.12-1.19-1.14,1.29-1.97,2.74-2.44,4.23h0Z" fill="#dc2626"/><path d="M29.86,29.38h-.07c-1.49-.12-2.96-.47-4.31-.97-.2,.35-.25,.75-.17,1.14,.25,1.05,1.42,1.79,3.46,2.29,.7,.15,1.44,.15,2.14,0,2.07-.47,3.24-1.24,3.46-2.26,.07-.37,.02-.77-.15-1.12-1.34,.52-2.81,.85-4.31,.97h-.07l.02-.05Z" fill="#dc2626"/><path d="M29.86,23.75c-2.14,.22-4.36,.15-6.45-.27-.32,.92-.2,1.89,.32,2.76,.92,1.29,2.94,2.12,6.12,2.46,3.19-.35,5.25-1.17,6.12-2.46,.52-.87,.65-1.84,.32-2.76-1.22,.27-2.49,.4-3.78,.37-.82,0-1.69-.05-2.66-.1h0Z" fill="#dc2626"/><path d="M30.28,13.18l-.42-.05-1.57,.17h0c-2.71,2.71-4.75,5.72-6,8.93,1.34,.82,3.81,1.1,7.54,.82h.1c3.68,.27,6.17,0,7.54-.82-1.24-3.21-3.29-6.25-6-8.96l-1.17-.12-.02,.02Z" fill="#dc2626"/><path d="M19.33,30.35c.92-8.83,5.33-14.48,7.69-16.92h-.2l-.67,.07-.5,.05h0c-.55,.05-1.1,.1-1.64,.1-.92,.7-7.37,5.82-14.01,16.85-6.1,10.1-6.74,24.21-2.96,28.25,.4,.57,1.17,.92,2.04,.97,5.4-.05,8.91-15.85,10.25-29.34h0v-.02Z" fill="#dc2626"/><path d="M45.69,17.33c.15-.05,.27-.15,.3-.27,.65-3.51,2.76-7.22,6.25-11.07,.07-.07,.12-.17,.1-.25,0-.1-.1-.17-.2-.22s-.25-.07-.37-.05c-.12,0-.22,.07-.3,.17-3.53,3.86-5.67,7.59-6.35,11.15l-3.78,1.02,.52,.57s3.83-1.05,3.83-1.05Z" fill="#dc2626"/><path d="M59.6,26.66c.15-.15,.12-.35-.07-.47-.1-.05-.22-.07-.32-.07s-.22,.05-.3,.12c-.12,.12-3.51,2.89-10.08-.05-.35-.15-.75-.3-1.14-.42l.67,1c1.79,.9,3.88,1.39,6.07,1.44,1.94,.02,3.83-.52,5.18-1.54h0Z" fill="#dc2626"/><path d="M21.72,10.02c-.62,1.17-.67,1.99-.17,2.46,.72,.67,2.61,.55,3.98,.42l.5-.05h.05c-.57-.92-1.12-2.29-.27-3.31,.65-.8,2.02-1.24,4.06-1.29,2.07,.05,3.43,.47,4.11,1.29,.75,.92,.4,2.12-.1,3.01l2.17,.45h0c.8,.05,1.57-.12,2.17-.52,.5-.47,.45-1.29-.17-2.46-1.74-3.31-8.01-2.76-8.09-2.76h-.1s-6.32-.52-8.06,2.76h-.05Z" fill="#dc2626"/><path d="M57.34,56.58c.05,.15,.22,.27,.45,.27h.07c.25-.02,.42-.2,.37-.37-.47-1.52-1.29-2.96-2.44-4.26,0,.4-.07,.8-.12,1.19h0c.75,1,1.32,2.07,1.67,3.19h0v-.02Z" fill="#dc2626"/><path d="M35.68,13.62l-2.21-.47-.07,.12h0c-.07,.12-.27,.2-.47,.17h-.2c2.36,2.44,6.82,8.09,7.69,16.92,1.34,13.49,4.83,29.27,10.25,29.37,.87-.05,1.64-.4,2.04-.97,3.76-4.06,3.14-18.17-2.96-28.25-6.77-11.17-13.26-16.28-14.06-16.9h0Z" fill="#dc2626"/><path d="M25.06,7.53s.17,.05,.25,.05c.15,0,.3-.05,.37-.15,.07-.07,.1-.15,.07-.25,0-.07-.1-.15-.2-.2l-.17-.07c-.77-.4-4.18-2.21-5.52-3.93C18.21,.86,13.34,.06,13.14,.01c-.25-.05-.5,.07-.57,.25-.05,.17,.1,.37,.35,.4,.05,0,4.68,.77,6.15,2.66,1.24,1.57,3.98,3.19,5.28,3.86l.7,.32,.02,.02Z" fill="#dc2626"/><path d="M29.79,12.45h.15s1,.12,2.76,.3c.47-.7,1.14-2.02,.45-2.89-.52-.6-1.59-.9-3.29-.97s-2.76,.37-3.26,.97c-.7,.87,0,2.19,.42,2.89,1.77-.17,2.76-.3,2.76-.3h0Z" fill="#dc2626"/><path d="M34.04,7.45s.22,.15,.37,.15c.1,0,.2,0,.27-.05l.7-.35c1.27-.67,4.03-2.29,5.28-3.86,1.44-1.87,6.1-2.66,6.15-2.66h0c.25-.05,.42-.22,.35-.4-.05-.17-.3-.3-.57-.25-.22,0-5.08,.85-6.74,2.96-1.34,1.72-4.75,3.51-5.52,3.93l-.17,.07h0s-.2,.12-.22,.22,0,.2,.07,.27h0l.05-.05Z" fill="#dc2626"/></svg>