<?xml version="1.0" encoding="UTF-8"?><svg id="a" xmlns="http://www.w3.org/2000/svg" viewBox="0 0 59.65 64.39"><path d="M7.71,31.18c-.1-.75,0-1.56,.22-2.23,.15-.35,.37-.62,.62-.78,0-.62,.05-1.34,.02-2.23v-.13c0-.38,0-.99,.07-1.77,.12-1.88,.12-3.76,0-5.61-.62,.3-1.27,.46-1.91,.48-.15,.89-.35,1.72-.57,2.55-.15,3.49-.05,7.56,.99,9.12,.17,.24,.35,.43,.57,.56h0l-.02,.03Z" fill="#dc2626"/><path d="M49.91,8.62C42.36-.47,32.2-2.38,19.75,2.93c.6,3.25,2.24,16.44,1.76,19.9,1.29,1.05,1.84,4.1,2.06,7.03h0c2.26,4.64,5.17,8.26,8.49,10.51,.42,.16,.82,.43,1.19,.78,1.22,.75,2.46,1.37,3.75,1.82,12.89,4.75,19.4-1.48,19.87-2.52,.22-.59,.4-1.23,.5-1.9,.2-1.26,.52-2.47,.97-3.54,.27-.67,.57-1.31,.89-1.93,.37-.7,.42-.8,.4-1.61-.07-1.45-2.41-14.11-9.69-22.88h0l-.05,.03Z" fill="#dc2626"/><path d="M10.81,29.3c-.37,0-.99,0-2.01-.13-.15,.08-.27,.21-.37,.43-.17,.56-.2,1.21-.07,1.82,.79,.91,1.64,1.66,2.53,2.23-.07-1.45-.1-2.87-.07-4.32h0v-.03Z" fill="#dc2626"/><path d="M9.5,2.91c.47,1.64,.65,3.49,.47,5.28-.22,1.42-.77,2.63-1.56,3.33-.89,.89-1.84,1.58-2.81,2.15,.15,.13,.27,.3,.37,.48,.57,1.02,.87,2.33,.87,3.73,1.54-.35,3.03-.99,4.47-1.93,.05-3.54,.5-10.65,.6-12.07-.65-1.34-1.79-1.15-2.38-.94h0l-.02-.03Z" fill="#dc2626"/><path d="M12.53,3.95c-.27,4.05-.72,11.75-.57,13.33,.02,.21,.1,.4,.2,.56,.2-.38,.45-.62,.75-.72,.99-.32,2.16,1.02,2.58,1.58h0c.15-.11,.27-.27,.4-.43-.2-4.99-.42-11.94-.52-14.19-.25-.4-1.27-1.88-2.83-.11h0v-.03Z" fill="#dc2626"/><path d="M16.05,3.98c.25,7.19,.62,17.84,.72,19.37,.72,.24,1.44,.3,2.16,.16,.57-.67,1.24-1.02,1.94-.94,.35-2.15-1.09-16.39-1.84-19.55-.55-.21-2.43-.89-3.01,.99h0l.02-.03Z" fill="#dc2626"/><path d="M3.68,13.21c.15-.05,.32-.08,.47-.11,1.37-.46,2.68-1.34,3.87-2.58,.62-.54,1.07-1.5,1.24-2.63,.32-2.23-.45-4.75-.75-5.55-2.91,.51-4.92,2.04-5.99,4.45-.65,1.48-.92,3.33-.79,5.12l.67,.89c.37,.38,.82,.51,1.24,.38h0l.02,.03Z" fill="#dc2626"/><path d="M12.23,35.87c.42-1.66,1.19-3,2.16-3.81,.87-3.49,.77-10.97,.72-12.42h0c-.55-.75-1.19-1.26-1.89-1.42h-.17c-.22,.08-.42,.35-.52,.7-1.34,4.24-1.17,15.8-.67,17.22h0c.12-.05,.25-.13,.37-.24h0v-.03Z" fill="#dc2626"/><path d="M18.71,37.83c-.3-1.15-.55-2.33-.75-3.54-.67-.27-1.22-.56-1.66-.8-.5-.38-1.04-.54-1.59-.48-.84,.7-1.54,1.88-1.91,3.33,0,.05-.02,.13-.05,.19-.12,.27-.17,.62-.12,.94,.1,.38,.45,.67,.99,.8s1.12,.38,1.76,.62c.65,.24,1.34,.51,2.06,.72h0c.4-.64,.82-1.23,1.24-1.77h.02Z" fill="#dc2626"/><path d="M19.68,40.81c-.25-.62-.47-1.26-.67-1.93-.42,.54-.82,1.1-1.17,1.72-.3,.75-3.7,9.07-4.84,11.1-.22,.43-.35,.8-.32,1.02s.27,.54,.52,.78l.12,.11h0c.2,.19,.4,.4,.57,.64l.47,.51c.15,.13,.3,.16,.45,.08,.22-.13,.32-.62,.35-.99,.1-.99,.89-3.14,2.19-6.57,.79-2.04,1.76-4.56,2.36-6.52h0l-.02,.05Z" fill="#dc2626"/><path d="M13.05,54.81c-.72,1.8-3.03,7.43-4.55,7.78-.27,.11-.57,0-.82-.32-.45-.56-.84-1.18-1.22-1.88-.42,.67-.7,1.56-.75,2.52,.02,.32,.15,.56,.32,.7,1.34,1.18,3.6,.99,4.52-.38s2.58-6.22,3.1-7.78l-.65-.64h.02Z" fill="#dc2626"/><path d="M6.14,18.25c.07-1.21-.15-2.41-.65-3.33-.42-.62-.97-.86-1.52-.67-1.32,4.4-2.46,8.96-3.45,13.57,.55-.27,1.12-.35,1.69-.24,.32,.08,.65,.08,.99,0,.27-.21,.5-.54,.67-.91,.65-1.85,2.11-6.92,2.26-8.42h0Z" fill="#dc2626"/><path d="M2.19,28.68c-.55-.13-1.12-.05-1.61,.27,.25,.59,.99,1.85,3.01,3.19,.17-.43,.47-.7,.77-.75,.12,0,.27,.08,.37,.21,0-1.02-.25-2.01-.72-2.71-.15-.24-.37-.35-.57-.3-.4,.13-.82,.16-1.24,.08Z" fill="#dc2626"/><path d="M3.86,42.28c.05-1.05,.17-2.09,.37-3.11,.32-1.96,.72-4.37,.35-6.01-.12-.59-.22-.67-.22-.67-.15,0-.5,.91-.7,1.77h0v.05s-1.29,4.13-1.19,6.41c.05,1.34,.15,8.72-1.04,10.76-.2,.38-.5,.59-.79,.59-.1,0-.2-.11-.27-.24l-.3-.78c-.12,.83-.05,1.69,.22,2.44,.27,.4,.67,.56,1.02,.38,2.14-.51,2.58-9.39,2.56-11.61h0v.03Z" fill="#dc2626"/><path d="M21.44,42.55l1.94-1.69h0c-.02-.67-.1-1.34-.2-2.01-.17-.94-.25-1.93-.22-2.92,.17-1.9,.2-11.1-1.96-12.2h-.3c-1.07,.03-1.99,1.21-2.29,2.9-.84,3.59,.67,12.71,3.03,15.93h0Z" fill="#dc2626"/><path d="M23.8,41.72l-2.24,1.96s-.37,.46-.35,.89c0,.27,.15,.8,1.02,1.48,1.79,1.37,6.23,1.45,8.4,.97,.37-.97,1.49-3.62,2.56-3.65h0c.02-.48-.1-.94-.32-1.21-.99-1.31-6.88-2.36-9.09-.43h.02Z" fill="#dc2626"/><path d="M33.37,44.48c-.52-.35-1.59,1.66-2.16,3.19-.22,5.55-.45,14.75-.07,16.07,.07,.27,.2,.46,.37,.54,.25,.05,.5,0,.75-.13,.32-1.56,1.27-2.52,2.26-2.23,.25-.59,.45-2.28,.35-5.61-.17-5.66-1.07-11.37-1.49-11.83h0Z" fill="#dc2626"/></svg>