<?xml version="1.0" encoding="UTF-8"?><svg id="a" xmlns="http://www.w3.org/2000/svg" viewBox="0 0 59.45 59.46"><path d="M26.81,15.56C15.96-1.7,1.05,0,.41,.08,.28,.08,.16,.15,.08,.23,0,.3-.02,.38,0,.48c0,.07,.1,.15,.2,.2,.1,.05,.25,.07,.37,.05,.15,0,14.89-1.66,25.42,15.31,.1-.07,.2-.17,.32-.25,.15-.1,.32-.17,.47-.22h.02Z" fill="#dc2626"/><path d="M18.89,26.01c-.97,.27-1.98,.45-3.02,.52-1.49,.02-1.66-.42-1.68-.47h0c-.05-.17-.3-.3-.57-.27s-.47,.2-.42,.37c0,.05,.25,1.04,2.55,1.04h.15c1.14-.07,2.25-.27,3.32-.54,.99-.27,2.03-.45,3.1-.52,0-.22-.07-.45-.12-.64-1.14,.1-2.25,.3-3.29,.57h0v-.05Z" fill="#dc2626"/><path d="M22.53,21.78v-.15c-4.14-1.09-4.29-3.12-4.29-3.2,0-.17-.22-.32-.5-.32s-.5,.15-.5,.32c0,.1,.12,2.53,4.88,3.79,.05-.15,.15-.3,.32-.4,.02,0,.07,0,.1-.05h-.02Z" fill="#dc2626"/><path d="M25.4,17.89c-.02-.22-.02-.45,0-.64-.62-.37-1.39-.82-2.06-1.19h0c-.92-.5-2.16-.62-3.25-.32-.12,.02-.22,.1-.25,.17s-.02,.17,0,.25c.12,.15,.42,.22,.67,.15,.74-.2,1.59-.1,2.2,.25,.92,.47,1.78,.99,2.63,1.54l.2-.07h0s-.1-.1-.12-.15h0l-.02,.02Z" fill="#dc2626"/><path d="M59.09,.08c-.62-.07-15.56-1.78-26.41,15.48,.17,.05,.32,.12,.47,.22,.12,.07,.22,.15,.32,.25C44-.94,58.74,.7,58.87,.72c.12,0,.27,0,.37-.05,.1-.05,.17-.12,.2-.2,.05-.17-.1-.35-.35-.4h0Z" fill="#dc2626"/><path d="M40.26,26.63c1.07,.3,2.18,.47,3.32,.54h.22c2.3,0,2.53-1.02,2.55-1.04,.02-.17-.15-.35-.42-.37-.27,0-.52,.1-.57,.27,0,.05-.17,.52-1.68,.47h0c-1.04-.07-2.06-.25-3.02-.52-1.07-.27-2.18-.47-3.32-.57l-.12,.64c1.04,.1,2.08,.27,3.05,.52h0v.05Z" fill="#dc2626"/><path d="M37.04,21.88c.15,.12,.25,.27,.3,.42,4.76-1.24,4.9-3.69,4.9-3.79,0-.17-.22-.32-.5-.32s-.5,.15-.5,.32c0,.1-.15,2.11-4.29,3.2v.15l.07,.05v-.02Z" fill="#dc2626"/><path d="M33.97,18.04l.2,.07c.59-.37,1.68-1.07,2.63-1.54,.62-.35,1.46-.42,2.2-.25,.25,.07,.52,0,.64-.17,.12-.15,0-.35-.2-.42-1.09-.3-2.35-.17-3.25,.32-.69,.35-1.46,.82-2.06,1.19,.02,.22,.02,.45,0,.64-.02,.05-.07,.1-.12,.15h-.05Z" fill="#dc2626"/><path d="M32.48,16.28c-.79-.32-1.73-.42-2.63-.3h-.22c-.92-.12-1.86,0-2.65,.32-.5,.35-.72,.84-.62,1.31l.3,.05c.97-.27,2.03-.45,3.07-.47,1.07,.02,2.11,.2,3.07,.45l.27-.05c.1-.47-.12-.97-.62-1.31h.02Z" fill="#dc2626"/><path d="M29.74,17.84c-.27,0-5.7,.05-6.19,3.62,.99-.2,1.98-.37,3.02-.47,2.01-.25,4.06-.25,6.09,0,1.11,.12,2.2,.3,3.27,.52-.47-3.59-5.92-3.64-6.17-3.64h0l-.02-.02Z" fill="#dc2626"/><path d="M32.48,21.61c-1.88-.22-3.84-.22-5.72,0-3.1,.4-3.57,.64-3.62,.64-.2,.15-.35,1.14,.15,3.72,.94-.45,2.9-1.11,6.44-1.11s5.47,.64,6.42,1.11c.42-2.08,.42-3.52,.15-3.74-.02,0-.54-.25-3.84-.64h0l.02,.02Z" fill="#dc2626"/><path d="M35.46,29.48c.94-.52,.74-2.06,.57-2.68-.35-.22-2.01-1.24-6.27-1.24s-5.95,1.02-6.29,1.24c-.2,.64-.42,2.18,.54,2.68h0c3.44-1.56,8-1.56,11.44,0h0Z" fill="#dc2626"/><path d="M27.38,44.64c.07-.17-.1-.35-.37-.4-.12,0-.27,0-.37,.05-.12,.05-.2,.12-.22,.2v.05c-2.38,6.76-12.83,9.93-12.93,9.96-.27,.02-.45,.22-.4,.4s.32,.3,.62,.27h.2c.1,0,9.86-3,12.98-9.29h0c.2-.4,.37-.82,.5-1.21h0v-.02Z" fill="#dc2626"/><path d="M35.41,30.05c-.42,.07-.79,.25-1.02,.52,.1-.2,.25-.4,.4-.59-3.02-1.34-7.01-1.34-10.03,0,.15,.2,.3,.4,.4,.62-.17-.2-.45-.35-.74-.45-.15,.07-.35,.1-.54,.05-.12-.05-.22-.1-.35-.15-.52,.05-1.02,.2-1.44,.42-1.39,.67-1.39,1.86-1.34,3.05,.02,.52,0,1.04-.12,1.56-.12,.72-.77,1.34-1.71,1.68-.12,.02-.22,.1-.27,.17s-.05,.17,0,.25c.07,.12,.25,.2,.47,.2h.2c1.29-.42,2.16-1.24,2.33-2.18,.12-.54,.15-1.11,.12-1.68,0-1.04,0-2.06,.89-2.53h0c.32-.2,.74-.3,1.16-.3,.15,0,.3,.07,.37,.17,.05,.07,.17,.15,.3,.17s.27,0,.4,0c.25-.07,.35-.27,.22-.42,.59,1.21,.87,2.5,.79,3.77,0,5.28,1.41,12.93,3.67,13.28h0c-.25,0-.42,.15-.42,.32v11.15c0,.17,.22,.32,.5,.32s.5-.15,.5-.32v-11.17c0-.15-.15-.27-.37-.3,.92-.07,1.68-1.31,2.28-3.12h0v.12c.12,.4,.3,.79,.5,1.19,3.2,6.29,12.91,9.26,13.03,9.29h.2c.27,.05,.54-.07,.62-.25,.05-.17-.12-.35-.4-.4-.1,0-10.53-3.2-12.91-9.96v-.05c0-.17-.22-.32-.5-.32s-.5,.15-.5,.32c.97-3.32,1.46-6.69,1.46-10.08-.07-1.26,.2-2.53,.79-3.74-.07,.15,0,.32,.25,.4s.54,0,.67-.15c.1-.07,.22-.15,.37-.17,.45,0,.87,.1,1.16,.3,.92,.47,.92,1.46,.89,2.53h0c-.02,.54,0,1.11,.12,1.68,.17,.94,1.04,1.76,2.33,2.18h.2c.2,0,.4-.07,.47-.2,.1-.17,0-.35-.25-.42-.97-.35-1.61-.97-1.73-1.68-.1-.52-.15-1.04-.12-1.56,0-1.16,0-2.38-1.29-3.05h0c-.42-.22-.92-.37-1.44-.45h-.57v-.02Z" fill="#dc2626"/></svg>