<?xml version="1.0" encoding="UTF-8"?><svg id="a" xmlns="http://www.w3.org/2000/svg" viewBox="0 0 59.96 59.96"><path d="M43.4,25.13c2.55-3.57,3.67-6.34,3.4-8.42l1.15-2.82c.1-.25,0-.55-.27-.65-.17-.07-.4-.02-.55,.1l-1.27,1.27s-.12-.12-.17-.2c-.07-.07-.17-.17-.27-.25l1.27-1.27c.2-.2,.2-.5,0-.7-.15-.15-.35-.17-.55-.1l-2.87,1.15c-.22-.02-.45-.05-.7-.05-.55,0-1.07,.07-1.6,.2-1.8,.45-3.9,1.57-6.02,3.3-.35,.27-.67,.57-1,.85-1.32,2.55-.95,5.42,.97,7.37,2.35,2.4,5.59,2.07,7.87,.97,.2-.22,.4-.47,.57-.75h.05Z" fill="#dc2626"/><path d="M3.92,59.79c-1.62-.8-2.92-2.12-3.72-3.75-.32,1.3-.25,2.45,.27,3.52,1.3,.52,2.55,.42,3.42,.22h.02Z" fill="#dc2626"/><path d="M37.86,28.85c1.12-.1,2.22-.52,3.25-1.3-.57,.12-1.15,.2-1.72,.2-1.92,0-3.77-.75-5.12-2.12-1.6-1.62-2.32-3.92-1.92-6.17-.75,1.05-1.15,2.1-1.2,3.15-.07,1.52,.6,3,2,4.4,1.35,1.35,3.02,2.02,4.75,1.87l-.02-.02Z" fill="#dc2626"/><path d="M35.16,15.29c1.22-.92,2.55-1.7,3.95-2.32-.82-.35-1.75-.3-2.55,.1-.92,.5-1.35,1.47-1.42,2.22h.02Z" fill="#dc2626"/><path d="M16.2,33.35c1.92,5.19,5.44,8.72,10.46,10.46,1.02-.77,1.67-1.95,1.8-3.22-4.47-1.52-7.37-4.42-9.04-9.04-1.27,.15-2.45,.77-3.22,1.8Z" fill="#dc2626"/><path d="M32.41,27.7c-.92-.92-1.55-1.87-1.92-2.85-.17,.07-.32,.17-.47,.27-.62,.9-.15,2.22,1.25,3.55,2.1,1.97,3.07,1.75,3.65,1.37,.1-.17,.2-.35,.27-.55-1.05-.37-1.97-1-2.77-1.8Z" fill="#dc2626"/><path d="M26.09,29.02c-.62,.9-.15,2.22,1.25,3.55,2.1,1.97,3.07,1.75,3.65,1.37,.17-.27,.3-.57,.42-.87-.82-.22-1.72-.82-2.75-1.77-1.1-1.02-1.57-1.95-1.75-2.7-.32,.15-.7,.32-.82,.45v-.02Z" fill="#dc2626"/><path d="M5.46,59.37c1.3,.35,2.7-.22,3.57-.72-3.62-1.4-6.12-3.92-7.64-7.67-.5,.82-1.12,2.22-.77,3.55,.9,2.45,2.45,4,4.85,4.85Z" fill="#dc2626"/><path d="M29.34,30.57c2.1,1.97,3.07,1.75,3.65,1.37,.15-.25,.27-.5,.37-.75-.82-.22-1.75-.82-2.8-1.8-1.12-1.05-1.6-1.97-1.75-2.75-.25,.1-.5,.22-.72,.4-.62,.9-.15,2.22,1.25,3.55v-.02Z" fill="#dc2626"/><path d="M10.21,58.02c2-.1,3.77-1.37,4.65-2.12-5.14-2.05-8.67-5.52-10.76-10.61-.72,.85-1.97,2.55-2.07,4.52,1.47,4.2,4.15,6.87,8.19,8.19v.02Z" fill="#dc2626"/><path d="M23.37,29.62s-.2,.1-.32,.1c-.07,0-1.8-.05-2.72,1.37,1.57,4.42,4.32,7.17,8.59,8.59,1.42-.92,1.37-2.65,1.37-2.72,0-.12,.02-.22,.1-.32,.25-.32,.32-.92,.32-1.52-.17,.05-.35,.07-.55,.07-1.02,0-2.17-.62-3.52-1.9-1.82-1.72-1.95-3.12-1.75-4-.6,0-1.2,.07-1.52,.32Z" fill="#dc2626"/><path d="M46,5.62c.22-.15,.55-.1,.7,.12,0,0,0,.02,.02,.05l.25,.45,1.55-2.4c-.97,.05-2.65,.32-4.02,1.55-1.6,1.42-2.32,3.72-2.2,6.82,.35,0,.7,0,1.05,.05-.9-4.05,2.62-6.59,2.67-6.64h-.02Z" fill="#dc2626"/><path d="M53.84,13.09l.45,.25c.25,.12,.32,.42,.2,.67,0,0,0,.02-.02,.05-.02,.05-2.55,3.52-6.64,2.57,.05,.37,.05,.75,0,1.12,3.12,.12,5.42-.62,6.84-2.2,1.25-1.37,1.5-3.05,1.55-4.02l-2.4,1.55h.02Z" fill="#dc2626"/><path d="M46.92,23.46c.4-.8,.45-1.75,.07-2.57-.6,1.4-1.35,2.72-2.2,3.95,.75-.1,1.67-.55,2.12-1.4v.02Z" fill="#dc2626"/><path d="M8.04,39.76c1.07,3.05,2.65,5.62,4.65,7.64,2.02,2.05,4.57,3.57,7.57,4.55,1.62-.9,2.65-2.45,3.07-3.25-5.77-2-9.82-6.04-12.01-12.01-.8,.42-2.37,1.42-3.25,3.05l-.02,.02Z" fill="#dc2626"/><path d="M12.11,36.07c1.05,2.97,2.55,5.44,4.5,7.42,1.97,1.97,4.42,3.47,7.32,4.42,1.45-.9,2.05-2.47,2.25-3.2-5.17-1.87-8.84-5.52-10.86-10.86-.72,.2-2.32,.77-3.22,2.22h.02Z" fill="#dc2626"/><path d="M4.82,44.36c2.05,5.32,5.64,8.87,11.01,10.84,1.27-.4,2.75-1.72,3.52-2.47-5.77-2.07-9.82-6.12-12.06-12.06-.75,.82-2.07,2.4-2.47,3.7Z" fill="#dc2626"/><path d="M40.26,9.89c-.27,0-.5,.2-.52,.47h0v.15c0,.27,.2,.5,.47,.52h0c.27,0,.5-.22,.5-.47v-.15c0-.27-.2-.5-.47-.52h.02Z" fill="#dc2626"/><path d="M39.73,8.87v.22c0,.27,.22,.5,.5,.5s.5-.22,.5-.5v-.22c0-.27-.22-.5-.5-.5s-.5,.22-.5,.5Z" fill="#dc2626"/><path d="M39.98,7.3v.2c-.05,.27,.15,.52,.42,.55h.05c.25,0,.47-.2,.5-.45v-.2c.05-.27-.15-.52-.42-.55s-.52,.17-.55,.45h0Z" fill="#dc2626"/><path d="M40.33,5.8l-.05,.2c-.07,.27,.07,.55,.32,.62,.27,.07,.55-.07,.62-.32v-.02l.05-.2c.07-.27-.1-.55-.37-.6-.25-.07-.52,.07-.6,.32h.02Z" fill="#dc2626"/><path d="M40.93,4.3l-.1,.2c-.12,.25,0,.55,.22,.67,.25,.12,.55,0,.67-.22h0l.1-.2c.12-.25,0-.55-.22-.67-.25-.12-.55,0-.67,.22h0Z" fill="#dc2626"/><path d="M41.73,2.88l-.12,.17c-.15,.22-.07,.55,.15,.7s.55,.07,.7-.15l.12-.17c.15-.22,.07-.55-.15-.7s-.55-.07-.7,.15h0Z" fill="#dc2626"/><path d="M42.58,1.55l-.12,.17c-.15,.22-.07,.55,.15,.7,.22,.15,.55,.07,.7-.15h0l.12-.17c.15-.22,.07-.55-.15-.7-.22-.15-.55-.07-.7,.15h0Z" fill="#dc2626"/><path d="M44.13,.08c-.22-.15-.55-.07-.7,.15h0l-.12,.17c-.15,.22-.07,.55,.15,.7s.55,.07,.7-.15l.12-.17c.15-.22,.07-.55-.15-.7h0Z" fill="#dc2626"/><path d="M49.37,19.38c-.27,0-.5,.22-.5,.5s.22,.5,.5,.5h.15c.27,0,.5-.25,.47-.52,0-.27-.25-.5-.52-.47h-.1Z" fill="#dc2626"/><path d="M50.87,19.36c-.27,0-.5,.22-.5,.5s.22,.5,.5,.5h.22c.27,0,.5-.22,.5-.5s-.22-.5-.5-.5h-.22Z" fill="#dc2626"/><path d="M52.34,19.16c-.27,.02-.47,.27-.45,.55,.02,.25,.25,.45,.5,.45h.25c.27-.05,.47-.27,.45-.55,0-.27-.27-.47-.55-.45h-.2Z" fill="#dc2626"/><path d="M53.89,18.81l-.2,.05c-.27,.07-.42,.35-.37,.6,.07,.27,.35,.42,.6,.37h.02l.2-.05c.27-.07,.42-.35,.37-.6-.07-.27-.35-.42-.6-.37h-.02Z" fill="#dc2626"/><path d="M55.22,18.29l-.2,.1c-.25,.12-.35,.42-.22,.67s.42,.35,.67,.22l.2-.1c.25-.12,.35-.42,.22-.67s-.42-.35-.67-.22Z" fill="#dc2626"/><path d="M57.09,18.41c.22-.15,.3-.45,.15-.7-.15-.22-.45-.3-.7-.15h0l-.17,.12c-.22,.15-.3,.45-.15,.7,.15,.22,.45,.3,.7,.15l.17-.12Z" fill="#dc2626"/><path d="M57.86,16.69l-.17,.12c-.22,.15-.3,.45-.15,.7s.45,.3,.7,.15l.17-.12c.22-.15,.3-.45,.15-.7s-.45-.3-.7-.15Z" fill="#dc2626"/><path d="M59.19,15.84l-.17,.12c-.22,.15-.3,.45-.15,.7,.15,.22,.45,.3,.7,.15l.17-.12c.22-.15,.3-.45,.15-.7-.15-.22-.45-.3-.7-.15Z" fill="#dc2626"/><path d="M39.73,13.12c0,.27,.22,.5,.5,.5s.5-.22,.5-.5v-1.17c0-.27-.22-.5-.5-.5s-.5,.22-.5,.5v1.17Z" fill="#dc2626"/><path d="M48.52,19.91c0-.27-.22-.5-.5-.5h-1.15c-.27,0-.47,.2-.5,.45-.02,.25,.2,.47,.45,.5h1.2c.27,.02,.5-.17,.5-.45h0Z" fill="#dc2626"/><path d="M2.74,25.7c-.22,.1-.35,.35-.3,.57,.07,.27,.32,.42,.6,.37,.02,0,.05,0,.07-.02,1.32-.57,5.19,.05,7.22,.5,.1,.12,.25,.2,.37,.27,.22,.1,.47,.17,.72,.17,.22,0,.45-.05,.65-.17,1.47-.97,5.62-2.17,6.92-2.32,.17,.15,.37,.25,.6,.35,.62,.35,1.6,.77,2.65,1.22,1.1,.47,2.32,1.02,3.12,1.45,.47,.25,1.05,.15,1.4-.25h0c.4-.5,.35-1.2-.12-1.62-.05-.05-.12-.1-.2-.12-1.92-1.02-5.07-2.65-6.49-3.07-.15-.05-.32-.05-.47,0-2.3,.17-6.62,.92-8.57,2.17-.4,.27-.67,.55-.8,.85-.62-.12-1.65-.32-2.77-.47-2.2-.3-3.77-.25-4.62,.12h.02Z" fill="#dc2626"/><path d="M2.02,34.84s.22,.17,.37,.17c.12,0,.22-.05,.32-.12,.02-.02,3-2.37,7.42-2.45,.27,.22,.6,.35,.92,.37h.05c.27,0,.52-.12,.65-.35,.25-.42,1.27-1.42,5.52-3.27,.32,.22,.72,.27,1.1,.15,.37-.12,1.45,.02,2.75,.4,.27,.07,.6,.02,.85-.12h0c.47-.32,.6-.95,.27-1.4-.12-.2-.35-.35-.57-.42-2.35-.62-3.67-.87-4.15-.82-.25,0-.5,.12-.65,.32-1.72,.2-5.99,2.35-6.99,3.57-.15,.17-.22,.4-.25,.62-4.5,.17-7.42,2.55-7.54,2.65-.22,.17-.25,.5-.07,.7Z" fill="#dc2626"/><path d="M28.54,24.33c.22,.47,.77,.65,1.25,.45,.45-.2,.65-.72,.47-1.17l-2.15-5.72h0s-.02-.05-.05-.07l3.25-4.92c.37-.57,.25-1.35-.32-1.75h0c.5-2.7-.1-5.47-1.65-7.72-.15-.22-.47-.3-.7-.12-.22,.15-.3,.47-.12,.7,1.4,2.02,1.95,4.52,1.5,6.94h-.07c-.37,.1-.67,.35-.85,.67l-2.77,5.74c-.5,.35-.67,1-.37,1.55l2.62,5.44-.02-.02Z" fill="#dc2626"/><path d="M33.94,33.57c-.3-.57-1-.77-1.57-.47-.07,.02-.12,.07-.2,.12h0c-.42,.35-.55,.97-.27,1.45,.47,.85,1.05,2.15,1.55,3.25,.45,1.02,.9,2,1.22,2.62,.1,.2,.2,.4,.35,.6-.12,1.3-1.32,5.44-2.32,6.92-.27,.4-.2,.97,0,1.35,.07,.15,.17,.27,.27,.37,.45,2,1.1,5.84,.52,7.19-.12,.25,0,.55,.22,.67,.25,.12,.55,.02,.67-.22h0c.37-.85,.42-2.42,.12-4.65-.15-1.12-.35-2.15-.47-2.77,.3-.12,.57-.37,.85-.8,1.25-1.92,2-6.24,2.17-8.54,.05-.15,.05-.32,0-.47-.45-1.45-2.12-4.7-3.12-6.57v-.05Z" fill="#dc2626"/><path d="M25.15,57.97s.2,.1,.32,.1c.15,0,.3-.07,.37-.17,.1-.12,2.5-3.05,2.65-7.54,.22,0,.45-.1,.62-.25,1.22-1,3.37-5.27,3.57-6.99,.17-.17,.3-.4,.32-.65,.07-.6-.37-2.57-.82-4.3-.12-.52-.67-.85-1.2-.72-.25,.05-.45,.22-.6,.42l-.05,.07c-.15,.22-.2,.52-.12,.8,.3,1.15,.52,2.42,.37,2.87-.12,.37-.07,.77,.15,1.1-2.12,4.65-3.02,5.39-3.27,5.52s-.4,.4-.37,.67c0,.35,.15,.67,.37,.95,0,4.42-2.4,7.42-2.42,7.44-.17,.2-.15,.52,.07,.7h0l.02-.02Z" fill="#dc2626"/><path d="M56.81,31.35c.12-.22,.05-.52-.17-.67-2.25-1.55-5.02-2.12-7.72-1.62h0c-.4-.55-1.17-.7-1.75-.32l-4.92,3.25-.1-.05-5.69-2.2c-.5-.2-1.05,.05-1.25,.55-.17,.47,.02,1,.47,1.22l5.44,2.6c.55,.27,1.2,.12,1.55-.37l5.77-2.77c.35-.17,.6-.47,.67-.85v-.07c2.42-.45,4.92,.1,6.94,1.5,.22,.15,.55,.1,.7-.12v-.02h0l.05-.02Z" fill="#dc2626"/></svg>