<?xml version="1.0" encoding="UTF-8"?><svg id="a" xmlns="http://www.w3.org/2000/svg" viewBox="0 0 71.4 71.06"><path d="M32.25,36.95c1.64,0,3.09-1.1,3.51-2.75,.48-1.95-.71-3.88-2.65-4.35l-6.49-1.57c-2.32-6.13-3.06-7.11-3.33-7.43-.48-.59-2.17-2.66-4.43-4.06l-2.5-1.54c-1.34-.83-2.95-1.04-4.46-.62-1.52,.44-2.77,1.51-3.45,2.9l-1.37,2.81L.5,32.84c-.6,1.13-.65,2.43-.21,3.61l6.07,15.45v14.77c0,2.4,1.93,4.32,4.31,4.32s4.31-1.95,4.31-4.32v-15.57c0-.53-.09-1.07-.3-1.6l-3.45-8.82,7.5-12.73c.57,1.39,1.22,3.11,1.79,4.62,.42,1.13,1.37,1.98,2.53,2.28l8.33,2.04c.3,.06,.57,.09,.86,.09h0v-.03Z" fill="#2563eb"/><path d="M35.22,38.17c-.86,.53-1.87,.86-2.98,.86-.45,0-.89-.06-1.34-.15l-1.04-.27c-1.73,1.07-2.92,2.96-2.92,5.12,0,1.04,.83,1.87,1.87,1.87s1.87-.83,1.87-1.87c0-1.24,1.01-2.28,2.26-2.28s2.26,1.04,2.26,2.28v25.46c0,1.04,.83,1.87,1.87,1.87s1.87-.83,1.87-1.87v-25.46c0-2.52-1.55-4.68-3.75-5.57h0Z" fill="#2563eb"/><path d="M24.69,15.49c4.22-.68,7.14-4.68,6.46-8.91C30.46,2.34,26.5-.56,22.25,.09c-4.22,.68-7.14,4.68-6.46,8.91,.68,4.26,4.64,7.14,8.9,6.48Z" fill="#2563eb"/><path d="M70.3,9.48c-11.13-1.15-14.37-7.61-14.52-7.88-.21-.41-.62-.71-1.1-.71h0c-.48,0-.89,.27-1.1,.71-.12,.27-3.36,6.75-14.52,7.88-.62,.06-1.1,.59-1.1,1.21v9.83c0,12.85,15.5,20.99,16.16,21.35,.18,.09,.36,.15,.57,.15s.39-.03,.57-.15c.65-.33,16.16-8.47,16.16-21.35V10.69c0-.62-.48-1.15-1.1-1.21h0Zm-6.63,13.41c0,.5-.39,.89-.89,.89h-5.56v5.6c0,.5-.39,.89-.89,.89h-3.27c-.51,0-.89-.41-.89-.89v-5.6h-5.56c-.51,0-.89-.41-.89-.89v-3.29c0-.5,.39-.89,.89-.89h5.56v-5.6c0-.5,.39-.89,.89-.89h3.27c.51,0,.89,.41,.89,.89v5.6h5.56c.51,0,.89,.41,.89,.89v3.29Z" fill="#2563eb"/></svg>