<?xml version="1.0" encoding="UTF-8"?><svg id="a" xmlns="http://www.w3.org/2000/svg" viewBox="0 0 71.59 71.59"><path d="M35.8,42.72c-3.34,0-6.09-3.52-6.09-7.9s2.71-7.9,6.09-7.9,6.09,3.52,6.09,7.9-2.71,7.9-6.09,7.9ZM12.23,14.41v4.36h5.19c-.84,.84-1.4,2.33-1.4,4.03v17.15c0,.92,.27,1.73,.78,2.39l8.92,11.22c.3,.36,.45,.81,.45,1.31v14.89c0,1.01,.63,1.85,1.43,1.85h16.73c.78,0,1.43-.84,1.43-1.85v-14.89c0-.51,.15-.95,.45-1.31l8.92-11.22c.51-.66,.78-1.46,.78-2.39V22.79c0-1.7-.57-3.16-1.4-4.03h4.92v-4.36H12.23Zm39.08,4.36H20.58c.84,.84,1.4,2.33,1.4,4.03v13.54c0,.75,.21,1.4,.63,1.88l4.09,4.92c.54,.66,1.19,.98,1.94,.98h14.62c.75,0,1.4-.33,1.94-.98l4.09-4.92c.42-.51,.63-1.13,.63-1.88v-13.54c0-1.7,.57-3.16,1.4-4.03h0Zm15.57,9.25V3.7c0-1.01-.33-1.94-.84-2.6S64.82,.03,64.05,.03s-1.49,.42-2,1.07-.84,1.58-.84,2.6V29.5c0,1.01,.33,1.94,.84,2.6s1.22,1.07,2,1.07,1.49-.42,2-1.07c.51-.66,.84-1.58,.84-2.6v-1.49Zm3.28-21.87h-1.43V27.06h1.43c.39,0,.75-.21,1.01-.57s.42-.81,.42-1.34V8.02c0-.51-.18-.98-.42-1.31-.27-.36-.63-.57-1.01-.57h0ZM7.58,0c-.78,0-1.49,.42-2,1.07s-.84,1.58-.84,2.6V29.5c0,1.01,.33,1.94,.84,2.6s1.22,1.07,2,1.07,1.49-.42,2-1.07c.51-.66,.84-1.58,.84-2.6V3.7c0-1.01-.33-1.94-.84-2.6S8.35,.03,7.58,.03v-.03ZM2.89,6.14H1.43c-.39,0-.75,.21-1.01,.57-.27,.33-.42,.81-.42,1.31V25.18c0,.51,.15,.98,.42,1.34,.27,.33,.63,.57,1.01,.57h1.43V6.14h.03Z" fill="#2563eb" fill-rule="evenodd"/></svg>