<?xml version="1.0" encoding="UTF-8"?><svg id="a" xmlns="http://www.w3.org/2000/svg" viewBox="0 0 71.49 71.49"><path d="M16.62,0V5.9h16.44V0H16.62Zm19.81,27.49v2.83l11.17,4.26c.45,.18,.69,.54,.71,.92v33.93h-2.32V36.19l-11.11-4.23c-.06,0-.12-.03-.18-.06l-14.95-5.69v43.28h-2.32V24.63c0-.57,.51-1.01,1.16-1.01,.21,0,.39,.03,.54,.12l14.95,5.69v-2.62c0-.39,.27-.77,.71-.92l6.05-2.29V7.92H8.85v61.54H1.16c-.66,0-1.16,.45-1.16,1.01s.51,1.01,1.16,1.01H70.33c.66,0,1.16-.45,1.16-1.01s-.51-1.01-1.16-1.01h-7.69v-3.87h-10.78c-.66,0-1.16-.45-1.16-1.01s.51-1.01,1.16-1.01h10.78v-3.07h-10.78c-.66,0-1.16-.45-1.16-1.01s.51-1.01,1.16-1.01h10.78v-3.07h-10.78c-.66,0-1.16-.45-1.16-1.01s.51-1.01,1.16-1.01h10.78v-3.07h-10.78c-.66,0-1.16-.45-1.16-1.01s.51-1.01,1.16-1.01h10.78v-3.07h-10.78c-.66,0-1.16-.45-1.16-1.01s.51-1.01,1.16-1.01h10.78v-3.07h-10.78c-.66,0-1.16-.45-1.16-1.01s.51-1.01,1.16-1.01h10.78v-3.07h-10.78c-.66,0-1.16-.45-1.16-1.01s.51-1.01,1.16-1.01h10.78v-3.07h-10.78c-.66,0-1.16-.45-1.16-1.01s.51-1.01,1.16-1.01h10.78v-10.28l-20.08,7.66s-.12,.06-.18,.06l-5.96,2.26v-.12Zm-7.09,41.97v-5.54h7.09v5.54h-7.09Zm-6.05-32.08h6.05v5.27h-6.05v-5.27Zm0,9.29h6.05v5.27h-6.05s0-5.27,0-5.27Zm0,9.29h6.05v5.27h-6.05v-5.27Zm11.2,0h6.05v5.27h-6.05v-5.27Zm0-4.02v-5.27h6.05v5.27h-6.05Zm0-9.29v-5.27h6.05v5.27s-6.05,0-6.05,0Z" fill="#2563eb" fill-rule="evenodd"/></svg>