
<svg style="background-color:transparent;" xmlns="http://www.w3.org/2000/svg" viewBox="0 0 512 512" fill="#d32f2f">
  <path d="M246.9 14.1C251.2 5.4 259.9 0 269.5 0h17.1c9.5 0 18.2 5.4 22.6 14.1l24.5 49.1 48.4-16.1c8.9-3 18.7-1 25.3 5.1l12.2 11.3c6.6 6.1 9.4 15.6 7.2 24.7l-12.4 49.9 40.7 33.2c7.5 6.1 10.8 16 8.4 25.3l-4.4 17.8c-2.4 9.4-10.1 16.5-19.6 18.1l-53.2 9.2-4.4 53.9c-.8 9.9-7.5 18.3-17 21.3l-16.9 5.3c-9.5 3-19.7-.3-25.9-8.3l-34.5-44.3-49.7 21.8c-8.7 3.8-18.8 2.1-25.8-4.3l-12.8-11.7c-7-6.4-9.5-16.3-6.3-25.1l17.9-48.9L158 199.3c-8.2-5.1-12.4-14.8-10.6-24.2l3.3-17.9c1.8-9.5 8.9-17 18.1-19.1l51.7-11.9 5.8-53.9c1.1-9.8 8-18 17.6-20.7l3.2-.9zM313.8 128c-9.3 0-18.1 3.7-24.7 10.3l-4.7 4.7c-6.6 6.6-15.5 10.3-24.7 10.3h-8c-9.3 0-18.1-3.7-24.7-10.3l-4.7-4.7c-6.6-6.6-15.5-10.3-24.7-10.3H192c-17.7 0-32 14.3-32 32v16c0 17.7 14.3 32 32 32h5.5c9.3 0 18.1 3.7 24.7 10.3l4.7 4.7c6.6 6.6 15.5 10.3 24.7 10.3h8c9.3 0 18.1-3.7 24.7-10.3l4.7-4.7c6.6-6.6 15.5-10.3 24.7-10.3H320c17.7 0 32-14.3 32-32V160c0-17.7-14.3-32-32-32h-6.2zM384 312v16c0 17.7 14.3 32 32 32h32c17.7 0 32-14.3 32-32V312c0-17.7-14.3-32-32-32H416c-17.7 0-32 14.3-32 32zM160 384c0-17.7-14.3-32-32-32H96c-17.7 0-32 14.3-32 32v16c0 17.7 14.3 32 32 32h32c17.7 0 32-14.3 32-32V384zM448 448c0-17.7-14.3-32-32-32H352c-17.7 0-32 14.3-32 32v16c0 17.7 14.3 32 32 32h64c17.7 0 32-14.3 32-32V448zM256 448c0-17.7-14.3-32-32-32H160c-17.7 0-32 14.3-32 32v16c0 17.7 14.3 32 32 32h64c17.7 0 32-14.3 32-32V448z"/>
</svg>
