<svg style="background-color:transparent;" style="background-color:transparent;"  xmlns="http://www.w3.org/2000/svg" viewBox="0 0 59.74 91.66"><path d="M59.56,6.7c-.6-.57-1.3-.99-1.42-1.03-.92-.46-2.94-.57-3.66-.57-2.49-3.66-6.68-6.15-11.18-4.66-3.24,1.03-5.9,2.67-8.39,7.29-3.14,5.84-6.05,10.69-6.15,10.88-4.91,4.05-9.72,15-9.91,15.46-3.34,7.14-8.64,23.86-11.61,32.98l-.72,1.03C1.65,75.18-.57,78.73,.13,80.41c.4,.99,1.49,.92,3.71-.31,.22,.5,.57,.99,1.07,1.11,1.4,.34,2.86-2.29,3.71-4.01,2.39-4.85,9.89-15.73,13.97-15.73,1.42,0,2.57,.27,4.68,.5,0,1.34,.12,3.63,.7,6.79,.02,.15,.07,.27,.17,.34l3.51,13.55c-.42,.27-.8,.69-1.02,1.34h1.37l.72,2.71c-.25,.34-.85,.95-1.82,.76-1.1-.23-1.84,0-2.24,.5-.95-.84-2.39-.46-2.96,1.07h2.67c0,.31,.07,.57,.22,.92,.7,1.53,1.89,.53,2.96,.65,1.2,.11,2.02-1.49,2.57-.76,.97,1.26,4.53,2.14,5.48,1.72,1.05-.38,3.96,.88,3.99-1.6,1.05,0,.82,0,2.67,.04-.5-1.6-1.94-1.95-2.91-1.15-.22-.46-.57-.76-.95-.92h1.05c-.37-1.49-1.72-1.76-2.54-.92-.75-.65-1.72-.31-2.69,0-.65,.19-1.42,.46-1.72,.27-.07-.04-.52-.38-1.37-2.29h.47c.9,.04,2.67-.19,3.21-.31,.22,0,.95,.46,1.4,.73,1,.65,1.17,.73,1.92,.73,1.1,0,2.74-.31,3.34-.61,.55-.31,1.84,.23,2.27-.73,.07-.15,.12-.38,.1-.65,.62,0,2.02,0,2.62,.04-.52-1.64-1.99-1.95-2.96-1.11-.55-.84-1.37-.5-1.57-.57-.3-.11-2.09-.69-3.21-.15-.8,.38-1.59-.08-2.02-.34-.2-.11-.65-1.07-1.12-2.06-1.72-3.63-1.92-3.47-6.68-14.96,0-.34,.1-2.1,.22-3.51,1.35-.5,2.59-1.3,3.76-2.4,6-5.73,10.44-8.7,13.4-22.48,.02-.15,.85-4.2,.3-13.74-.57-9.85,3.54-12.41,3.51-12.41,2.04-.61,3.81-1.37,5.38-2.4,.35-.23,.37-.92,.07-1.22h0l.02-.11Zm-9.99,1.03c0,1.07-.75,1.95-1.69,1.95s-1.69-.84-1.69-1.95,.75-1.91,1.69-1.91,1.69,.84,1.69,1.91Zm-29.97,27.1s4.93-11.26,9.64-15.08h.02c1.99-1.6,3.94-1.87,5.46,.61,4.68,7.75-6.23,20.5-11.68,26.99-.57,.69-4.23,5.42-14.12,17.56,3.91-11.99,7.85-24.05,10.64-30h0l.05-.08Zm11.01,27.14c-.22,1.41-.52,3.59-.72,5.04l-1.22,.23c-.37-2.37-.5-4.12-.5-5.23,1.42,.08,2.32,0,2.42,0h0l.02-.04Zm.32,4.35c2.79,6.64,5.7,13.78,6.1,15-.2,.15-.72,.38-2.27,.53-.25,0-.52,.08-.77,.23-1.67-4.81-2.77-9.47-3.34-13.78,.05-.27-.07,.57,.27-1.98h0Zm1.2-4.62c-.07,1.03-.12,2.1-.17,2.71-.22,.08-.5,.11-.77,.08,.15-.99,.27-1.95,.4-2.67,.1,0,.4-.08,.52-.11h.02Zm4.23-3.93c-4.71,4.54-9.54,2.33-13.78,2.25-4.58-.11-12.48,11.76-14.72,16.3-1.64,3.32-2.52,3.51-2.79,3.44-.4-.08-.57-.84-.57-.84-.07-.38-.37-.57-.6-.46-1.79,1.03-2.54,1.15-2.81,1.15h-.15c-.12-1.03,2.07-4.54,6.68-11.26,0,0,0,.08-.05,.11,0,0,9.52-9.08,13.13-14.5,3.44-5.19,15.97-17.44,15.89-26.91,.52-2.86,.2-5.42-1.15-7.67-1.27-2.06-2.94-2.71-4.71-2.02,1.42-2.44,3.44-5.99,4.91-8.74,2.32-4.31,4.73-5.8,7.85-6.83,1.64-.53,3.26-.53,4.83,0-2.86,.73-5.23,3.13-6.05,7.48-1.57,8.24-2.17,13.74-3.39,17.6-1.22,3.86-1.67,8.05-1.07,11.07,.6,3.05,.05,6.53,1.52,8.09,2.19,2.29,3.99-1.83,6.53-1.76,.5,0,.97-.23,1.35-.65-2.96,7.71-6.35,9.89-10.84,14.2h0v-.04ZM53.73,9.07c-.57-1.34-.17-2.33,.17-2.86,.1,.19,.2,.31,.4,.27,.27,0,2.72,.08,3.59,.53,.1,.04,.1,0,.32,.19-2.52,1.41-4.09,1.6-4.46,1.87h-.02Z" fill="#dc2626"/></svg>