<svg style="background-color:transparent;" style="background-color:transparent;"  xmlns="http://www.w3.org/2000/svg" viewBox="0 0 59 59.01"><path d="M23.17,13.86c-1.04-1.28-1.42-3.28-1.04-5.29,.78-2.92,2.72-5.11,5.69-7.11,1.04-.73,2.33-.73,3.49,0,2.85,2.01,4.92,4.38,5.69,7.11,.13,.55,.26,1.09,.13,1.82,0,1.28-.39,2.37-1.04,3.28-.13,0-.13,.18-.26,.36-1.68,2.19-3.88,3.28-6.21,3.28-2.46,0-4.66-1.28-6.47-3.47h0l.02,.02Zm18.5,6.02c-.91-2.19-2.33-4.01-4.14-5.11-.26-.18-.65-.36-1.04-.55-.13,.18-.26,.18-.26,.36h0c-3.75,4.74-9.7,4.74-13.46,0-.13-.18-.26-.36-.26-.36-2.2,.91-4.01,2.92-5.18,5.66,3.75,2.37,8.02,3.65,12.16,3.65s8.28-1.28,12.16-3.65h.02ZM15.41,27.91c3.49,3.1,8.67,5.11,13.97,5.11s10.61-1.82,13.97-5.11v-.73h0c-.13-1.09-.26-2.19-.52-3.28s-.52-2.19-.91-3.28c-3.88,2.55-8.15,3.83-12.55,3.65-4.27,0-8.67-1.09-12.55-3.65-.78,2.37-1.29,4.74-1.42,7.3h0Zm5.3,23.34c2.07,2.92,4.53,4.74,7.5,4.38h2.59c2.98,.18,5.43-1.46,7.5-4.38-2.85-1.09-5.82-1.82-8.8-1.64-2.98-.18-5.95,.36-8.8,1.64h0Zm22-11.68c.13-.36,.13-.91,.26-1.28-3.49,2.74-8.28,4.38-13.46,4.38s-9.96-1.64-13.59-4.56c.65,4.38,2.07,8.57,4.27,12.22,6.08-2.55,12.55-2.55,18.63,0,1.29-2.01,2.2-4.2,2.98-6.75h0c.26-1.28,.52-2.74,.91-4.01h0Zm-26.91-2.74c3.49,3.1,8.41,4.74,13.71,4.74s10.22-1.64,13.71-4.74c.39-2.55,.52-5.29,.39-7.84-3.62,3.1-8.67,4.93-14.1,4.93s-10.48-1.82-14.1-4.93c-.13,2.74,0,5.29,.39,7.84h0ZM43.74,4.38c.13-.91,.39-1.64,.78-2.19,.65-.91,1.29-1.64,2.07-2.19-.91,.18-1.81,.73-2.59,1.46s-1.42,1.82-1.68,3.1l.91-.18c.13-.18,.39-.18,.52,0h0Zm10.09,28.82c1.16-1.82,1.04-4.01-.26-5.47,0,.36-.13,.55-.26,.91h0c-.26,.55-.52,.91-.91,1.09,.78,.91,1.29,2.19,1.42,3.47h0ZM37.79,13.86l.39,.18,3.11-2.74c.13-.18,.26-.36,.26-.73h0l-.78-1.46h0l-3.11,.91c0,1.09-.26,2.19-.78,3.28,.39,.18,.65,.36,.91,.55h0Zm6.34,13.33c1.42-.18,2.72-.55,4.01-1.09,0,0,.13,0,.13-.18,.13,0,.26-.18,.26-.36l.65-1.82c.13-.36,.13-.73-.13-.91-.13-.18-.26-.36-.52-.36-1.68-.36-3.49,0-5.05,1.09,.26,1.09,.52,2.37,.65,3.65h0v-.02Zm6.34,12.59c0-.18,.13-.36,0-.55h0c0-.36-.26-.73-.52-.91-1.81-.91-4.01-.55-6.47,.73-.26,1.64-.65,3.1-1.16,4.74,2.59,.36,4.79,.18,6.34-1.28,.78-.73,1.29-1.64,1.81-2.74-.13,0,0,0,0,0h0ZM43.74,5.84c.13-.18,0-.36-.13-.55-.13,0-.13-.18-.26,0l-1.04,.36h-.26c-.39,.18-.65,.36-.78,.91l-.39,1.46,1.04,1.82c.65-1.28,1.29-2.74,1.81-4.01h0Zm5.43,20.08c-.13,.18-.26,.36-.39,.55,.78,.91,1.55,1.64,2.46,2.19,.52,.36,1.16,.18,1.55-.55h0c.13-.36,.26-.73,.13-1.09,0-.18-.13-.55-.26-.73-.78-1.46-1.68-2.55-2.85-3.1v.18c0,.36,0,.55-.13,.91l-.52,1.64h0Zm4.14,23.9c-.13-3.47-1.04-6.75-2.33-9.49-.39,1.28-1.16,2.37-1.94,3.1,.78,2.55,1.81,4.93,3.11,7.11,.13,.18,.39,.36,.52,.36,.26,0,.39-.18,.52-.36s.26-.36,.13-.73h-.01Zm.39,1.29l-.13,.18c-.26,.36-.52,.55-.78,.55,1.42,6.39,3.36,9.67,6.21,3.65-2.72,1.64-4.14-.91-5.3-4.38h0ZM14.37,2.19c.39,.55,.65,1.28,.78,2.19h.52l.91,.36c-.26-1.28-.91-2.55-1.68-3.28-.79-.73-1.69-1.28-2.6-1.46,.78,.55,1.55,1.28,2.07,2.19h0ZM6.48,29.74c-.39-.18-.78-.55-.91-1.09h0c-.13-.18-.26-.55-.26-.91-1.16,1.46-1.29,3.47-.26,5.47,.26-1.28,.78-2.55,1.42-3.47h0ZM17.48,10.58c0,.18,0,.55,.26,.73l3.11,2.74,.39-.18c.26-.18,.52-.36,.78-.36-.39-.91-.65-2.01-.78-3.28l-2.98-1.09h0l-.78,1.46h0v-.02Zm-7.12,14.96c0,.18,.13,.36,.26,.36,0,0,.13,0,.13,.18,1.29,.73,2.72,1.09,4.01,1.09,.13-1.28,.26-2.55,.52-3.83-1.55-1.09-3.36-1.46-5.05-1.09-.26,0-.39,.18-.52,.36-.13,.18-.13,.55-.13,.91l.78,2.01h0Zm-1.29,12.96c-.26,.18-.52,.55-.52,.91h0v.55c.39,1.09,.91,2.01,1.68,2.74,1.55,1.46,3.75,1.64,6.34,1.28-.52-1.46-.91-3.1-1.16-4.74-2.33-1.28-4.53-1.64-6.34-.73h0ZM15.54,5.29h-.26c-.13,0-.13,.36-.13,.55,.52,1.46,1.16,2.74,1.81,4.2l1.04-1.82-.52-1.46c-.13-.36-.39-.73-.78-.91h-.26l-.91-.55h.01ZM6.09,28.28c.26,.73,1.04,.91,1.55,.55,.91-.55,1.68-1.28,2.46-2.19-.13-.18-.26-.36-.26-.55l-.65-1.82c-.13-.18-.13-.55-.13-.91v-.18c-1.16,.73-2.2,1.82-2.85,3.1-.13,.18-.26,.55-.26,.73,0,.36,0,.91,.13,1.28h0Zm1.81,12.03c-1.42,2.74-2.2,6.02-2.46,9.49,0,.36,0,.55,.26,.73,.13,.18,.39,.36,.52,.36,.26,0,.39-.18,.52-.36,1.29-2.19,2.33-4.56,3.11-7.11-.78-.73-1.42-1.82-1.94-3.1h0Zm-2.72,10.94c-1.04,3.28-2.46,5.84-5.18,4.56,2.85,6.02,4.66,2.74,6.21-3.65-.26,0-.65-.18-.78-.55l-.26-.36h.01Z" fill="#dc2626"/></svg>