<svg style="background-color:transparent;" style="background-color:transparent;"  xmlns="http://www.w3.org/2000/svg" viewBox="0 0 71.14 71.17"><path d="M29.53,35.18v35.45c0,.24,.21,.44,.44,.44h14.84V33.7h-13.77c-.83,0-1.51,.65-1.51,1.48h0Zm3.2,2.55c0-.56,.47-1.04,1.04-1.04h6.81c.27,0,.53,.09,.74,.3,.21,.21,.33,.47,.33,.74v1.3c0,.27-.12,.56-.3,.74-.21,.21-.47,.3-.77,.3h-6.81c-.56,0-1.04-.44-1.04-1.04,0,0,0-1.3,0-1.3Zm0,5.24c0-.56,.47-1.04,1.04-1.04h6.81c.27,0,.53,.09,.74,.3,.21,.21,.33,.47,.33,.74v1.3c0,.27-.12,.53-.3,.74s-.44,.3-.74,.3h-6.81c-.56,0-1.04-.47-1.04-1.04v-1.3h-.03Zm0,5.24c0-.56,.47-1.04,1.04-1.04h6.81c.27,0,.53,.09,.74,.3s.33,.47,.33,.74v1.3c0,.27-.12,.53-.3,.74s-.44,.3-.74,.3h-6.81c-.56,0-1.04-.47-1.04-1.04v-1.3h-.03Zm0,5.24c0-.56,.47-1.04,1.04-1.04h6.81c.27,0,.53,.09,.74,.3s.33,.47,.33,.74v1.3c0,.27-.12,.53-.3,.74-.18,.18-.44,.3-.74,.3h-6.81c-.56,0-1.04-.47-1.04-1.04v-1.3h-.03Zm0,5.24c0-.56,.47-1.04,1.04-1.04h6.81c.27,0,.53,.09,.74,.3s.33,.47,.33,.74v1.3c0,.27-.12,.53-.3,.74-.18,.18-.44,.3-.74,.3h-6.81c-.56,0-1.04-.47-1.04-1.04v-1.3h-.03Zm0,5.24c0-.56,.47-1.04,1.04-1.04h6.81c.27,0,.53,.09,.74,.3,.21,.18,.33,.47,.33,.74v1.3c0,.27-.12,.53-.3,.74-.18,.18-.44,.3-.74,.3h-6.81c-.56,0-1.04-.47-1.04-1.04v-1.3h-.03Zm-13.18,3.73c-.18-.27-.5-.41-.83-.41h-.41V13.68h.39c.56,0,1.04-.47,1.04-1.04V6.49c0-.27-.12-.53-.3-.74-.21-.18-.44-.3-.74-.3H7.2c-.56,0-1.04,.47-1.04,1.04v6.16c0,.56,.47,1.04,1.04,1.04h.36v53.57h-.41c-.33,0-.62,.15-.83,.41l-2.1,2.72s-.12,.33-.06,.47c.09,.15,.24,.24,.41,.24H21.24c.18,0,.33-.09,.39-.24s.06-.33-.06-.47l-2.07-2.72h.06Zm-3.38-53.96l-3.23,3.2-3.23-3.2h6.46Zm-5.57,43.74l2.34-2.34,2.34,2.34h-4.68Zm4.68,1.78l-2.34,2.34-2.34-2.34h4.68Zm-4.68-8.91h4.68l-2.34,2.34-2.34-2.34Zm0-1.78l2.34-2.34,2.34,2.34h-4.68Zm0-7.14h4.68l-2.34,2.34-2.34-2.34Zm0-1.78l2.34-2.34,2.34,2.34h-4.68Zm0-7.14h4.68l-2.34,2.37-2.34-2.37Zm0-1.78l2.34-2.31,2.34,2.31h-4.68Zm0-7.14h4.68l-2.34,2.34-2.34-2.34Zm0-1.78l2.34-2.34,2.34,2.34h-4.68Zm-1.24-5.86l2.34,2.28-2.34,2.34v-4.62Zm0,8.91l2.34,2.34-2.34,2.31v-4.65Zm0,8.91l2.34,2.34-2.34,2.34v-4.68Zm0,8.91l2.34,2.34-2.34,2.34v-4.68Zm0,8.91l2.34,2.34-2.34,2.34v-4.68Zm0,8.91l2.34,2.31-2.34,2.28v-4.59Zm.36,6.81l3.23-3.2,3.23,3.2h-6.46Zm6.81-2.13l-2.34-2.37,2.34-2.34v4.71Zm0-8.91l-2.34-2.34,2.34-2.34v4.68Zm0-8.91l-2.34-2.4,2.34-2.34v4.74Zm0-8.91l-2.34-2.34,2.34-2.34v4.68Zm0-8.91l-2.34-2.34,2.34-2.34v4.68Zm0-8.91l-2.34-2.43,2.34-2.28v4.71ZM4.42,11.52H1.16c-.33,0-.62-.12-.83-.36-.21-.21-.36-.53-.33-.83v-1.27c0-.33,.09-.65,.33-.86s.53-.36,.86-.36h3.23v3.67Zm40.75-2.46v1.3c0,.65-.53,1.18-1.18,1.18H21.5v-3.7h22.45c.65,0,1.18,.53,1.18,1.18v.06l.03-.03ZM17.48,3.76H8.5V1.04c0-.27,.12-.53,.3-.74s.44-.3,.74-.3h6.9c.56,0,1.04,.47,1.04,1.04V3.76Zm21.47,9.51v10.25h3.02c.21,0,.39,.09,.53,.21s.21,.33,.21,.53v4.03c0,.21-.09,.38-.21,.53s-.33,.21-.53,.21h-7.88c-.41,0-.77-.33-.77-.77v-4.03c0-.41,.33-.77,.77-.77h3.02V13.21h1.81l.03,.06Zm30.71,10.45h-21.59c-.83,0-1.48,.65-1.51,1.48v45.96h3.14v-11.28c0-1.07,.86-1.92,1.92-1.92h14.39c.53,0,1.04,.18,1.39,.53,.39,.36,.59,.86,.59,1.39v11.28h2.69c.24,0,.44-.21,.44-.44V25.11c0-.8-.65-1.45-1.45-1.48h0l-.03,.09Zm-13.09,29.05c0,.56-.47,1.01-1.04,1.01h-3.46c-.56,0-1.04-.47-1.04-1.04v-3.44c0-.56,.47-1.04,1.04-1.04h3.46c.56,0,1.04,.47,1.04,1.04v3.46Zm0-10.01c0,.56-.47,1.04-1.04,1.04h-3.46c-.56,0-1.04-.47-1.04-1.04v-3.46c0-.56,.47-1.04,1.04-1.04h3.46c.56,0,1.04,.47,1.04,1.04v3.46Zm0-10.01h0c0,.56-.47,1.04-1.04,1.04h-3.46c-.56,0-1.04-.44-1.04-1.04v-3.46c0-.56,.47-1.04,1.04-1.04h3.46c.56,0,1.04,.47,1.04,1.04v3.46Zm10.04,20.02c0,.56-.47,1.01-1.04,1.01h-3.46c-.56,0-1.04-.47-1.04-1.04v-3.44c0-.56,.47-1.04,1.04-1.04h3.46c.56,0,1.01,.47,1.04,1.04v3.46Zm0-10.01c0,.56-.47,1.04-1.04,1.04h-3.44c-.56,0-1.04-.47-1.04-1.04v-3.46c0-.56,.47-1.04,1.04-1.04h3.46c.56,0,1.01,.47,1.04,1.04v3.46h-.03Zm0-10.01h0c0,.56-.47,1.04-1.04,1.04h-3.44c-.56,0-1.04-.44-1.04-1.04v-3.46c0-.56,.47-1.04,1.04-1.04h3.46c.56,0,1.04,.47,1.04,1.04v3.46h-.03Zm-15.01,26.98h6.34v11.4h-6.49v-11.28s.09-.12,.15-.12h0Zm14.57,.12v11.28h-6.49v-11.4h6.34s.15,.06,.15,.12h0Zm.77-37.94h-16.26v-3.7c0-.83,.68-1.51,1.51-1.51h13.24c.41,0,.8,.15,1.07,.44s.44,.68,.44,1.07v3.7Z" fill="#2563eb" fill-rule="evenodd"/></svg>