<svg style="background-color:transparent;" style="background-color:transparent;"  xmlns="http://www.w3.org/2000/svg" viewBox="0 0 71.76 71.79"><path d="M65.51,66.85V24.52h-15.97V0H22.18V24.52H6.04v42.37H0v4.9H71.76v-4.9h-6.22l-.03-.03Zm-7.27-37.64h4.72v6.34h-4.72v-6.34Zm0,9.42h4.72v6.34h-4.72v-6.34Zm0,9.42h4.72v6.34h-4.72v-6.34Zm0,9.42h4.72v6.34h-4.72v-6.34Zm-7.59-28.22h4.72v6.34h-4.72v-6.34Zm0,9.42h4.72v6.34h-4.72v-6.34Zm0,9.42h4.72v6.34h-4.72v-6.34Zm0,9.42h4.72v6.34h-4.72v-6.34Zm-4.81-15.7v6.34h-4.72v-6.34s4.72,0,4.72,0Zm-4.72-3.05v-6.34h4.72v6.34h-4.72Zm1.17,14.11v13.69h-5.77v-13.69h5.77Zm-4.04-23.53h-4.72v-6.34h4.72v6.34Zm0,3.05v6.34h-4.72v-6.34h4.72Zm0,9.42v6.34h-4.72v-6.34s4.72,0,4.72,0Zm-2.99,11.03v13.69h-5.77v-13.69h5.77Zm10.58-23.53h-4.72v-6.34h4.72v6.34ZM30.38,8.82h3.68V4.07h3.68v4.69h3.68v4.93h-3.68v5.14h-3.68v-5.14h-3.68v-4.87Zm-4.45,14.14h4.72v6.34h-4.72v-6.34Zm0,9.42h4.72v6.34h-4.72v-6.34Zm0,9.42h4.72v6.34h-4.72v-6.34Zm-9.75-12.56h4.72v6.34h-4.72v-6.34Zm0,9.42h4.72v6.34h-4.72v-6.34Zm0,9.42h4.72v6.34h-4.72v-6.34Zm0,9.42h4.72v6.34h-4.72v-6.34Zm-7.59-28.22h4.72v6.34h-4.72v-6.34Zm0,9.42h4.72v6.34h-4.72v-6.34Zm0,9.42h4.72v6.34h-4.72v-6.34Zm0,9.42h4.72v6.34h-4.72v-6.34Z" fill="#2563eb"/></svg>