<svg style="background-color:transparent;" style="background-color:transparent;"  xmlns="http://www.w3.org/2000/svg" viewBox="0 0 59.78 59.8"><path d="M15.41,25.03l.2-.3c.15-.22,.65-.95,.6-1.2-.12-.12-.3-.2-.47-.27-.12,.57-.27,1.2-.32,1.77h0Z" fill="#dc2626"/><path d="M33.12,30.33c-.17-.92-.52-1.82-.75-2.71-.9,0-1.82-.22-2.74-.3,.77,.65,1.54,1.32,2.32,1.99,.3,.25,.87,.82,1.17,1.02h0Z" fill="#dc2626"/><path d="M41.18,35.49c-.27-.3-.8-.5-1.17-.7,.12,.32,.3,.62,.45,.92l.9,1.72c.42,.82,.77,1.69,1.24,2.49,.05-.15,.1-.3,.15-.45,.1-.27,.17-.5,.37-.75-.32-.62-.72-1.2-1.07-1.82-.22-.4-.57-1.15-.87-1.44h0v.02Z" fill="#dc2626"/><path d="M17.8,16.04c-.2-.85-.32-1.69-.42-2.54v-.25h0v-.05c.17,.12,.87,1.99,1.02,2.32,.15-.12,.32-.27,.47-.4-.25-.8-1.1-3.09-1.84-3.46-.02,0-.07-.02-.1-.05-.27,.75,.1,4.41,.37,5.15,.15-.25,.32-.5,.5-.75h0v.02Z" fill="#dc2626"/><path d="M30.03,51.8c.12,.2,.27,.4,.42,.6,.15,.2,.3,.37,.47,.55s.32,.35,.52,.52c.45,.42,.92,.8,1.44,1.1,.1,.05,.17,.1,.27,.12-2.22-1.94-3.46-4.13-4.28-6.97-.27-.97-.42-1.94-.57-2.94-.05-.4-.07-.82-.15-1.22,0-.07-.02-.12-.07-.17-.12,.1-.25,.17-.37,.27,.07,2.39,.75,5.43,1.94,7.52,.12,.2,.25,.42,.37,.62h0Z" fill="#dc2626"/><path d="M44.79,28.52s.07-.15,.1-.25c.1-.42,.32-1.17,.05-1.57-.32-.5-.75-.95-1.12-1.42-.7-.87-1.34-1.74-2.02-2.64-.22-.32-.47-.62-.7-.95-.17,0-.35,.02-.55,.02-.1-.05-.2-.12-.3-.15,1.27,1.79,2.44,3.69,3.64,5.53,.15,.22,.75,1.34,.9,1.39h0v.02Z" fill="#dc2626"/><path d="M10.38,32.13c.47-.4,.87-.85,1.24-1.32,.2-.25,.37-.5,.55-.75,.15-.25,.27-.57,.47-.77,.07-.07,.15-.1,.22-.15s.15-.15,.17-.22c.22-.52,.9-3.49,.92-4.03v-.07h-.05c-.17,.05-.32,.12-.47,.2-.6,2.99-1.39,5.45-4.03,7.22-.12,.07-.25,.17-.37,.25-.12,.07-.25,.15-.37,.22-.12,.07-.25,.15-.4,.2-.12,.07-.27,.12-.4,.2-.12,.05-.27,.12-.4,.17-.15,.05-.27,.1-.42,.15-.15,.05-.27,.1-.42,.15s-.27,.07-.42,.12c-.37,.1-.75,.17-1.12,.27-.12,.02-.32,.07-.37,.2,.02,.1,.07,.15,.15,.2,1.89,.12,4.18-.97,5.58-2.19h0l-.05-.05Z" fill="#dc2626"/><path d="M28.46,21.14c-.52,.05-1.07,.1-1.57,.27-.07,.62-.2,1.24-.37,1.87,.17,.37,.8,1.82,1.1,2.02h.07c.8-.82,1.17-1.87,1.49-2.94,.12-.42,.25-.82,.45-1.22-.37,0-.8-.05-1.17,0h0Z" fill="#dc2626"/><path d="M53.56,33.79c-2.22-1.2-4.36-2.42-6.32-4.01-.42-.35-.85-.7-1.22-1.1-.25-.25-.52-.65-.82-.85,0,.25-.05,.45-.15,.7,2.76,2.89,7.17,6.08,11.16,6.77h.07c-.1-.25-2.34-1.29-2.71-1.49h0v-.02Z" fill="#dc2626"/><path d="M15.31,21.77c.55,.07,1.12,.52,1.64,.75,.1-.62,0-1.27-.37-1.79-.32-.45-.87-.72-1.39-.8-.17-.02-.35,0-.52,0-.6,.12-1.1,.4-1.44,.92-.25,.37-.35,.82-.27,1.27v.22s0,.05,.02,.07,0,.05,.02,.07c0,0,0,.05,.02,.05s0,.05,.02,.05l.02,.05,.05,.05s.02,.02,.05,.05c0,0,.02,.02,.05,.05,0,0,.02,.02,.05,.05,0,0,.02,.02,.05,.05,0,0,.02,.02,.05,.05,0,0,.02,.02,.05,.05,0,0,.02,.02,.05,.05,.22,.15,.45,.2,.72,.25,.07-.47,.07-.92,.42-1.29,.2-.15,.35-.22,.6-.17h0l.1-.05Z" fill="#dc2626"/><path d="M2.74,43.21v.07c.07,.05,.1,.07,.17,.07s.15,0,.22-.02c.77-.2,1.49-.57,2.19-.95,.62-.35,1.27-.7,1.84-1.12,1.97-1.39,3.76-3.49,5.05-5.53-.27-.15-.27-.22-.4-.47h0c-1.59,2.19-3.88,4.61-6.08,6.15-.62,.45-1.32,.85-2.02,1.22-.17,.1-.97,.45-1.02,.6h0l.02-.02Z" fill="#dc2626"/><path d="M20.97,6.63s-.07,0-.1-.02c-.37,.52-.52,6.72-.62,7.72,.2-.1,.4-.2,.6-.27,.05-1.29,.15-2.61,.22-3.91,.05-.72,.07-1.44,.1-2.17,.25,.32,.47,.67,.72,1.02,.85,1.34,1.74,2.71,2.42,4.16l.45-.57c-.57-1.02-2.96-5.63-3.78-5.9h0v-.05Z" fill="#dc2626"/><path d="M55.58,49.46c-.67-.2-1.34-.42-1.97-.75-.82-.42-1.62-.97-2.37-1.52-.5-.35-.97-.7-1.44-1.07-.47-.37-.95-.75-1.39-1.15s-.9-.8-1.32-1.22-.85-.85-1.27-1.27c-.6-.65-1.2-1.34-1.74-2.02-.3-.37-.62-.87-1.02-1.15-.07,.17-.15,.35-.22,.52,.82,1.12,1.72,2.14,2.69,3.16,2.94,3.11,7.27,6.75,11.6,7.45,.75,.12,1.44,.12,2.19-.07,.15-.05,.32-.1,.47-.17-1.39-.27-2.81-.35-4.18-.72h0l-.02-.02Z" fill="#dc2626"/><path d="M18.65,25.03c.52,.4,1.07,.82,1.67,1.12,.22,.1,.57,.25,.8,.12h.02c-.12-.3-.27-.6-.42-.87-.7-.32-1.32-.77-1.94-1.2-.77-.5-1.54-1-2.34-1.47-.32-.17-.7-.47-1.05-.6-.15,.05-.3,.12-.45,.2-.55,2.51-.87,5.08-1.49,7.59-.25,1.02-.52,2.04-.82,3.06-.2,.62-.52,1.52-.65,2.12,.22,.27,.42,.45,.75,.6,.7-2.19,1.22-4.46,1.67-6.72,.4-1.99,.77-4.01,1-6.03,.47,.15,.87,.4,1.27,.65,.7,.45,1.37,.92,2.02,1.42h-.02Z" fill="#dc2626"/><path d="M46.91,55.13c1.2,1.1,2.42,2.14,3.81,2.99,1.27,.77,2.76,1.39,4.23,1.59,.7,.1,1.49,.12,2.19,0l.45-.05h-.02c-.4-.12-.82-.1-1.24-.17-.8-.1-1.59-.27-2.34-.55-4.38-1.52-9.01-6.37-11.88-9.96-.7-.87-1.32-1.77-1.97-2.69-.3-.4-.57-.92-.92-1.27-.17,.27-.3,.6-.42,.9,2.49,3.24,5.1,6.42,8.12,9.19h0v.02Z" fill="#dc2626"/><path d="M28.04,41.24l-.47,1.57c-.05,.15-.12,.3-.17,.45-.02,.07,0,.12,0,.2,.15,.05,.25-.02,.37-.1,.02,0,.05-.02,.07-.05l.55-.27c.27-1.24,.62-2.44,.97-3.66,.37-1.37,.77-2.74,1.17-4.08l.72-2.39c.12-.45,.3-.9,.4-1.37-.3-.3-.65-.55-.97-.8l-1.39-1.1c-1.52-1.17-3.01-2.37-4.48-3.59-.7-.57-1.37-1.17-2.04-1.77-.55-.47-1.37-1.44-1.99-1.69-.05,.32,.07,.55,.25,.8,.52,.77,1.34,1.52,2.04,2.17,2.44,2.29,5.03,4.36,7.97,6-.42,1.52-.9,3.01-1.37,4.51l-1.59,5.15h0l-.02,.02Z" fill="#dc2626"/><path d="M28.01,25.18s-.17,.12-.27,.17c.8,.4,1.74,.45,2.61,.55,.42,.05,.85,.12,1.27,.15,.37,.05,.77,.07,1.15,.17,.6-1.29,.82-2.66,.82-4.08-1.1-.62-2.47-.82-3.71-.95-.22,1.44-.65,3.09-1.89,3.98h.02Z" fill="#dc2626"/><path d="M35.66,36.58l1.94,6.1c.3,.92,.55,1.87,.85,2.79,.02,.12,.07,.22,.17,.3h.02c.07-.15,.12-.32,.22-.47,.15-.32,.32-.57,.52-.85-.47-1.42-1.07-2.81-1.59-4.21-1.22-3.26-2.39-6.55-3.46-9.89-.25-.8-.52-1.57-.77-2.34-.15-.47-.32-.92-.42-1.39-.6-.05-1.22-.15-1.82-.22-1.37-.17-2.94-.27-4.26-.67-.4-.12-.72-.37-1.02-.47,.15,.52,.47,.9,.95,1.17,.12,.07,.25,.12,.37,.17,.12,.05,.25,.07,.4,.1,.82,.17,1.72,.2,2.56,.3,.77,.1,1.57,.25,2.37,.3,.22,.75,.47,1.49,.7,2.22l2.29,7.05h0l-.02,.02Z" fill="#dc2626"/><path d="M8.29,20.55c1.24,.5,2.56,.97,3.86,1.29-.55,1.07-1.15,2.37-2.09,3.14-.52,.42-1.12,.75-1.69,1.1-1.02,.6-2.32,1.32-2.61,2.56-.05,.17-.05,.32-.05,.52,1.39-1.94,4.26-3.14,6.45-3.96,.62-.25,1.27-.42,1.89-.7l.2-1.02c-.55-.12-1-.27-1.32-.77,0,0-.02-.05-.05-.07,0,0-.02-.05-.02-.07s0-.05-.02-.07c0-.02,0-.05-.02-.07,0-.02,0-.05-.02-.07v-.82c.15-.6,.62-1.15,1.15-1.47,.55-.32,1.15-.37,1.74-.22,.52,.15,.9,.42,1.22,.85-.25-.62-.65-1.12-1.27-1.42-.02,0-.05-.02-.1-.05-.02,0-.07-.02-.1-.02s-.07,0-.1-.02c-.02,0-.07,0-.1-.02h-.9s-.07,0-.1,.02-.07,0-.1,.02c-.02,0-.07,0-.1,.02-1.05,.42-1.17,1.1-1.64,1.99-.75-.82-1.52-1.64-2.34-2.42-1.32-1.24-2.74-2.44-3.81-3.93-.65-.87-1.24-1.77-1.72-2.76-.12-.25-.72-1.84-.8-1.89,.12,.52,.22,1.05,.42,1.57,.8,2.22,2.39,4.08,4.06,5.7,.55,.52,1.15,1.05,1.69,1.57,.5,.47,.97,.95,1.42,1.44,.35,.37,.67,.77,1.05,1.1-1.27-.3-2.54-.72-3.76-1.22-.92-.37-1.84-.8-2.81-1.1-1.12-.35-2.24-.55-3.41-.6-.8-.05-1.57-.05-2.37,.07,1.94,.12,3.71,.17,5.6,.75,.92,.27,1.79,.67,2.69,1.05h0v.02Z" fill="#dc2626"/><path d="M21.76,25.18c-.42-.6-1.37-1.97-1.24-2.69,0-.1,.05-.15,.15-.22,.15-.05,.25,0,.4,.05,.45,.25,.87,.77,1.24,1.12,.3,.27,1.97,1.87,2.24,1.89,.1-.1,.07-.25,.07-.37,0-.35-.27-.7-.52-.95h0c-1.15-.92-2.34-1.39-2.54-3.01-.12-.95,.25-1.92,.82-2.64,.3-.37,.67-.7,1.07-.97-.92,.97-1.74,2.07-1.74,3.49,0,.67,.27,1.24,.75,1.69,.6,.6,1.89,1.07,2.29,1.62,.17,.22,.22,.5,.22,.77v.25c1.07-.95,1.29-1.89,1.54-3.24,.07-.42,.17-.87,.2-1.32v-.05c-.65,.87-1.29,1.89-2.44,2.07-.52,.07-1-.05-1.47-.3,.85,.15,1.49,.07,2.22-.42,.55-.37,.92-.9,1.37-1.37,.15-.17,.32-.3,.45-.5v-.12c-.15-.17-.55-.17-.77-.2-.8,0-1.67,.15-2.29-.5-.2-.2-.35-.52-.32-.82,0-.4,.25-.75,.52-1,.72-.62,1.82-.9,2.66-1.37-1.15-1.15-2.49-1.89-4.13-1.89h-.55c-.37,.05-.77,.1-1.12,.22-1.12,.37-2.22,1.24-2.94,2.14s-.95,1.84-.95,2.99c.3,.45,.6,.92,.82,1.42,.9,1.92,.95,2.79,2.86,3.98-.85-1.49-.97-3.34-.52-4.98,.37-1.37,1.32-2.94,2.61-3.64,.05-.02,.05,0,.1,0h0c-.12,.12-.27,.2-.4,.3-.17,.15-.37,.32-.52,.5-1.15,1.22-1.67,3.04-1.72,4.68,0,1.1,.25,2.14,.75,3.14,.17,.35,.42,.7,.55,1.07,.22-.25,.27-.5,.3-.82h-.02Z" fill="#dc2626"/><path d="M33.34,26.22s-.05,.07,0,.12c.1,.05,.15,.02,.2,.15,.1,.25,.17,.52,.25,.8l.5,1.54c.27,.85,.6,1.67,.82,2.54,1.87-1.89,2.61-4.03,2.64-6.65,.07,.02,.1,.05,.15,.12,.35,.45,.27,1.89,.17,2.44-.32,1.69-1.24,3.01-2.64,3.96-.1,.07-.2,.12-.32,.17,.05,.17,.1,.35,.12,.52,.8,.37,1.57,.85,2.37,1.27l2.81,1.44c.67,.32,1.34,.65,1.99,1.02,1.54,.82,3.06,1.72,4.63,2.51,.1,.05,.2,.1,.32,.07,.1-.05,.15-.1,.2-.2,.25-.62-.57-2.42-.87-3.06-2.17-4.56-8.22-10.68-12.85-12.75,.35,1.05,.2,2.24-.17,3.26-.1,.25-.22,.5-.32,.75h0v-.05Zm10.33,7.92c.67-.67,.82-1.59,.82-2.51,.2,.15,.27,.45,.32,.67,.1,.57,0,1.22-.35,1.69-.5,.67-1.27,.9-2.04,1.02h-.42c.62-.17,1.2-.4,1.67-.87h0Zm-3.83-1.69c1.2-1.05,1.72-2.64,1.82-4.21,.2,.17,.25,.4,.3,.65,.15,1.02-.2,2.12-.82,2.94-.65,.87-1.49,1.32-2.56,1.47h-.25c.52-.12,1.12-.47,1.52-.82h0v-.02Z" fill="#dc2626"/><path d="M35.06,31.43s.02,0,.05-.02h0s-.02,.02-.05,.05h0v-.02Z" fill="#dc2626"/><path d="M29.66,6.78c-.77,.95-1.52,1.94-2.24,2.94-1.07,1.47-2.12,2.94-3.11,4.43,.2,.1,.4,.2,.6,.32,1-1.42,2.04-2.81,3.11-4.18,2.37-3.06,4.68-5.95,8.02-7.99,.87-.52,1.74-1,2.71-1.27-.4,.42-.77,.85-1.12,1.29-.37,.05-.75,.35-1.05,.55-.92,.6-1.74,1.32-2.54,2.07-2.24,2.04-4.23,4.33-6.15,6.7-.47,.57-1.42,1.57-1.69,2.22,1.07-.42,2.04-1.2,2.96-1.87,.75-.55,1.47-1.1,2.19-1.67s1.44-1.2,2.17-1.79c1.37-1.12,2.76-2.22,4.16-3.29-.5,1.24-1.12,2.34-1.99,3.36-.22,.25-.45,.52-.7,.75-.27,.25-.65,.4-.97,.6-.45,.25-.87,.47-1.29,.72-1.49,.85-2.94,1.72-4.36,2.64-.82,.52-1.67,1.02-2.42,1.64,.07,.07,.15,.15,.22,.22,.45-.3,1.12-.87,1.59-1.05,.57-.22,1.57-.07,2.17,.05,.17,.02,.35,.07,.5,.1,1.29-.55,2.56-1.15,3.86-1.67,.57-.22,1.27-.35,1.82-.65,.32-.17,.6-.45,.87-.67,1.84-1.59,3.61-4.11,4.53-6.37,.4-1.02,1.24-3.21,.82-4.23-.1-.25-.32-.45-.57-.55-.37-.15-.9-.15-1.29-.1-2.74,.25-5.73,1.89-7.79,3.64-1.1,.92-2.07,1.99-2.96,3.06h0l-.05,.05Zm6.6-.72c-.85,.65-1.69,1.32-2.51,1.99-1.54,1.24-3.09,2.49-4.66,3.69-.6,.45-1.2,.95-1.84,1.34h-.07c.12-.2,.32-.37,.5-.57,.35-.42,.7-.87,1.07-1.29,2.64-3.14,5.45-6.35,8.89-8.62h0c.2,.27,.15,1.92,.12,2.32-.45,.4-.97,.77-1.47,1.15h-.02Zm-5.3,7.87c-.15,.07-.32,.15-.47,.2-.72-.25-1.49-.3-2.27-.27,.27-.2,.55-.37,.82-.55,.97,.02,1.94,0,2.91,.15-.32,.15-.67,.3-1,.47h0Zm3.98-1.72c-.4,.17-2.47,1.07-2.74,1.02-.92-.1-1.84-.15-2.79-.17,.52-.35,1.74-1.15,2.29-1.32,.47-.17,1.07-.22,1.57-.25,.22,0,.42-.02,.65-.02s.42,0,.65,.02c.22,0,.42,.05,.65,.07,.22,.05,.42,.07,.62,.15-.3,.17-.6,.35-.9,.5h0Zm1.12-.7c-.37-.1-.75-.2-1.15-.25-.1,0-.22-.02-.32-.05h-.97c-.1,0-.22,0-.32,.02s-.22,.02-.32,.05c-.1,0-.22,.02-.32,.05-.1,0-.22,.05-.32,.07,.95-.65,1.99-1.12,2.96-1.77,.17,.1,.8,0,1.05,0s.5,.05,.72,.07c.25,.05,.47,.1,.72,.15-.5,.6-1.02,1.15-1.64,1.64h-.07Zm1.79-1.82c-.25-.07-.5-.12-.75-.2-.57-.12-1.12-.1-1.72-.05,.3-.32,.6-.67,.9-1.05,.4-.07,.77-.15,1.17-.2,.5-.05,1.02-.02,1.52,0-.35,.52-.72,1-1.12,1.47h0v.02Zm1.27-1.67c-.17-.02-.35-.02-.52-.05-.67-.1-1.39,.05-2.07,.15,.3-.52,.65-1.02,.92-1.54,.1,0,.2,0,.27,.02,.1,0,.2,.02,.27,.05,.1,0,.17,.05,.27,.05s.17,.05,.27,.07,.17,.05,.27,.07,.17,.07,.27,.1,.17,.07,.27,.12,.17,.07,.25,.12c-.17,.27-.35,.55-.55,.82h.05Zm.8-1.17l-.1,.12s-.22-.1-.32-.15c-.57-.32-1.29-.45-1.94-.52,.22-.57,.37-1.12,.5-1.74,.07-.05,.17-.05,.27-.05,.9-.02,1.72,.07,2.51,.5-.25,.65-.57,1.24-.92,1.82h0v.02Zm1.02-1.99c-.17-.1-.32-.2-.5-.27-.72-.3-1.57-.27-2.34-.27,0-.37-.02-.75-.07-1.1,.52-.07,1-.27,1.49-.47,.3,0,.7,.22,1,.3,.35,.1,.7,.15,1.05,.2-.17,.55-.37,1.1-.62,1.62h0Zm.82-3.96s.05,0,.07,.05c.22,.37-.07,1.64-.17,2.09-.45-.07-.9-.15-1.32-.27-.17-.07-.32-.12-.5-.22,.67-.52,1.2-1.2,1.92-1.64h0Zm-1.05-.22c.32-.02,.7,.02,1.02,.07-.92,.42-1.44,1.37-2.32,1.82-.2,.1-.45,.17-.67,.22l-.77,.2c-.05-.2-.07-.37-.1-.57,.4-.42,.85-.9,1.15-1.39,.55-.17,1.1-.3,1.69-.35h0Z" fill="#dc2626"/><path d="M48.7,10.44c-1.1-.12-2.24-.22-3.34-.15-2.17,.1-4.26,.55-6.35,1.15-1.12,.32-2.22,.67-3.31,1.1-1.74,.67-3.44,1.44-5.13,2.17l-3.21,1.37c-.67,.3-1.37,.57-2.04,.92-.45,.22-1,.5-1.32,.87-.15,.17-.27,.4-.25,.65s.17,.47,.37,.62c.22,.17,.55,.27,.82,.32,.52,.1,1.07,.15,1.62,.2,.75,.07,1.49,.17,2.22,.27,.92,.12,1.82,.3,2.71,.45,.82,.15,1.67,.25,2.49,.42,7.05,1.05,11.88,.95,17.78-3.46,1.02-.75,3.04-2.51,3.24-3.76,.05-.35-.05-.67-.25-.95-.92-1.22-4.58-1.99-6.05-2.17h0v-.02Zm5.6,2.49s.12,.12,.12,.25c0,0,0,.05-.02,.05,0,0-.52-.15-.77-.17-.57-.05-1.17,.12-1.72,.25-1.22,.35-2.14,.25-3.39,.17,.2-.37,.35-.67,.42-1.12,.72-.22,1.42-.5,2.12-.75,.87,.12,2.61,.7,3.24,1.29h0v.02Zm-22.39,7.07c-1.17-.22-2.39-.4-3.59-.57-.87-.12-3.34-.3-3.93-.62-.07-.1-.12-.2-.17-.32,.8-.25,2.22-.2,3.09-.2h.52c1.97,0,3.93,.25,5.63,1.29,.4,.25,.8,.52,1.12,.85-.9-.12-1.77-.27-2.64-.42h-.02Zm9.81,.85c-.87-1-2.89-1.57-4.16-1.89-1.74-.45-3.56-.82-5.35-.97-.32-.02-.67-.07-1-.02-.17,.02-.3,.1-.45,.17,.57,.07,1.17,.07,1.77,.15,.95,.12,1.89,.27,2.81,.45,.95,.17,1.87,.4,2.79,.67,.7,.2,1.42,.4,2.09,.7,.45,.2,.82,.45,1.22,.75-.67,.05-1.34,0-2.02,0-.95,0-1.92-.07-2.86-.17-.55-.05-1.1-.15-1.64-.2-.12-.15-.27-.3-.42-.42s-.3-.27-.47-.37c-.87-.65-1.97-1.12-3.01-1.37-1.77-.42-5-.37-6.82-.1h.02s.02-.05,.05-.05c.47-.3,1.12-.42,1.64-.6,.82-.3,1.64-.6,2.47-.92,.97-.37,1.92-.82,2.86-1.22,4.08-1.67,8.32-3.31,12.7-3.96,1.05-.15,2.12-.22,3.16-.27,1.1-.05,2.32,.05,3.36,.3-.57,.22-1.22,.57-1.84,.57-.37,0-.75-.05-1.12-.05-1.2,.05-2.42,.27-3.59,.55-1.34,.32-2.66,.7-3.98,1.1-1.07,.32-9.76,3.06-9.96,3.34-.02,.02,0,.07,0,.1,0,0,.02,.05,.05,.05,.1,.05,1.87-.52,2.09-.6,1.2-.35,2.37-.8,3.54-1.17,2.37-.8,4.78-1.54,7.2-2.17,1.44-.37,2.96-.72,4.46-.85,.37-.02,.9-.1,1.24,0,0,.02,.02,.05,.02,.07,.05,.4-.72,1.37-.95,1.69-3.54,.85-7.15,1.39-10.73,2.02-1.07,.2-2.14,.4-3.19,.6-.87,.17-1.77,.27-2.64,.47-.22,.05-.57,.1-.72,.27v.05c.35,.15,4.53,.25,5.3,.27,1.44,.1,2.91,.2,4.36,.32,.97,.1,2.09,.15,2.99,.55,.8,.35,1.22,.87,1.54,1.67-.92,.22-1.89,.4-2.84,.45h0l.02,.05Zm5.55-6.27s-.05,.07-.07,.1c-.4,.42-1.1,1.02-1.59,1.32-.9,.55-4.56,1.82-5.63,1.92-.4,.02-.82-.02-1.24-.07-.57-.05-1.15-.1-1.72-.12-1.64-.1-3.31-.17-4.96-.2h-.62c1.82-.25,3.61-.67,5.4-1,3.46-.6,6.97-1.17,10.38-1.94h.05v0Zm-2.34,5.75l-.15-.32c-.12-.27-.27-.52-.47-.75-.85-1.02-2.12-1.17-3.34-1.29,.9-.22,1.77-.47,2.64-.77,.22,.25,.37,.55,.6,.77,.75,.8,1.82,1.22,2.81,1.59-.7,.3-1.37,.52-2.09,.77h0Zm2.59-1s-.17,.07-.3,.05c-.27-.07-.57-.2-.82-.32-1.02-.45-1.92-1.02-2.51-1.99,.52-.25,1.12-.4,1.64-.7,.8,.4,1.69,.55,2.49,.9,.57,.25,.95,.6,1.2,1.17-.55,.32-1.1,.6-1.67,.87h0l-.02,.02Zm1.97-1.1c-.17-.25-.3-.52-.52-.75-.67-.65-2.32-.87-3.21-1.27,.57-.4,1.12-.85,1.67-1.29,.37,.32,1,.57,1.44,.85,.75,.45,1.49,.92,2.24,1.42-.5,.4-1.07,.7-1.59,1.05h-.02Zm2.22-1.52l-.42,.35c-.82-.6-1.69-1.15-2.59-1.64-.37-.22-.77-.4-1.15-.62,.3-.32,.57-.7,.82-1.05,.72,.02,1.44,.05,2.17,.07,.27,.22,.57,.42,.85,.62,.52,.4,.97,.87,1.39,1.37-.35,.32-.72,.62-1.07,.92h0v-.02Zm1.24-1.07c-.12-.15-.25-.3-.37-.45-.5-.55-1.1-1.02-1.72-1.42,.82-.15,1.62-.42,2.47-.5,.37-.05,.82,.07,1.2,.15-.25,.85-.95,1.59-1.57,2.22h0Z" fill="#dc2626"/></svg>