

<svg version="1.1"  xmlns="http://www.w3.org/2000/svg"  x="0px" y="0px"
	 viewBox="0 0 71.7 91.5" style="enable-background:new 0 0 100 100" >
<style type="text/css">
    svg { background-color: transparent; }
  
    svg { background-color:transparent; }
  
	.st0{fill:#2563EB;}
</style>
<path class="st0" d="M70.5,34.5h-1.8l-5.3-21c-0.1-0.5-0.6-0.8-1-0.7L58.5,14c-0.1-0.4-0.4-0.8-0.8-0.8H47.3c-0.5,0-0.9,0.4-0.9,0.9
	l0,0v20.4H34.8v-0.9c0-1.5-1.2-2.7-2.6-2.7H30l-1-3.8h11.1c0.5,0,0.9-0.4,0.9-0.9V0.9C41,0.4,40.6,0,40.2,0H7C6.5,0,6.2,0.4,6.2,0.9
	v25.2C6.2,26.6,6.5,27,7,27h11.1l-1,3.8H15c-1.4,0-2.6,1.2-2.6,2.7v0.9H0.8c-0.5,0-0.9,0.4-0.9,0.9l0,0v4.3c0,0.5,0.4,0.9,0.9,0.9
	h4.5v29.9c0,0.5,0.4,0.9,0.9,0.9h4c0.5,0,0.9-0.4,0.9-0.9l0,0V40.6h29.9v22.6c0,0.5,0.4,0.9,0.9,0.9h18.5v6.4c0,0.5,0.4,0.9,0.9,0.9
	h4c0.5,0,0.9-0.4,0.9-0.9l0,0V40.6h4.5c0.5,0,0.9-0.4,0.9-0.9l0,0v-4.3C71.4,34.9,71,34.5,70.5,34.5L70.5,34.5L70.5,34.5z M62,14.9
	l4.9,19.6h-3.6l-4.7-18.7C58.7,15.8,62,14.9,62,14.9z M58.5,22.1l3.1,12.4h-3.1V22.1L58.5,22.1z M56.8,34.5h-3.5V15h3.5V34.5z
	 M48.2,15h3.5v19.5h-3.5C48.2,34.5,48.2,15,48.2,15z M39.4,1.8v18H7.9v-18C7.9,1.8,39.4,1.8,39.4,1.8z M7.9,21.7h31.4v3.5H7.9
	C7.9,25.2,7.9,21.7,7.9,21.7z M20,27h7.3l1,3.8H19L20,27L20,27z M14.2,33.6c0-0.5,0.4-0.9,0.9-0.9h17.3c0.5,0,0.9,0.4,0.9,0.9v0.9
	h-19V33.6z M9.3,69.6H7V40.6h2.3V69.6L9.3,69.6z M60.3,40.6v9.9H42.6v-9.9H60.3z M42.6,62.2v-9.9h17.7v9.9H42.6z M64.3,69.6H62V40.6
	h2.3L64.3,69.6L64.3,69.6z M69.6,38.8h-68v-2.5h68C69.6,36.3,69.6,38.8,69.6,38.8z M47.4,45.6c0-0.5,0.4-0.9,0.9-0.9h6.4
	c0.5,0,0.9,0.4,0.9,0.9s-0.4,0.9-0.9,0.9h-6.4C47.8,46.6,47.4,46.1,47.4,45.6L47.4,45.6z M55.5,57.1c0,0.5-0.4,0.9-0.9,0.9h-6.4
	c-0.5,0-0.9-0.4-0.9-0.9s0.4-0.9,0.9-0.9h6.4C55.1,56.1,55.5,56.6,55.5,57.1z M30.9,18.1c-0.3-0.4-0.3-0.9,0-1.3l4-4.3
	c0.3-0.4,0.9-0.4,1.2,0s0.4,0.9,0,1.3c0,0,0,0,0,0l-4,4.3C31.7,18.5,31.2,18.5,30.9,18.1L30.9,18.1z M11.1,10.5
	c-0.3-0.4-0.3-0.9,0-1.3l4-4.3c0.3-0.4,0.9-0.4,1.2,0c0.4,0.4,0.3,0.9,0,1.3l-4,4.3C12,10.8,11.5,10.8,11.1,10.5L11.1,10.5
	L11.1,10.5L11.1,10.5z M17.5,18c-0.3-0.4-0.3-0.9,0-1.3L28.5,5c0.3-0.4,0.9-0.4,1.2,0c0.3,0.4,0.3,0.9,0,1.3l0,0L18.7,18
	C18.4,18.4,17.9,18.4,17.5,18L17.5,18L17.5,18L17.5,18z"/>
</svg>
