

<svg version="1.1"  xmlns="http://www.w3.org/2000/svg"  x="0px" y="0px"
	 viewBox="0 0 71.7 91.6" style="enable-background:new 0 0 100 100" >
<style type="text/css">
    svg { background-color: transparent; }
  
    svg { background-color:transparent; }
  
	.st0{fill-rule:evenodd;clip-rule:evenodd;fill:#2563EB;}
</style>
<path class="st0" d="M3,23.8h27.5l11.8-11.3H3.6L0.2,23.8H3L3,23.8z M3.8,10.8h3.8V4.7H3.8C3.8,4.7,3.8,10.8,3.8,10.8z M3,3h6.1V0.1
	H2.3V3L3,3L3,3z M10.5,33.7h21.8c1.4,0,2.5,1.3,2.6,2.8v14.6c0,1.5-1.1,2.8-2.6,2.8H10.5c-1.4,0-2.5-1.3-2.6-2.8V36.5
	C8,35,9.1,33.7,10.5,33.7C10.5,33.7,10.5,33.7,10.5,33.7z M22.2,43h11.2v-6.5c0-0.6-0.4-1.1-1-1.1H22.3L22.2,43L22.2,43L22.2,43z
	 M9.5,43h11.2v-7.6H10.5c-0.6,0-1,0.5-1,1.1V43L9.5,43L9.5,43z M20.7,44.6H9.5v6.5c0,0.6,0.4,1.1,1,1.1h10.1V44.6z M33.4,44.6H22.2
	v7.6h10.2c0.6,0,1-0.5,1-1.1V44.6C33.4,44.6,33.4,44.6,33.4,44.6z M59.2,56.6h-2.4c-0.4,0-0.7-0.4-0.7-0.8c0-0.4,0.3-0.8,0.7-0.8
	h2.4V43.1H46.8v21.5h12.4V56.6L59.2,56.6z M59.2,27.1h4.5c0.4,0,0.7,0.4,0.7,0.8v4.9c0,0.4-0.3,0.8-0.7,0.8h-4.5
	c-0.4,0-0.8-0.4-0.8-0.8v-4.9C58.4,27.4,58.7,27.1,59.2,27.1L59.2,27.1z M62.9,28.7h-3v3.2h3V28.7z M50.7,27.1h4.5
	c0.4,0,0.8,0.4,0.8,0.8v4.9c0,0.4-0.3,0.8-0.8,0.8h-4.5c-0.4,0-0.7-0.4-0.7-0.8v-4.9C50,27.4,50.3,27.1,50.7,27.1L50.7,27.1z
	 M54.4,28.7h-3v3.2h3V28.7z M42.3,27.1h4.5c0.4,0,0.7,0.4,0.7,0.8v4.9c0,0.4-0.3,0.8-0.7,0.8h-4.5c-0.4,0-0.8-0.4-0.8-0.8v-4.9
	C41.5,27.4,41.8,27.1,42.3,27.1L42.3,27.1z M46,28.7h-3v3.2h3V28.7z M6.5,60c0,0-0.3-0.2-0.4-0.2H3.7V25.4h27.2h0l0,0l0,0l0,0l0,0h0
	l0,0l0,0c0,0,0,0,0.1-0.1l0,0l0.1-0.1h0l13.4-12.9c0,0,0.1-0.1,0.1-0.1l7-6.7c0.3-0.3,0.7-0.3,1,0l19,18.2h-3.2
	c-0.4,0-0.7,0.4-0.7,0.8v40.1h-7.1V42.4c0-0.4-0.3-0.8-0.8-0.8h-14c-0.4,0-0.8,0.4-0.8,0.8v22.4h-8.4v-3.9c0-0.4-0.3-0.8-0.8-0.8h-5
	c-0.3,0-0.6,0.2-0.7,0.6c-0.1-0.1-0.1-0.1-0.2-0.2c-2.1-2.4-5.4-3.3-8.3-2c-0.8-1.1-2-1.7-3.3-1.7c-1.3,0-2.5,0.7-3.3,1.8
	C12.3,56.4,8.4,57,6.4,60c0,0.1-0.1,0.1-0.1,0.1l0,0L6.5,60z M16.2,59.9C16.2,59.9,16.2,59.9,16.2,59.9c-0.1,0.4-0.2,0.8-0.3,1.1
	c0,0.4-0.4,0.8-0.8,0.8c-0.4,0-0.7-0.4-0.7-0.9c0-0.4,0.1-0.7,0.2-1.1c-1.3-1-3-1.3-4.5-0.7S7.4,61,6.9,62.7h23
	c-1.6-3.1-5.1-4.2-7.9-2.6c-0.2,0.1-0.4,0.1-0.6,0.1c-0.2-0.1-0.4-0.2-0.4-0.4c-0.5-1-1.4-1.5-2.4-1.5
	C17.6,58.2,16.7,58.8,16.2,59.9L16.2,59.9L16.2,59.9z M42.9,66.3v1.9h20.1v-1.9H42.9z M65.1,69.8H40.8v1.9h24.3V69.8z M31.8,63.5
	L31.8,63.5c0,0.4-0.3,0.8-0.8,0.8H6c-0.4,0-0.8-0.4-0.8-0.8v-2H1.8v9h33.5v-9h-3.4L31.8,63.5L31.8,63.5z"/>
</svg>
