

<svg version="1.1"  xmlns="http://www.w3.org/2000/svg"  x="0px" y="0px"
	 viewBox="0 0 59.7 91.5" style="enable-background:new 0 0 100 100" >
<style type="text/css">
    svg { background-color: transparent; }
  
    svg { background-color:transparent; }
  
	.st0{fill-rule:evenodd;clip-rule:evenodd;fill:#2563EB;}
</style>
<path class="st0" d="M1.9,12.6L3.3,1.1c0-0.3,0.2-0.6,0.4-0.8C3.9,0.1,4.2,0,4.4,0h11.5c-0.1,1.7-0.7,10.6-0.8,12.5
	C14.6,20.9,1.2,22.1,1.9,12.6L1.9,12.6z M22.7,19.3c3.7,0,6.9-3.1,6.9-6.8L29.7,0H17.2l-0.8,12.6C16,16.2,19,19.4,22.7,19.3
	L22.7,19.3L22.7,19.3z M37.6,19.3c3.6,0.1,6.7-3.1,6.4-6.8L43.4,0H30.9l-0.1,12.4C30.7,16.1,33.9,19.4,37.6,19.3L37.6,19.3
	L37.6,19.3z M45.9,15.1c2.1,5.2,10.6,5.9,12.3,0.1c0.7-1.7-0.3-6.5-0.4-8.3l-0.6-5.7c0-0.3-0.2-0.6-0.4-0.8C56.7,0.1,56.4,0,56.1,0
	H44.7l0.6,12.4C45.4,13.4,45.6,14.3,45.9,15.1L45.9,15.1L45.9,15.1z M30.2,15.7c1.9,5.1,9.3,6.6,13,2.6c0.7-0.7,1.2-1.6,1.6-2.6
	c1.8,4.2,7.5,6.4,11.6,3.9v33c0,0.2-0.1,0.5-0.3,0.6c-0.1,0.1-0.4,0.3-0.6,0.3H24.9V30.2c0-0.5-0.2-1-0.6-1.4
	c-0.4-0.3-0.9-0.6-1.4-0.6H10.4c-1.1,0-2,0.9-2,2v23.2H4.8C4.4,53.4,4,53,4,52.5V19.5c4,2.5,9.7,0.3,11.6-3.9
	C17.9,22.3,27.7,22,30.2,15.7L30.2,15.7z M28.9,46.2c0,1.1,0.9,2,2,2h19.5c1.1,0,2-0.9,2-2v-16c0-1.1-0.9-2-2-2H30.9
	c-1.1,0-2,0.9-2,2V46.2z M22.9,29.5c0.4,0,0.7,0.3,0.7,0.7v23.2H9.7V30.2c0-0.4,0.3-0.7,0.7-0.7H22.9L22.9,29.5z M14.4,41.4
	c0-2.1-3.2-2.1-3.3,0C11.2,43.6,14.3,43.6,14.4,41.4z M30.1,46.2v-16c0-0.4,0.3-0.7,0.7-0.7h19.5c0.4,0,0.7,0.3,0.7,0.7v16
	c0,0.4-0.3,0.7-0.7,0.7H30.8C30.4,46.9,30.1,46.6,30.1,46.2z M32.8,42.3c0,1,0.9,1.9,1.9,1.9h11.7c1,0,1.9-0.9,1.9-1.9V41
	c0-0.6-0.6-0.7-1-0.6c-0.2-2.6-1.9-4.7-4.2-5.7c0.9-4.3-5.9-4.4-5,0c-2.3,0.9-4,3.1-4.2,5.7c-0.5,0-1,0.1-1,0.6V42.3z M36.7,37.1
	c-0.9,0.9-1.4,2-1.6,3.3h11C45.7,35.9,39.8,33.8,36.7,37.1L36.7,37.1z M34.7,42.9h11.7c0.7,0,0.7-0.8,0.6-1.3h-13
	C34.1,42.1,34,42.9,34.7,42.9z M41.9,34.4c0.4-2.2-3-2.2-2.6,0C40.1,34.2,41,34.2,41.9,34.4z M12.5,41.7c0.3,0.3,0.9-0.2,0.5-0.5
	C12.7,40.8,12.1,41.4,12.5,41.7z M24.2,54.6H0.6v4.5h59.2v-4.5H24.2z"/>
</svg>
