
<svg style="background-color:transparent;" xmlns="http://www.w3.org/2000/svg" viewBox="0 0 512 512" fill="#d32f2f">
  <path d="M256 0c-17.7 0-32 14.3-32 32V240c0 8.8-7.2 16-16 16s-16-7.2-16-16V64c0-17.7-14.3-32-32-32s-32 14.3-32 32V240c0 8.8-7.2 16-16 16s-16-7.2-16-16V128c0-17.7-14.3-32-32-32s-32 14.3-32 32V320c0 88.4 71.6 160 160 160h64c88.4 0 160-71.6 160-160V128c0-17.7-14.3-32-32-32s-32 14.3-32 32V240c0 8.8-7.2 16-16 16s-16-7.2-16-16V64c0-17.7-14.3-32-32-32s-32 14.3-32 32V240c0 8.8-7.2 16-16 16s-16-7.2-16-16V32c0-17.7-14.3-32-32-32zM160 240v16c0 8.8 7.2 16 16 16s16-7.2 16-16V240c0-8.8-7.2-16-16-16s-16 7.2-16 16zm96 16c0 8.8 7.2 16 16 16s16-7.2 16-16V240c0-8.8-7.2-16-16-16s-16 7.2-16 16v16zm128-16c0-8.8-7.2-16-16-16s-16 7.2-16 16v16c0 8.8 7.2 16 16 16s16-7.2 16-16V240z"/>
</svg>
